<mxfile host="Electron" modified="2024-03-04T11:56:51.661Z" agent="Mozilla/5.0 (Macintosh; Intel Mac OS X 10_15_7) AppleWebKit/537.36 (KHTML, like Gecko) draw.io/21.1.2 Chrome/106.0.5249.199 Electron/21.4.3 Safari/537.36" etag="rC6lBiASm21a_jaI1sqe" version="21.1.2" type="device" pages="4">
  <diagram name="UML class diagram" id="R8l4FHPOOlSc5WCvKvhv">
    <mxGraphModel dx="1194" dy="601" grid="1" gridSize="10" guides="1" tooltips="1" connect="1" arrows="1" fold="1" page="1" pageScale="1" pageWidth="827" pageHeight="1169" math="0" shadow="0">
      <root>
        <mxCell id="0" />
        <mxCell id="1" parent="0" />
        <mxCell id="9fu7r5U_mL2j5_4iyBTW-1" value="Player" style="swimlane;fontStyle=1;align=center;verticalAlign=top;childLayout=stackLayout;horizontal=1;startSize=26;horizontalStack=0;resizeParent=1;resizeParentMax=0;resizeLast=0;collapsible=1;marginBottom=0;whiteSpace=wrap;html=1;" parent="1" vertex="1">
          <mxGeometry x="80" y="280" width="160" height="138" as="geometry" />
        </mxCell>
        <mxCell id="9fu7r5U_mL2j5_4iyBTW-2" value="+ bank" style="text;strokeColor=none;fillColor=none;align=left;verticalAlign=top;spacingLeft=4;spacingRight=4;overflow=hidden;rotatable=0;points=[[0,0.5],[1,0.5]];portConstraint=eastwest;whiteSpace=wrap;html=1;fontFamily=Courier New;" parent="9fu7r5U_mL2j5_4iyBTW-1" vertex="1">
          <mxGeometry y="26" width="160" height="26" as="geometry" />
        </mxCell>
        <mxCell id="uCj3WwBKSUaCFdlspBaK-4" value="+ name" style="text;strokeColor=none;fillColor=none;align=left;verticalAlign=top;spacingLeft=4;spacingRight=4;overflow=hidden;rotatable=0;points=[[0,0.5],[1,0.5]];portConstraint=eastwest;whiteSpace=wrap;html=1;fontFamily=Courier New;" parent="9fu7r5U_mL2j5_4iyBTW-1" vertex="1">
          <mxGeometry y="52" width="160" height="26" as="geometry" />
        </mxCell>
        <mxCell id="9fu7r5U_mL2j5_4iyBTW-3" value="" style="line;strokeWidth=1;fillColor=none;align=left;verticalAlign=middle;spacingTop=-1;spacingLeft=3;spacingRight=3;rotatable=0;labelPosition=right;points=[];portConstraint=eastwest;strokeColor=inherit;" parent="9fu7r5U_mL2j5_4iyBTW-1" vertex="1">
          <mxGeometry y="78" width="160" height="8" as="geometry" />
        </mxCell>
        <mxCell id="9fu7r5U_mL2j5_4iyBTW-4" value="+ make_bet()" style="text;strokeColor=none;fillColor=none;align=left;verticalAlign=top;spacingLeft=4;spacingRight=4;overflow=hidden;rotatable=0;points=[[0,0.5],[1,0.5]];portConstraint=eastwest;whiteSpace=wrap;html=1;fontFamily=Courier New;" parent="9fu7r5U_mL2j5_4iyBTW-1" vertex="1">
          <mxGeometry y="86" width="160" height="26" as="geometry" />
        </mxCell>
        <mxCell id="uCj3WwBKSUaCFdlspBaK-13" value="+ get_cards()" style="text;strokeColor=none;fillColor=none;align=left;verticalAlign=top;spacingLeft=4;spacingRight=4;overflow=hidden;rotatable=0;points=[[0,0.5],[1,0.5]];portConstraint=eastwest;whiteSpace=wrap;html=1;fontFamily=Courier New;" parent="9fu7r5U_mL2j5_4iyBTW-1" vertex="1">
          <mxGeometry y="112" width="160" height="26" as="geometry" />
        </mxCell>
        <mxCell id="9fu7r5U_mL2j5_4iyBTW-6" value="&lt;b&gt;&lt;font style=&quot;font-size: 23px;&quot;&gt;BlackJack On Ruby&lt;/font&gt;&lt;/b&gt;" style="rounded=0;whiteSpace=wrap;html=1;" parent="1" vertex="1">
          <mxGeometry x="40" y="40" width="320" height="40" as="geometry" />
        </mxCell>
        <mxCell id="9fu7r5U_mL2j5_4iyBTW-7" value="Dealer" style="swimlane;fontStyle=1;align=center;verticalAlign=top;childLayout=stackLayout;horizontal=1;startSize=26;horizontalStack=0;resizeParent=1;resizeParentMax=0;resizeLast=0;collapsible=1;marginBottom=0;whiteSpace=wrap;html=1;" parent="1" vertex="1">
          <mxGeometry x="600" y="280" width="160" height="138" as="geometry" />
        </mxCell>
        <mxCell id="9fu7r5U_mL2j5_4iyBTW-8" value="+ bank" style="text;strokeColor=none;fillColor=none;align=left;verticalAlign=top;spacingLeft=4;spacingRight=4;overflow=hidden;rotatable=0;points=[[0,0.5],[1,0.5]];portConstraint=eastwest;whiteSpace=wrap;html=1;fontFamily=Courier New;" parent="9fu7r5U_mL2j5_4iyBTW-7" vertex="1">
          <mxGeometry y="26" width="160" height="26" as="geometry" />
        </mxCell>
        <mxCell id="uCj3WwBKSUaCFdlspBaK-17" value="+ name" style="text;strokeColor=none;fillColor=none;align=left;verticalAlign=top;spacingLeft=4;spacingRight=4;overflow=hidden;rotatable=0;points=[[0,0.5],[1,0.5]];portConstraint=eastwest;whiteSpace=wrap;html=1;fontFamily=Courier New;" parent="9fu7r5U_mL2j5_4iyBTW-7" vertex="1">
          <mxGeometry y="52" width="160" height="26" as="geometry" />
        </mxCell>
        <mxCell id="9fu7r5U_mL2j5_4iyBTW-9" value="" style="line;strokeWidth=1;fillColor=none;align=left;verticalAlign=middle;spacingTop=-1;spacingLeft=3;spacingRight=3;rotatable=0;labelPosition=right;points=[];portConstraint=eastwest;strokeColor=inherit;" parent="9fu7r5U_mL2j5_4iyBTW-7" vertex="1">
          <mxGeometry y="78" width="160" height="8" as="geometry" />
        </mxCell>
        <mxCell id="9fu7r5U_mL2j5_4iyBTW-10" value="+ make_bet()" style="text;strokeColor=none;fillColor=none;align=left;verticalAlign=top;spacingLeft=4;spacingRight=4;overflow=hidden;rotatable=0;points=[[0,0.5],[1,0.5]];portConstraint=eastwest;whiteSpace=wrap;html=1;fontFamily=Courier New;" parent="9fu7r5U_mL2j5_4iyBTW-7" vertex="1">
          <mxGeometry y="86" width="160" height="26" as="geometry" />
        </mxCell>
        <mxCell id="uCj3WwBKSUaCFdlspBaK-14" value="+ get_cards()" style="text;strokeColor=none;fillColor=none;align=left;verticalAlign=top;spacingLeft=4;spacingRight=4;overflow=hidden;rotatable=0;points=[[0,0.5],[1,0.5]];portConstraint=eastwest;whiteSpace=wrap;html=1;fontFamily=Courier New;" parent="9fu7r5U_mL2j5_4iyBTW-7" vertex="1">
          <mxGeometry y="112" width="160" height="26" as="geometry" />
        </mxCell>
        <mxCell id="VdHqPbHm-LjEySt5_fG3-1" value="&lt;font color=&quot;#00cc00&quot; style=&quot;font-size: 20px;&quot;&gt;UML class diagram&lt;/font&gt;" style="rounded=0;whiteSpace=wrap;html=1;fontSize=20;" parent="1" vertex="1">
          <mxGeometry x="40" y="80" width="320" height="40" as="geometry" />
        </mxCell>
        <mxCell id="7hKcTqkIeSeQcd0lzIa7-8" value="&lt;b&gt;Game&lt;/b&gt;" style="swimlane;fontStyle=0;childLayout=stackLayout;horizontal=1;startSize=26;fillColor=none;horizontalStack=0;resizeParent=1;resizeParentMax=0;resizeLast=0;collapsible=1;marginBottom=0;whiteSpace=wrap;html=1;" parent="1" vertex="1">
          <mxGeometry x="344" y="160" width="140" height="52" as="geometry" />
        </mxCell>
        <mxCell id="7hKcTqkIeSeQcd0lzIa7-9" value="+ start_game()" style="text;strokeColor=none;fillColor=none;align=left;verticalAlign=top;spacingLeft=4;spacingRight=4;overflow=hidden;rotatable=0;points=[[0,0.5],[1,0.5]];portConstraint=eastwest;whiteSpace=wrap;html=1;fontFamily=Courier New;" parent="7hKcTqkIeSeQcd0lzIa7-8" vertex="1">
          <mxGeometry y="26" width="140" height="26" as="geometry" />
        </mxCell>
        <mxCell id="uCj3WwBKSUaCFdlspBaK-9" value="Card" style="swimlane;fontStyle=1;align=center;verticalAlign=top;childLayout=stackLayout;horizontal=1;startSize=26;horizontalStack=0;resizeParent=1;resizeParentMax=0;resizeLast=0;collapsible=1;marginBottom=0;whiteSpace=wrap;html=1;" parent="1" vertex="1">
          <mxGeometry x="334" y="280" width="160" height="164" as="geometry" />
        </mxCell>
        <mxCell id="uCj3WwBKSUaCFdlspBaK-10" value="+ formal_symbols" style="text;strokeColor=none;fillColor=none;align=left;verticalAlign=top;spacingLeft=4;spacingRight=4;overflow=hidden;rotatable=0;points=[[0,0.5],[1,0.5]];portConstraint=eastwest;whiteSpace=wrap;html=1;fontFamily=Courier New;" parent="uCj3WwBKSUaCFdlspBaK-9" vertex="1">
          <mxGeometry y="26" width="160" height="26" as="geometry" />
        </mxCell>
        <mxCell id="uCj3WwBKSUaCFdlspBaK-15" value="+ card_power" style="text;strokeColor=none;fillColor=none;align=left;verticalAlign=top;spacingLeft=4;spacingRight=4;overflow=hidden;rotatable=0;points=[[0,0.5],[1,0.5]];portConstraint=eastwest;whiteSpace=wrap;html=1;fontFamily=Courier New;" parent="uCj3WwBKSUaCFdlspBaK-9" vertex="1">
          <mxGeometry y="52" width="160" height="26" as="geometry" />
        </mxCell>
        <mxCell id="uCj3WwBKSUaCFdlspBaK-16" value="+ card_suit" style="text;strokeColor=none;fillColor=none;align=left;verticalAlign=top;spacingLeft=4;spacingRight=4;overflow=hidden;rotatable=0;points=[[0,0.5],[1,0.5]];portConstraint=eastwest;whiteSpace=wrap;html=1;fontFamily=Courier New;" parent="uCj3WwBKSUaCFdlspBaK-9" vertex="1">
          <mxGeometry y="78" width="160" height="26" as="geometry" />
        </mxCell>
        <mxCell id="uCj3WwBKSUaCFdlspBaK-18" value="+ card_owner" style="text;strokeColor=none;fillColor=none;align=left;verticalAlign=top;spacingLeft=4;spacingRight=4;overflow=hidden;rotatable=0;points=[[0,0.5],[1,0.5]];portConstraint=eastwest;whiteSpace=wrap;html=1;fontFamily=Courier New;" parent="uCj3WwBKSUaCFdlspBaK-9" vertex="1">
          <mxGeometry y="104" width="160" height="26" as="geometry" />
        </mxCell>
        <mxCell id="uCj3WwBKSUaCFdlspBaK-11" value="" style="line;strokeWidth=1;fillColor=none;align=left;verticalAlign=middle;spacingTop=-1;spacingLeft=3;spacingRight=3;rotatable=0;labelPosition=right;points=[];portConstraint=eastwest;strokeColor=inherit;" parent="uCj3WwBKSUaCFdlspBaK-9" vertex="1">
          <mxGeometry y="130" width="160" height="8" as="geometry" />
        </mxCell>
        <mxCell id="uCj3WwBKSUaCFdlspBaK-12" value="+ initialize()" style="text;strokeColor=none;fillColor=none;align=left;verticalAlign=top;spacingLeft=4;spacingRight=4;overflow=hidden;rotatable=0;points=[[0,0.5],[1,0.5]];portConstraint=eastwest;whiteSpace=wrap;html=1;fontFamily=Courier New;" parent="uCj3WwBKSUaCFdlspBaK-9" vertex="1">
          <mxGeometry y="138" width="160" height="26" as="geometry" />
        </mxCell>
      </root>
    </mxGraphModel>
  </diagram>
  <diagram id="RcmYww-g0oK0FtPzmwMv" name="UML activity diagram">
    <mxGraphModel dx="954" dy="601" grid="1" gridSize="10" guides="1" tooltips="1" connect="1" arrows="1" fold="1" page="1" pageScale="1" pageWidth="827" pageHeight="1169" math="0" shadow="0">
      <root>
        <mxCell id="0" />
        <mxCell id="1" parent="0" />
        <mxCell id="cowCajR5iwz_c6HWYLh--1" value="&lt;b&gt;&lt;font style=&quot;font-size: 23px;&quot;&gt;BlackJack On Ruby&lt;/font&gt;&lt;/b&gt;" style="rounded=0;whiteSpace=wrap;html=1;" parent="1" vertex="1">
          <mxGeometry x="40" y="40" width="320" height="40" as="geometry" />
        </mxCell>
        <mxCell id="cowCajR5iwz_c6HWYLh--2" value="&lt;font color=&quot;#ff8000&quot; style=&quot;font-size: 20px;&quot;&gt;UML activity diagram&lt;/font&gt;" style="rounded=0;whiteSpace=wrap;html=1;fontSize=20;" parent="1" vertex="1">
          <mxGeometry x="40" y="80" width="320" height="40" as="geometry" />
        </mxCell>
        <mxCell id="MXzOfKBRMvrR_hcXFkr6-1" value="" style="ellipse;html=1;shape=startState;fillColor=#000000;strokeColor=#ff0000;" parent="1" vertex="1">
          <mxGeometry x="360" y="170" width="30" height="30" as="geometry" />
        </mxCell>
        <mxCell id="MXzOfKBRMvrR_hcXFkr6-2" value="" style="edgeStyle=orthogonalEdgeStyle;html=1;verticalAlign=bottom;endArrow=open;endSize=8;strokeColor=#ff0000;rounded=0;entryX=0.5;entryY=0;entryDx=0;entryDy=0;" parent="1" source="MXzOfKBRMvrR_hcXFkr6-1" target="MXzOfKBRMvrR_hcXFkr6-3" edge="1">
          <mxGeometry relative="1" as="geometry">
            <mxPoint x="375" y="260" as="targetPoint" />
          </mxGeometry>
        </mxCell>
        <mxCell id="MXzOfKBRMvrR_hcXFkr6-3" value="Ask a player name" style="rounded=1;whiteSpace=wrap;html=1;arcSize=40;fontColor=#000000;fillColor=#ffffc0;strokeColor=#ff0000;" parent="1" vertex="1">
          <mxGeometry x="315" y="240" width="120" height="40" as="geometry" />
        </mxCell>
        <mxCell id="MXzOfKBRMvrR_hcXFkr6-4" value="" style="edgeStyle=orthogonalEdgeStyle;html=1;verticalAlign=bottom;endArrow=open;endSize=8;strokeColor=#ff0000;rounded=0;entryX=0.5;entryY=0;entryDx=0;entryDy=0;" parent="1" source="MXzOfKBRMvrR_hcXFkr6-3" target="MXzOfKBRMvrR_hcXFkr6-8" edge="1">
          <mxGeometry relative="1" as="geometry">
            <mxPoint x="375" y="320" as="targetPoint" />
          </mxGeometry>
        </mxCell>
        <mxCell id="MXzOfKBRMvrR_hcXFkr6-8" value="Name validation correct?" style="rhombus;whiteSpace=wrap;html=1;fontColor=#000000;fillColor=#ffffc0;strokeColor=#ff0000;" parent="1" vertex="1">
          <mxGeometry x="317.5" y="330" width="115" height="100" as="geometry" />
        </mxCell>
        <mxCell id="MXzOfKBRMvrR_hcXFkr6-9" value="no" style="edgeStyle=orthogonalEdgeStyle;html=1;align=left;verticalAlign=bottom;endArrow=open;endSize=8;strokeColor=#ff0000;rounded=0;entryX=1;entryY=0.5;entryDx=0;entryDy=0;exitX=1;exitY=0.5;exitDx=0;exitDy=0;" parent="1" source="MXzOfKBRMvrR_hcXFkr6-8" target="MXzOfKBRMvrR_hcXFkr6-3" edge="1">
          <mxGeometry x="-1" relative="1" as="geometry">
            <mxPoint x="510" y="350" as="targetPoint" />
            <Array as="points">
              <mxPoint x="510" y="380" />
              <mxPoint x="510" y="260" />
            </Array>
          </mxGeometry>
        </mxCell>
        <mxCell id="MXzOfKBRMvrR_hcXFkr6-10" value="yes" style="edgeStyle=orthogonalEdgeStyle;html=1;align=left;verticalAlign=top;endArrow=open;endSize=8;strokeColor=#ff0000;rounded=0;entryX=0.5;entryY=0;entryDx=0;entryDy=0;" parent="1" target="MXzOfKBRMvrR_hcXFkr6-11" edge="1">
          <mxGeometry x="-1" relative="1" as="geometry">
            <mxPoint x="375" y="470" as="targetPoint" />
            <mxPoint x="375" y="430" as="sourcePoint" />
            <Array as="points" />
          </mxGeometry>
        </mxCell>
        <mxCell id="MXzOfKBRMvrR_hcXFkr6-11" value="Start a new game" style="rounded=1;whiteSpace=wrap;html=1;arcSize=40;fontColor=#000000;fillColor=#ffffc0;strokeColor=#ff0000;" parent="1" vertex="1">
          <mxGeometry x="314.5" y="480" width="120" height="40" as="geometry" />
        </mxCell>
        <mxCell id="MXzOfKBRMvrR_hcXFkr6-12" value="" style="edgeStyle=orthogonalEdgeStyle;html=1;verticalAlign=bottom;endArrow=open;endSize=8;strokeColor=#ff0000;rounded=0;" parent="1" source="MXzOfKBRMvrR_hcXFkr6-11" target="MXzOfKBRMvrR_hcXFkr6-13" edge="1">
          <mxGeometry relative="1" as="geometry">
            <mxPoint x="374.5" y="600" as="targetPoint" />
          </mxGeometry>
        </mxCell>
        <mxCell id="MXzOfKBRMvrR_hcXFkr6-13" value="" style="shape=line;html=1;strokeWidth=6;strokeColor=#ff0000;" parent="1" vertex="1">
          <mxGeometry x="274" y="564" width="200" height="10" as="geometry" />
        </mxCell>
        <mxCell id="MXzOfKBRMvrR_hcXFkr6-14" value="" style="edgeStyle=orthogonalEdgeStyle;html=1;verticalAlign=bottom;endArrow=open;endSize=8;strokeColor=#ff0000;rounded=0;exitX=0.25;exitY=0.5;exitDx=0;exitDy=0;exitPerimeter=0;" parent="1" source="MXzOfKBRMvrR_hcXFkr6-13" target="MXzOfKBRMvrR_hcXFkr6-15" edge="1">
          <mxGeometry relative="1" as="geometry">
            <mxPoint x="374" y="644" as="targetPoint" />
            <Array as="points">
              <mxPoint x="319" y="569" />
            </Array>
          </mxGeometry>
        </mxCell>
        <mxCell id="MXzOfKBRMvrR_hcXFkr6-15" value="Get 2 random cards for a &lt;b&gt;player&lt;/b&gt;" style="rounded=1;whiteSpace=wrap;html=1;arcSize=40;fontColor=#000000;fillColor=#ffffc0;strokeColor=#ff0000;" parent="1" vertex="1">
          <mxGeometry x="274" y="604" width="90" height="46" as="geometry" />
        </mxCell>
        <mxCell id="MXzOfKBRMvrR_hcXFkr6-16" value="Get 2 random cards for a &lt;b&gt;dealer&lt;/b&gt;" style="rounded=1;whiteSpace=wrap;html=1;arcSize=40;fontColor=#000000;fillColor=#ffffc0;strokeColor=#ff0000;" parent="1" vertex="1">
          <mxGeometry x="390" y="604" width="90" height="46" as="geometry" />
        </mxCell>
        <mxCell id="MXzOfKBRMvrR_hcXFkr6-20" value="" style="edgeStyle=orthogonalEdgeStyle;html=1;verticalAlign=bottom;endArrow=open;endSize=8;strokeColor=#ff0000;rounded=0;exitX=0.75;exitY=0.5;exitDx=0;exitDy=0;exitPerimeter=0;entryX=0.5;entryY=0;entryDx=0;entryDy=0;" parent="1" source="MXzOfKBRMvrR_hcXFkr6-13" target="MXzOfKBRMvrR_hcXFkr6-16" edge="1">
          <mxGeometry relative="1" as="geometry">
            <mxPoint x="410" y="634" as="targetPoint" />
            <mxPoint x="410" y="584" as="sourcePoint" />
            <Array as="points">
              <mxPoint x="435" y="569" />
            </Array>
          </mxGeometry>
        </mxCell>
        <mxCell id="MXzOfKBRMvrR_hcXFkr6-22" value="" style="edgeStyle=orthogonalEdgeStyle;html=1;verticalAlign=bottom;endArrow=open;endSize=8;strokeColor=#ff0000;rounded=0;exitX=0.5;exitY=1;exitDx=0;exitDy=0;" parent="1" source="MXzOfKBRMvrR_hcXFkr6-15" target="MXzOfKBRMvrR_hcXFkr6-23" edge="1">
          <mxGeometry relative="1" as="geometry">
            <mxPoint x="340" y="735" as="targetPoint" />
            <mxPoint x="345" y="680" as="sourcePoint" />
            <Array as="points">
              <mxPoint x="319" y="680" />
              <mxPoint x="320" y="680" />
            </Array>
          </mxGeometry>
        </mxCell>
        <mxCell id="MXzOfKBRMvrR_hcXFkr6-23" value="" style="shape=line;html=1;strokeWidth=6;strokeColor=#ff0000;" parent="1" vertex="1">
          <mxGeometry x="280" y="680" width="200" height="10" as="geometry" />
        </mxCell>
        <mxCell id="MXzOfKBRMvrR_hcXFkr6-24" value="" style="edgeStyle=orthogonalEdgeStyle;html=1;verticalAlign=bottom;endArrow=open;endSize=8;strokeColor=#ff0000;rounded=0;exitX=0.5;exitY=1;exitDx=0;exitDy=0;" parent="1" source="MXzOfKBRMvrR_hcXFkr6-16" target="MXzOfKBRMvrR_hcXFkr6-23" edge="1">
          <mxGeometry relative="1" as="geometry">
            <mxPoint x="510" y="735" as="targetPoint" />
            <mxPoint x="515" y="680" as="sourcePoint" />
            <Array as="points">
              <mxPoint x="435" y="670" />
              <mxPoint x="435" y="670" />
            </Array>
          </mxGeometry>
        </mxCell>
        <mxCell id="3XYizHn1XYag7hUgtDGE-1" value="" style="edgeStyle=orthogonalEdgeStyle;html=1;verticalAlign=bottom;endArrow=open;endSize=8;strokeColor=#ff0000;rounded=0;exitX=0.472;exitY=0.497;exitDx=0;exitDy=0;exitPerimeter=0;" parent="1" source="MXzOfKBRMvrR_hcXFkr6-23" edge="1">
          <mxGeometry relative="1" as="geometry">
            <mxPoint x="375" y="744" as="targetPoint" />
            <mxPoint x="375" y="700" as="sourcePoint" />
          </mxGeometry>
        </mxCell>
      </root>
    </mxGraphModel>
  </diagram>
  <diagram id="bEfsWApyPhci_3sHgQMa" name="test_1">
    <mxGraphModel dx="1194" dy="601" grid="1" gridSize="10" guides="1" tooltips="1" connect="1" arrows="1" fold="1" page="1" pageScale="1" pageWidth="827" pageHeight="1169" math="0" shadow="0">
      <root>
        <mxCell id="0" />
        <mxCell id="1" parent="0" />
        <mxCell id="qgleAZx9od4PJ5vfA43V-1" value="" style="shape=image;verticalLabelPosition=bottom;labelBackgroundColor=default;verticalAlign=top;aspect=fixed;imageAspect=0;image=data:image/png,iVBORw0KGgoAAAANSUhEUgAAAe0AAADLCAYAAABDNstkAAAYTWlDQ1BJQ0MgUHJvZmlsZQAAWIWVeQk4lV3X/77PfI75HPM8z2Se53meZxKO6ZjiGEOJJGOiQkglGSuVQiUiDUoZekiSSIZKoaJC9d2Gep73ef/X/7u+fV373r+z9tprrb3WHu51bgC4qnwjI8MQjACER8RQHUwN+N3cPfixcwACSMAElADJlxwdqW9nZwXg8rv9z7IyDHPD5anMhqz/7v//Fib/gGgyAJAdjP38o8nhML4KAKqcHEmNAQCzQReKj4ncwHAFzFTYQBhnbuCgLVy+gf228KVNHicHQxh3A4Cj9fWlBgFA3w/T+ePIQbAM+kW4jxjhT4kAgAUFY53w8N3+AHAZwTziME8kjDfmoeb3DzlB/yHT749MX9+gP3hrLpsFZ0SJjgzz3fN/dMf/XsLDYn/rEIUrbTDVzGFjzrDfRkJ3W25gWhjPR/jZ2MKYCONvFP9NfhgjCMGxZs5b/AhucrQh7DPACmM5f18jSxhzw9gkIszGapvuF0gxMYcxvEIQCZQYcycYs8M4MyDa2HGb5zR1t8O2LkRzINVQf5v+wJe6qXdD13hsqLP+tvxPwQHm2/KR9InBTq4wJsBYOI7iYgNjehjLRoc6Wm7zaCUGG9r85qHGOmzYLwxjh4AIU4Mt+ci4QKqJwzZ/dnj07/kiTwdTzG228ZWYYCezLf8gu8m+m/bDc0H2B0ToO/+WExDtZvV7Lv4BRsZbc0fOBUQ4O27L+RYZY+CwNRZFiAyz2+ZHCQaEmW7QBWGsFB3nuD0W5RIDL8gt+ajAyBg7py07UYkhvhZ2W/agjgArYAiMAD+Ihasf2A1CAOXJfMs8/GurxwT4AioIAgFAZpvye4TrZk8E/HQEieADjAJA9J9xBpu9ASAOpv/4Q916yoDAzd64zRGhYAbG4cAShMG/YzdHRfzR5gLewBTKf2n3hSsZtjcMrhv9/2/6b+rfFH2YYrVNif2tkZ/hNyfGGGOEMcOYYCRQnCgdlCbKCn7qwVUBpYZS/z2Pv/nRM+gB9Gv0EHoC/XwXJY36LyutwQQs32TbF37/9AVKFJapjDJAacPSYckoVhQnkEEpwXr0UbqwZmWYarht94ZX+P8l+z9m8I9obPPh5fAIPBteDy/+75H0kvTKf6Rs+Pqf/tmy1e+Pvw3/9Pxbv+E/vO8Pt5b/5kRmIpuQ95GdyB5kG7IF8CM7kK3IXuStDfxndb3ZXF2/tTls2hMKy6H8l77fkd3wZLRcg9xbufWtvpiAhI0zGhjujtxDpQQFx/DrwzdCAL95BFlWml9BTkEJgI37Zev4+uyweW9ArH1/08gHAVCFz2f86t+08M8AXIL3Pr/13zQRb3j7YQConSHHUuO2aKiNBxo+JRjgncYBeIEQEIfnowBUgCbQA8bAAtgCJ+AOvGHrg+F1TgXxIBmkggyQA46A46AUnAJnQS24AK6AFtAGOsE98Aj0gyHwAl490+A9WAQrYA2CICxEB5EgDogPEoGkIAVIDdKBjCEryAFyh3ygICgCioWSoQNQDlQIlUJnoDroMnQd6oR6oAHoOTQJvYU+QasIJIIWwYzgQYgidiDUEPoIS4QTYiciCBGFSESkIw4jShCViPOIZkQn4hFiCDGBeI9YRgIkDZIVKYCUQaohDZG2SA9kIJKK3IfMRhYhK5EXkTfgOD9FTiDnkd9RGBQJxY+SgVewGcoZRUZFofahclGlqFpUM6ob9RQ1iVpE/UTTobnRUmgNtDnaDR2EjkdnoIvQ1ehr6LvwXppGr2AwGFaMGEYV3ovumBBMEiYXcxLTiLmNGcBMYZaxWCwHVgqrjbXF+mJjsBnYE9jz2A7sIHYa+w1Hg+PDKeBMcB64CFwarghXj2vHDeJmcWt4RrwIXgNvi/fH78Hn46vwN/B9+Gn8GoGJIEbQJjgRQgiphBLCRcJdwhjhMw0NjSCNOo09DYVmP00JzSWaBzSTNN9pibSStIa0XrSxtIdpa2hv0z6n/UxHRydKp0fnQRdDd5iuju4O3TjdN3oSvSy9Ob0/fQp9GX0z/SD9RwY8gwiDPoM3QyJDEUMTQx/DPCOeUZTRkNGXcR9jGeN1xmeMy0wkJnkmW6ZwplymeqYepjkilihKNCb6E9OJZ4l3iFMkJEmIZEgikw6Qqkh3SdPMGGYxZnPmEOYc5gvMT5gXWYgsSiwuLAksZSy3WCZYkayirOasYaz5rFdYh1lX2XjY9NkC2LLYLrINsn1l52LXYw9gz2ZvZB9iX+Xg5zDmCOUo4GjheMmJ4pTktOeM56zgvMs5z8XMpclF5srmusI1yo3gluR24E7iPsvdy73Mw8tjyhPJc4LnDs88LyuvHm8I7zHedt63fCQ+HT4K3zG+Dr53/Cz8+vxh/CX83fyLAtwCZgKxAmcEngisCYoJOgumCTYKvhQiCKkJBQodE+oSWhTmE7YWThZuEB4VwYuoiQSLFIvcF/kqKibqKnpItEV0ToxdzFwsUaxBbEycTlxXPEq8UvwvCYyEmkSoxEmJfkmEpLJksGSZZJ8UQkpFiiJ1UmpAGi2tLh0hXSn9TIZWRl8mTqZBZlKWVdZKNk22RfbjDuEdHjsKdtzf8VNOWS5MrkruhTxR3kI+Tf6G/CcFSQWyQpnCX4p0iiaKKYqtiktKUkoBShVKI8okZWvlQ8pdyj9UVFWoKhdV3qoKq/qolqs+U2NWs1PLVXugjlY3UE9Rb1P/rqGiEaNxRWNBU0YzVLNec05LTCtAq0prSltQ21f7jPaEDr+Oj85pnQldAV1f3Urd13pCev561Xqz+hL6Ifrn9T8ayBlQDa4ZfDXUMNxreNsIaWRqlG30xJho7GxcajxuImgSZNJgsmiqbJpketsMbWZpVmD2zJzHnGxeZ75ooWqx16LbktbS0bLU8rWVpBXV6oY1wtrC+qj1mI2ITYRNiy2wNbc9avvSTswuyu6mPcbezr7MfsZB3iHZ4b4jyXGXY73jipOBU77TC2dx51jnLhcGFy+XOpevrkauha4Tbjvc9ro9cud0p7i3emA9XDyqPZY9jT2Pe057KXtleA3vFNuZsLPHm9M7zPvWLoZdvruafNA+rj71Puu+tr6Vvst+5n7lfotkQ3Ix+b2/nv8x/7cB2gGFAbOB2oGFgXNB2kFHg94G6wYXBc9TDCmllKUQs5BTIV9DbUNrQn+FuYY1huPCfcKvRxAjQiO6d/PuTtg9ECkVmRE5EaURdTxqkWpJrY6GondGt8Ywwy/yvbHisQdjJ+N04srivsW7xDclMCVEJPTukdyTtWc20STxXBIqiZzUlSyQnJo8uVd/75l90D6/fV0pQinpKdP7TffXphJSQ1Mfp8mlFaZ9OeB64EY6T/r+9KmDpgcbMugzqBnPDmkeOpWJyqRkPslSzDqR9TPbP/thjlxOUc56Ljn3YZ58Xkner8OBh5/kq+RXHMEciTgyXKBbUFvIVJhYOHXU+mjzMf5j2ce+HN91vKdIqehUMaE4tniixKqk9YTwiSMn1kuDS4fKDMoay7nLs8q/nvQ/OVihV3HxFM+pnFOrpymnR86YnmmuFK0sOos5G3d2psql6v45tXN11ZzVOdU/aiJqJmodarvrVOvq6rnr8xsQDbENb897ne+/YHSh9aLMxTONrI05l8Cl2EvvLvtcHr5ieaWrSa3p4lWRq+XXSNeym6HmPc2LLcEtE63urQPXLa533dC8ce2m7M2aNoG2slsst/LbCe3p7b86EjuWb0fenu8M6pzq2tX14o7bnb+67buf3LW8++Ceyb079/XvdzzQftDWo9Fz/aHaw5ZHKo+ae5V7rz1WfnzticqT5j7VvtZ+9f4bA1oD7YO6g51PjZ7e+8v8r0dDNkMDw87DI8+8nk2M+I/MPQ97vjQaN7r2Yv8Yeiz7JePLonHu8cpXEq8aJ1Qmbk0aTfa+dnz9Yoo89f5N9Jv16fQZupmiWb7ZujmFuba3Jm/733m+m34f+X5tPuMD04fyj+Ifry7oLfQuui1OL1GXfn3K/czxueaL0peuZbvl8ZXwlbWv2d84vtV+V/t+f9V1dXYtfh27XvJD4seNn5Y/x36F//oV6Uv13XwVQMIVERgIwKcaAOjcASDB+RnBcyv/2y5I+OUDAbcukCz0HpEO36h9qAy0CQaJeYQtwUXgrQgSNFiaedpBuhb6GoZqxkamVmIX6RFzP8sI6yu2Ofb3HEucq1w/eBC8WD4CP50AUZAoxCrMLsImyi7GLc4jwS/JLyUoLSwjKiu2Q1pOTl5RQUVRQ0lX2VjFXNVczUTdRMNE01BLX1tLR0NXSU9WX9SAx5DZiGD0y/izyYzpc7Ne8zaLWsujVinWITZutsZ2yvZiDlyOjE44Z6QL5IpwQ7njPRg9ObyEd8p4S+wS9uHz5fRjIZP8iQGkQNYgrmBBinSIaqhJmEs4JSJ5d2FkVdRpakl0QUxubFZcdvzhhJI9tYntSS/2gn3SKbv2n0h9cUAwfffBzkOYTKEshWyDHMfcwLzEwwX5tUduF4wWLh9jOi5TZFEcWHLgREXp9bLB8jcnl09hT3OckazUOmtb5XcupvpgTVFtbd31+ocNo+ffXfjeiLvEdln8im6T+9Woa1nNJ1saWzuu99zou9nf9uhWV/vljrLbKZ27ujTuEO/MdF+/W3+v/H7Og4Qev4fmj2R76XvnH999Ut4X2W8wQBqYGrzyNPUv+yGRYdTw22e9I43PC0djXriMqb3kfLk+Pv6qc+LcZNbr3VPOb7SmheFVtjL719zVt8XvUt6HzZM/kD9GLuQsXlta+Kz35cwK6WvJd6nVJ+spPzV+/fpH/BWQc6hCtCWGBfMS24TLxQcRjGgkaRlo1+lm6UcYRhhfMb0hfiB9Zl5h+cG6xvaD/SfHD84Vrs/cCzwzvGN8g/x3Ba4LVgvlCIeJWIlKiuHF3on3SNRJZktRpC1lZGTpZBd2DMhdlS9WSFYkK9krG6goqAqoEdV+qX/UGNPs0WrWrtTJ1Y3X89G3MFAw5DRCGL01fmJyybTALNrcyULFks1yzeqV9R2betsCuyT7QAdHR30neWcBF5Ir1nXV7b37mEev5y2vxp2nvY/uOuST7Ev1o5B9/T0CnALtg2yCLSmWIWahmmGy4QIRLLtpIhGR61HfqN+jf8Si44jxQgkae5wSo5OKktv2zqTQ7OdLlUnTPmCT7ncwPiPvUHVmR9Zo9tdc5jyFw/b5EUfyChoKHxx9c+xXEWexcondidDSg2WnyltP9lfMnfp5hrlS4qx2ld05cnVszaHaEvic621YuEC8qNjoeCnqcv6Vhqbuq2PXPrVgWjmuS97QuGnR5nYrsD2mI+V2aueBroN3MroP3c28l30/90FeT97DvEd5vbmPc55k9R3qTx9IHdz7NO6vqKHdw5HPYkaSnh8cPfqicqzp5b3x568+TILXxCnBN/LTOjPms35zp99+eK88n/Sh/ePPRc2luE8XP79ZZl+x/Jryren77Br3usOP7J/d2/E3RugjdyA/ojrRhzCOWHHsEu46PoPgQMNNM057li6cXp0BwdDJmM5kQWQg9pOOMNuyMLA8Zs1mM2GH2Fs5IjiFOEe4crh1uD/wlPGa8X7hq+A34/8ocExQQ3BMaK8wv3C7iLfIumiJmJJYr3iA+LrEUUkpyQ4pR6kZ6VQZEZkR2dwdBju+yNXIeyrQKXQoRioJKA0qp6koqEyq5qtpq31QL9Mw11jWPKtlr/VTu0HHXRere02PrE/Uv20Qachv2G+UZqxkPGtSamoLv3fcNI+ykLJ4Y1lh5WHNav3UptDWwY5kN2x/wsHbUdjxndNl50QXY1cG11G3avdoDwNPWs9hr1M7g70VvNd23fUp8PXyk/BbIXf7Hw3wDVQMQgUNB9dTUkKcQqXD0GGvwm9ElOyOj3SN0qDyRqOi52OGYjvjGuMrEvL3pCbGJ4Um++/duc8txWm/Q6p9mv0Bh3Sng+4ZOw8FZIZmRWen5GTmFuZVHK7Lbz5yp2CgcPzox+OoIolir5IjJ+6WrpXLnvSrOH7q4en1SoWzAVWl5/pqULVadfH1jQ3vL0heDGmsv7RwRaVp/9XeZo6WsNbuG3w3U9pet1t1tHXKd53vlrp7+b7Bg9GHCb18j/v78gacnooOgeH3I29G370Er0Qmd03Vz6DnEt+DD1WL5M+6K2rfnddLNuK/9T/gRsGoAHD8EAAb//M41AGQex4AsT0AsMG5px0dAE7qACFgCqDlLgBZaP+5PyA48SQAEuABkkANmMH5ZRicUxaDRtADpsAPiB1ShhyhaOg41Aq9hHM+aYQLIhXRiBhHMiANkPHIC8gZOEvzQpWhXsCZmA/6HPoDRgWTinmC5cGGYztwJBwF14nnxMfiBwmKhGLCOg2Z5jGtOm0tHTtdLj2CPon+K0MswwpjIhPElE1kJVaR1Ej9zCEsWJZzrMasM2yZ7FLs/RwxnByc7Vz+3DTcV3g8eJG8F/g84YxgQCBf0FaISeipcLGIp6iA6IzYefFoCQ1JSLJHqkDaE16di7KDO9rkquULFfYpUpQclTVU+FQh1Qm1NvVjGiGa2lr0WmPadToxurp6OL0B/SaDq4YtRjeM203umPaY9ZkPW4xbzlotWa/Z4uxY7UUd1BytnMjOyS4lru1ucx4kT32vyJ2V3kM+BF99vyRyq//XQLWgpODOEEKoc1hV+PJus8iKqIVorZic2PF4pYQje5aSXJPv7dNOaU+1TJtKz8rQzgRZAzmX8srzCwvMjiKP3S0qKAkoNSyXrhA8LVKpVGVTHVVbVv/oAmhUvWzT5H4tuCX5+vGbV24Ndqx08Xab3Yt5cPrhk94ffTIDO58eHro9Qholj10Yn5/knlKb1puVf0v/7tn84Y87FjqXzD51f1FYLl1Z/Wb//dzq0rrGj5SftzfPj634E+H4SwBVYAJcQQjYB46BBtANxsE3iATJQTZQBHQEaoKeIwBCAs7y0xCXEa/hPN4KmY7sQK6htFEHUL1odnQguhmDx3hjmrGM2DDsI5w0Lh+3jPfC3yPIEoppkDRRNJO0zrQP6Qzp2um16G/BWewDRnvGcThP/UU8RpIlPWaOgDPPVlZfNhq2VvZADlaO+5x7uKS5JrmLeWx5cbxdfPv5DQQwAo8Fi4R8hWWF10V6RSvEosSNJbgkPkk+lDornSLjKau5Q0KOXR4vv66woDil9Ez5ocpN1fNqpeqHNKianlqG2pI6jDrLuqN67fqNBpcNm4xajG+adJh2mz0077d4ZvnKatZ6yWbNDmfP6iDmqO5k7ezvste11O26+6jHDy/BnRbeMbtO+/T5QWQV/4iAusCZYFFKSMjl0NVw04ii3XNRWtS90R2xqDir+OKEmUT1pMPJs/uMU2pT6dP2HJiFz5P+TIus+zlmub2HHfInClKO8h67XRRYQn+itcz/JKni3um9lSpnP527XBNbp9WAOT908dyl5CteV1Wa6Vumrl+9eeCWTQf77cmuum7qPa0H2J7hR3WP9/d5Deg8FRliGn4w4vx8+kXiS+bxKxNOk+tTtdPuswxzPe8y5y0/Mi48Wzr9OWRZ5SviW99q2XrQT8Xt+CMBBtBungDiQAVeAW4gHBwEp8BNMArvf0HIAoqFqqBhBA3CCN75XUgc0h55CvkJZYGqQePRVPQrjBO8222wQzgy7ju+iKBOmKY5QatHO0aXRM9P38MQzyjJOMV0iuhHkiB9Zb7PUsGaxObJrschxcnORcON4F7nWeVd5wcCWPgNlEdYVkRb1EEsSHy/xAnJa3DevSjLuENBzlV+n0KVYp/SmoqEqrtaofqgJrOWu3aVzoKetn6ewSsjReMck0kzLfMii09WdtYXbGntwuwfOko65Ti/c7Vwq/fAe1K87nuL7jroM+1nSK4OQAb6B92hiIZkhM6FW0U0RrJEJVAnYoxiL8azJ+zb8z7JDd6nKik1qRxph9NRB5MzPmV6ZF3O/pXrlFdzePWIY8HFo4RjlOP3iqVKck8slLmW36oQPVUAn/3+Z3vPaVbX1DLVJdbPnHe80NYoein/8kqT99V7zTItR1oXb9jfvHiL0B7Y0d5J7Aq403wXdc/uftmDqYcSjyi91Y8n+zj77QcODl59+nqIMCz3zGGE+vzwaN2LO2NDL2fGl16tT0KvsVOYN5hpML0682F2fO7x29Z3le8z5yM+WH+UWsAuvFpsXcr65PFZ4vOnL23LaStGXzFfu7+lfNf8vrR6bs1jnbDe/IP8k+7nlV/uG/Hf+na0eX8wAnCaawMNXJrN+vd3m63vSv/ITf7dgs3bZaNs3C6bLXzTgP8B4nnQallXPXIAAABiZVhJZk1NACoAAAAIAAIBEgADAAAAAQABAACHaQAEAAAAAQAAACYAAAAAAAOShgAHAAAAEgAAAFCgAgAEAAAAAQAAAe2gAwAEAAAAAQAAAMsAAAAAQVNDSUkAAABTY3JlZW5zaG90BiwKHQAAAj1pVFh0WE1MOmNvbS5hZG9iZS54bXAAAAAAADx4OnhtcG1ldGEgeG1sbnM6eD0iYWRvYmU6bnM6bWV0YS8iIHg6eG1wdGs9IlhNUCBDb3JlIDYuMC4wIj4KICAgPHJkZjpSREYgeG1sbnM6cmRmPSJodHRwOi8vd3d3LnczLm9yZy8xOTk5LzAyLzIyLXJkZi1zeW50YXgtbnMjIj4KICAgICAgPHJkZjpEZXNjcmlwdGlvbiByZGY6YWJvdXQ9IiIKICAgICAgICAgICAgeG1sbnM6ZXhpZj0iaHR0cDovL25zLmFkb2JlLmNvbS9leGlmLzEuMC8iCiAgICAgICAgICAgIHhtbG5zOnRpZmY9Imh0dHA6Ly9ucy5hZG9iZS5jb20vdGlmZi8xLjAvIj4KICAgICAgICAgPGV4aWY6UGl4ZWxZRGltZW5zaW9uPjIwMzwvZXhpZjpQaXhlbFlEaW1lbnNpb24+CiAgICAgICAgIDxleGlmOlVzZXJDb21tZW50PlNjcmVlbnNob3Q8L2V4aWY6VXNlckNvbW1lbnQ+CiAgICAgICAgIDxleGlmOlBpeGVsWERpbWVuc2lvbj40OTM8L2V4aWY6UGl4ZWxYRGltZW5zaW9uPgogICAgICAgICA8dGlmZjpPcmllbnRhdGlvbj4xPC90aWZmOk9yaWVudGF0aW9uPgogICAgICA8L3JkZjpEZXNjcmlwdGlvbj4KICAgPC9yZGY6UkRGPgo8L3g6eG1wbWV0YT4KYAqeaQAAQABJREFUeAHtfQncTdX6/0PG11Bm8pIpZIrS1UV1DaWUpJJoQEVFw/VHSeg2j1fzoKJy+6WodN2UlCFDQoYkU4kks2TMkPb/+13n7G2f8+6zz3mP90w8z+fzvGt81lr7u9Z7nr3WXms9+az7xRIlRUARUAQUAUVAEUg7BLq0WS9jW2Y77SqQ7z7Hn7GerCIVTNv37d+csc+gDVcEFAFFQBE4fhD417/+5Tys2+9EwoNJdQ4qkCMmgyJKl6wn3Vt/K4UKBh7j9z0bZfbye2Xp2jcy6Cm0qYqAIqAIKAKKQGwIZLTSLlLoJNm7f5N8vfJ1KVCgqDSve7e0O2OUKu3Y+l5zKQKKgCKgCKQIgUiz62jNyR8tQzLSP/30U/n222/l8ssvz1V1G7Z9Ja9OqiJzlt8vM78bJL9uXygFThCpUr51rsrRzIqAIqAIKAKKQCYgkDSl/cUXX8hff/2Vgzdv3iyvvfaaFC9eXD744APZvXu3vPTSS7nGrljRSlKp1BkoX+SXLVNzLa8CioAioAgoAopAuiOQDw1Myu7xRo0aSZ06dXLgsW3bNpk2bZqJr1q1qjz00ENmxp2VlSUTJ06UDh065JDxiujRdrlUKFVXPl/8/2ThD097ZdE4RUARUAQUAUUgYxDgRrQcu8eT1frffvtN1qxZk6O6PXv2OHHr1q2TKVOmSJMmTaRBgwZy6qmnOml+ni7nfWkU9rwfnlOF7QeUpikCioAioAhkPAKcaSecZ82aZXnRzp07rXr16lnjx4+39u/fb2EJ3frmm2+s9u3bx9SmDs3GWXd3tqzzz3g1pvzJeFatI/HjSTFWjHUM6Bg41scA71G5atb6EN2WtN3jLVu2BL7eBIUup59+uowaNUr69Onjnckj9rSq10m9qlealLIl60uX82YY/4yld8nG7V97SGiUIqAIKAKKgCKQuQgkTWn7QdSpUyfZunWrXxbPtCKFSjvxVcs1d/wLi57s+NWjCCgCioAioAgcKwikhdKOR2GzAxb9+KzhY6Uz9DkUAUVAEVAEFAE/BJJ25MuvEZqmCCgCioAioAgoAtERUKUdHSPNoQgoAoqAIqAIpAUCqrTTohu0EYqAIqAIKAKKQHQEEqK0K1WqJLVq1Ypeex7lSFR9vOwlEvml1a5dO5JYRsffd999guN5CX2GJ554QtifSoqAIqAIKALeCIScAUOWuMOVK1e2cA2pcxybZ7D79esXtbxevXo5Mm7PU0895Ssbb33RnvG8884zZ8bZFp4bHzhwoNMOvzTm27t3r3mEQ4cOWWPHjnXkotWZzHRcXmN9/fXX5tlWrlwZcxuJRf/+/WPOH88zEbx27doltI542qUy8f8uKHaKnY6B+MaA1zltYBlfYV5y1apVsz7//HOrWbNmVvXq1a1ly5ZZBw4ciOkHuGnTppbNL774olF8mK37yh5NfV7tt+Nwe5u1fv168ww//fSTUW6xpP3xxx/WvHnzTJuHDx9ungGzbt9nsMtNpstLbHB9rIXb6KzVq1fH3D5V2nn3v5LM/ta6tN90DGTmGEi40g4fGNddd51RXK1bt45ZMbCMVatWGaUZXl60cG7rGzdunEVFi/vOnfbVrVvXtPmWW24xcVRspCFDhlh+aWwbCcu7Ro4vIKSuXbs6ZXu1HxbOLFg4s2DhzDeflyxXNRYtWmQdPnzY4sz+5ZdfjqkMrhawPM6yc6u058yZY1Yh+DL2zDPPOPVNnTrVtIHPTEwHDx7spO3YscOaPHmyp1z37t1Nfr4QLF68mOI6087DF2mvcaNxmfkDrv12/PWbrbTpkoNjwPHYEXnm/u9//zMKJTeDLTs72/xwDxs2LNftyG19s2fPNnW9/vrrTl2dO+NOVBCvVh0zZoyZkVIhjh492vJL4zPC8IlRQJSD9TJr+/btTrmRMKCypuIkUQnDwllUGbssyhw8eNC6++67LdzZzmDMsiwjHqXN+rhEzmelorXbwmto+ZnjnHPOMastbIu9ysB8keT4UrR27Vqrd+/eFlc4SLo8nrj/Sbu/1FWMdQyk/xhwK21XfyWm4Zdddpn5AXbPYl2VOj/24XFvvPFGiDIIT48Ujqc+zqY//PBDq2PHjk577rjjDkdxUNm0atXKKOJPPvnE8ktju5hOGSp5Ep8lUnvD47GxzbwYUImxDL6AhOcJD7OOzz77zMlHudx8c45HaX/00UemPn7+ILVt29apn58r7r33XuuVV14xaZxFs81sl5ccP3+4y+D+B5Iq7cT8T4aPHw0rzjoG0nsM2Eo7rJ/yvtFcGuaS7fTp050f9LBKI8ZTaXGTVKz5me9o6guvx55N79q1y5o0aZJpB2eJ7pm2VxrLIY0cOdLIcAZNshVXeD1eYeb97rvvjNyKFSuiYsCMDz74oJOPG//cStyrDndcPEp7wIABTn2s/9prrzXhJUuWGOW8ceNGM4Nn2m233WbSqLS95Lhxj2S3qXHjxiasSjvv/ydtjNVVbHUMZM4YsJW2a2ncyvMjXzVq1BAaAIFCkH/84x8YH6EE5SczZ86Ubt26hSYghNmyFCtWTHjsJ5wiyUWrL7wcd/iCCy4QfHsVKH0nGkrT+AsXLiwXXnihVKhQQQoWLGiexy+tR48eRg5L7cbFDF6grOSSSy4x4Uh/eIQKS8uCzWGCmbngW7FcfPHFgu/nkURC4uvXr++EixcvLgsWLHDC8XoiYc3yAjo2tOQzzzxTGjZsKMSTx7Ww4mAy5M9/ZHh5yeE7uMln489ylBQBRUARUARCEch3X2jYmekg+qj9/C7L2TKXTWHZy7C7XM5SSe7vyHY6TXLyyJQddruR5KLV5y4j3O/1TZt5+G1106ZNph1cpuZM0Zb1S2M+bshi3vvuu888Z7RZI02W5vZbtt0WVkBZKDvrkUceMfVF23FPWe4baNGihdnst2HDBuPn8Tm73EhY8/ncy++skDNtrnSQuFLAZXOuEpD4uYBlRpJjGje0zZgxw8hx5k+KhpndTnWP/v9VMVQMdQyk7xjwmmmjv/KuwZiZmh/d8D/2MinrshXCa6+95igJuw38cX/33XdzxEeSi6U+u2wv17bxHd4WKg37uzSfxb0pzi/t2WefNd+/KcPPA7YC96rbjitXrpzn89rpfi7rsfGknzu7/fLbaRMmTGD2ELK/OTOPXWY4Luwf97l7FoAVE1Pn3LlznfJ4TI5k97uf3JNPPunI6Ua0vPtftPtaXcVUx0DmjgFbaYf1YeY+UNiDxKSwciPDGWyk/H5pDRo0iCgXqbx44qnt+vbta2apnD3HU0ZeyuBTgsUNdfGU2ahRo7jk4qlLZfR/XseAjoFMGAO20k7oN20AccyQ3/dhv7SlS5cmFYM1a9YILoMxdUJ5m+/O0Oeerv3tPRENxDE3WbduXVxFYyNbXHIqpAgoAorAsY6A+5t2WtjTPtYBT9TzcQPb/PnzQ4qn8uamsEiU7BeKSO3QeEVAEVAEFIHYEMBMW2zFnQ8iXJZUUgQUAUVAEVAEFIE0QoDKukub9TK2ZbbTqiNncpwo9SgCioAioAgoAopAuiBA5W2TKm0bCXUVAUVAEVAEFIE0RMBeGmfTVGmnYQdpkxQBRUARUAQUARuBtJtpw9KVwNKV4OpPu43qKgKKgCKgCCgCigAQSMlM+4svvjDXeuKijRCXx4RwiYfwCs4PPvhAcMOXwNKVdpQioAgoAoqAIqAIAAH3TDtpu8dxeYbUqVMnRwds27ZNYObRxONiDoFVMDPjzsrKkokTJ0qHDh1yyGiEIqAIKAKKgCJwrCPgtXs8aee0cUWl8BKQcMI95U4UL+aAXWhp0qSJ4FYxOfXUU5009SgCioAioAgoAscjAlTe7iXypFwfad/z7Vw0HfTQnCQsXVm4KMSCpStjXIKGQ9q3b5+UdmEAaD2KgY4BHQM6BnQMpN0YgLK2rpq1PqRdSZtpw+JXxBckmvI8/fTTZdSoUdKnT5+I+TRBEVAEFAFFQBE43hBwz7STprT9QO7UqZNs3brVL4umKQKKgCKgCCgCxyUC7qXxtDinrQr7uByH+tCKgCKgCCgCMSDAmTaZlBYz7UBT9K8ioAgoAoqAIqAIhCOQdjPt8AZqWBFQBBQBRUARUARyIpAWy+M5m6UxioAioAgoAoqAIhCOQMKU9oYNG8zNZ7t27Qqv8+jCNY5OPKL0DRFTcp9QLvciRsJPLhFp0ZrZGhmIS5VoGcPS/eT80qqFlWMHK9keD9cPF4/suYris4dTIusLr0vDioAioAiEIZA/LJxnwaJFi5prSUuWLBlaJn+A5waj/gO3S2hyxNBbSFkB/iToto+YM76EuyDWOD5RR6o+fAvAM8HLwFeAYyE/ubxOuwANIo7hfFNYQ2cg/CSYF9KdDI5XDqIOhZfJhPLgyWC2ZxLYHhtl4J8TjJ8Gdza4I9gmP1yqI9MIMPtgrC0Q5l6MMOt8MSzeHXSPCb/63DLqVwQUAUUgwQiEHNxGXXkS3rFjhzVmzJicZV2P8mcG61gGt14M9b2APN+BmwXzXgi3RdCfR+3FD7gFpZ2zvbkpfwbkJ4LLg8eD+XyxyPvJJSKtJtplc1/4+eyVXG3NDsZVc8XxOWwZurmRo2ykMj9E2lfgumDmaxN0ieFT4FPB9I8BLwQzD9kPlwVInwaeC2b5tozbZVnsnxcjpDOve0z41ecuV/3eeCsuiouOgVyPAa/LVRI208YPZSi1RvAr8EAwZ1GcUbH218GXgN1UAwHO8v4bjGwLl7NyexbGGRlnXqSnwd+BOWv6BnwV2E2s83YwZ7/M8z6YxPYwP2djb4LdVBOB8WCmkV8Cu2kYApS93hVZGf7y4OfBW8CcnfL5rgY3BDP/2WAS87Fd14H95BKRhipltYtbBf0bmQAiTh8bn8gHcBeAiT8pXrlIZZZFmfXAQ8DsG9KUgGMwHAD/D2DiyZlzFphY+uGCZNMvfK6fGfCg4Yj7HrwtLC3SmIhWX1gxGlQEFAFFIFEIUK0kh5aimofB+cBvg9eC+aPKuEVgUmfwJPAn4Kbgd8D8USfZSjoQOvJ3N7z9wVeAp4MfAFNh2nQSPLeCqfD7gOeBSY+CfwX3A9cAu2kQAlzVZ3uoWL8Du6kiAsXBZVyRpwT9VAaDwfvAh8BVwZT/EvwSmDQS/Af4P2A/uUSkoUqHqDQbgNkfNt0MzyPBAPHqAf4iGLad3MpFKtPG/WoUvALMPu4B9qLzEfknmFj64UJZ9kEkOgMJF4Dv8sgQaUxEq8+jKI1SBBQBRSARCCRPaW9B8+eDC4CpFKj0PgVPBJ8H5o8xZ7BU7peCW4HfA5cHk34PODn+UmYxmMpnXTC1btC1Hc4WB4Cngp8A87v6iWDKfgb+N9hNVEp8uTgIpuzLYDdNQIBtc79IlA5moCK/FnwH+AC4FJjUH7wX/A24Org7mOQnl4i0QK2Bv2zDX+Axrshl8K8Khvmiw34Jp9zKRSqzXLBg9ldvMPuHL0zE303NELgCzL4j+eESyBH577NI4kvKxrAsfmPiaOoLq0aDioAioAgcDQLJU9pc7n4eTCVBPxUXf4w7g7PBBcG/gqkkbaUBr2ziHxBnzF7E2ep08A3glmBS0YDj/P3c8QU8zYPhb8NcO9tD8JwA/h94IZizbTdNQuA+8DxX5G9B/0twKfcdmC8oO8A28eXAfllZH4z0k0tEmt0WuleBZ7ojYvTHKxdevI3NK0iYAR4K5vjoCLapJjxcmZgMHh2M9MMlmMXTuRGxZcB8yWsLLgI+GdwY7Dcm4q0PxSopAoqAIpCXCCRPafMHshZ4a9DlU2wDU7FxBsUly0XgwWDOtjm7PR3MZVP+kJ8HDqcaiDgL3BXcDswZPImzZDfZP7p2HOshUSGQ2C438cWB9V0I/h58D9hNbBcVly3PtJ/5B8TnvNv4An47nlFDwFvAF4Prg0l2updcItICtQZemE5E4A07IkaXL1rxyHkVvz4YudeVyL4uFgxXhDsWzBegO4JxdPxwcWXL4S2JmIPgx8BPgRmuA2Z/+Y2JeOtDsUqKgCKgCOQlAslT2rej2YfBT4M5Q10JZpy9NLsOfirHhuD7wdXBz4NJU8HdwPZsiEqPSjUfmMTZU3lwuHJlmhf9hMh94H+CKcelWTd1RYBLtGvB/DFnu910MwIPgC91RXKVgAqZLyKkh8FUQFxGJ70NZjnngvlSMApM8pNLRFqgVpFe8OwCf21HxOjGK+dVPPv8NzDLZD/0BPMl7n0waTz4TzCVbL0gw/HFjOnsu7pgKv+soJ9jhGOPs2qb2V/TwOxvvzHh1w8QVVIEFAFFIFkIJE9p80eTM5uPwFS+M8GRaBwSLgRTwZFuA3Mpm4qOM+9/g4uDV4NngF8KuoXgkqyA4/wNDzPhRfD5YMpzRuem7gjMAi8DXw9+DuwmuzzbtdPugKcSmG28AvwgmMTymoJvYgB0HbggeAQDoEhyiUpjuewD9kVuKV65SPX8EwmngNkP/w/8f+AN4DPA3A9wIpgvPh8GmS9sJD/MWCafjSsh1YJ+xoVTeP/5jQm/+sLL1bAioAgoAglEgD9dec6//fabRfrjjz/ytmz7PG94m8vF+QynRJDj2WCeRw6vJ5ZwjQTI+ZUZb1osz5KsPNUTgFm8bY80JlieH9bx1qdy8f2fKW6K2zE+BrzOaXOBmR2vpAgoAoqAIqAIKAJphADNcXZps17GtuRu7QAlb3ncrlFdRUARUAQUAUVAEYgLAVXaccGmQoqAIqAIKAKKQPIRUKUdxPyJJ56QSpW4iyz59MADD0jdutzurKQIKAKKgCKgCERGgAds0oaqV68uV155pdBCGBVZMmngwIEyZcoU2bhxYzKrNXUNGTJEtm/fLitWcNt58qhlg0ekxWn3yI7d6+XVSVWkRqUO0rnlhBwNmLzoTln0Y/gW+hzZNEIRUAQUAUUgwQikzUybSvrHH3+U22+/XW666SY5fPiw3HDDDQl+/OO3+FIl6hiF7UZgz/718uPGyQ7/GTyfvu/AZnc29SsCioAioAikCIG0UNrNmjUTzjavvfZaqVq1quFXXnlF7r7bvloMR3Xfe08OHDggOEUmu3fvllatWhnIpk6dKocOHTLxOF4mgwcPDoFy165d8vLLLwtMhZo8q1atMundu3cX5v/rr79k8eLFITJ+AZYzefJk2b9/v2nPM88842THMTdhuTbt3btXLr74YnnyySdl586dpi7O5Ldu3Wrku3TpYmeVPn36mOfgy8rIkSOd+MaNG8v69euN7MGDB4W4uCnS87nzePkvbfa+7PljR0jSlh2L5INZ7RwucALuNoHiXvmLfUNMSHYNKAKKgCKgCKQAgZSf9fvmm2+sWbNmmXZ8/PHHFpSwheViCwrVxEHpmjPfEyZMsFq3bm299tprVteuXU3a+PHjrV69elnnnHOO9fnnn5t8tWvXdp6JZZCZBoVqjR492qTt2bPHWrt2rdW7d2/LPlPerl07Rw794OlnWVCeVv/+/a1p06Y5bWR+pjHelmVj8CJi6qTMHXfcYdr36aefWitXrrS+/fZbk5dyfOZBgwZZeCEwebKzs00aXlAsKHmrR48eFpS5SatXr55TB2XJIc/3b7SdtqLDeUrgmU6vcat1d2fLyi53nnF7X/iLU57d9jNO7WfS2p35Ro40O4+63mNEcVFcdAzoGMiLMeB1Thvlph5cKk0qz379+pnLWDADtWbPnm0UFNuHWapRsJHaWq1aNevee++1MAs1MlTOdl4qtCVLljhhxteqVcvka9u2rYlnvaRYlfZHH31k5PANPqQc1hVJaW/YsMHIMA8V+ZtvvmmtW7fOifviiy+Mn+1jnmHDhlmXXXaZKZ9KHhvlDGO1wRo3blxI3vDnww1jFm48y8kNxcoqUsEaeIVlXdJsrCmDyttLaTOOaeVLNXbqsjFVN/X/M9oH2gc6Bo79MeCltNNiI1rx4sVl2bJlwqXm6dOnm6VwzEJl+fLlGJe4sRTpmIEbf/gfKCxp0KCBbN68WbhUTCpRokRINszQQ8KdOnUyYShK42LGHJIeLYBVAZNlzZo1xq1YMfwe1Jwl/PknL9EO0L59+8zSesGCvMs0QPPnz7e98vvvvzvL/4ysUaOGYfqxOiBchndT+PMZE6Ben6H349rtGrdKfnwUKXhCMbnorNGmmBJZ2XJWnUEyfyUv+cY14KUaS6kS2fLb7p9ly47YPx0YYf2jCCgCioAikDAE0kJp81t1lSpVZMGCBYLZrnlY22WA356bNGmSA4QzzzxTGjZsKOeff75QAVNm0qRJUEqhn+q3bKFliCPE7+Ckpk2bCpbmheXkhjD99czO79GlSvHCbBjRwnd6N0WSsfNgydv2mpcOKvGffvrJxN15553muZwMYZ7w5zMGV9qEZWJwu0j+mwMXtNeu3N7JwG/XDar2dJR2kxp3mrQFq498r7cz//3vf5fmzZvL119/LVgNsaPVVQQUAUVAEUgCAqHaLQkVelWxadMmueiii+Txxx8XzlqpxJ9+miaZAjRjxgxzjtnemMYNXFjalnz5eAurSOXKlYXHxZ599tmAQJS/fDngpq7hw4cbubvuuiuKRGzJv/76q7BtbA/Lzg21adPGvERwF32BAgUEy+fy9ttvC2fofK5GjRqZ4vBdXC68kNZUfKgv0njsO5xbwA7K0sHywseVgnyyKWTXvi3yxud1nAIbVeth/At/yKm02QdPPfVUyCZBR1A9ioAioAgoAglFIC2UNndXY2OZUdZFihQxO6m55I1vuubh27dvL9i4JY899pjZAT5mzBgzo+Used68eUbBcVZaqFBgFolvwiGghYeZ+Nxzzwk2r5nZbLly5ULyRwuEl2eHX3jhBbOMzd3e9kUtTLPTWS5n3AyHz7w5S+fseujQoTJ37lzzuYD5r7/+esE3e+HnAsrwZSZ8Od5dPmWi0d4/NkmAA2fSDx8+6IjUrXqNWT5fuf5/TpzbU7p0aRNMxXl2dzvUrwgoAorA8YpAWmw04g5ybrJ69NFHzU5we/c0OiWkfS1atAgJM71ChQoWjorliA+X9QpjBhuXnFdZdpx797odF4vLDXWRnoM7xvGJIM/bGku73Hmwb8DCC0bK2+Fuk/pD/0cUD8VDx8CxMQa8NqKhb9Pn4R588EGzS5zKG7NHC7PopCoHvij4EY9dpRNeqWgL+2XUqFHHPQ6pwF7rTJ/fKu0L7YtkjAEvpc2PwvwBVgoiwGX5SLR06dJISRqvCCgCioAioAjkKQJQ2jlMc6bF7vE8fcqjLEwV81ECqOKKgCKgCCgCCUMgLTaiJezpclFwKq185aKZKc16RekyUjG42e9oGtKtTO42/h1NXSqrCCgCisCxhEBaKW0e26K1LdwGlnSMWa99rCrplSegQl4bY1/n4vYfTVUvZFeTRkWzjqYII/tslWpSP4Zy3O12+4+6AVqAIqAIKAIZikDaKG218pW3I4gdiztTDLn9waiMcNztdvszovHaSEVAEVAEEoAAfwtTTplk5euCCy5wLIbR0pd94QstenXo0CEHlralLz/rYImy5JWjMcGIr05rKA9UriLL650uK+s3luvLHlmurocZMNO3Nj7LpHc4KXAu2y7r+rLlZU3DM2Q9+JYKlexo8ZNrXqKkLEU9GxudKa+eUsORaXdSKfkGdbmJ7XqlWk13lPoVAUVAEVAEXAik/PhOJln5wpWqxgIZDZzQUAepbt26Fs8vhx+F6tixo0kH1uYIWyTrYImw5HUB6rwmeJzP7WdboDyt1Q2aWBedVMp6LPsUE2Y8GcrV+rJOfesfJUpar1eraUF5W/iObdIoB4VtQZFbUK4mLRa5Rac1sj6oWceUOatuAyOH5XGnzMtKlXbGIOu4rmw5E3a32+2361RXj93oGNAxcCyPAa8jX3je1Hd6plj5atmypVHCffv2NUoFN6mZMK4stebMmWPB6ImJp3Lu1q2bNWLECKPMiTHPN3tZB0uEJa9ofUrFeM/JAdOfZQsWNEr0tKws69QiRYy/TckTHSVKpW0rUco9lH3kEhuGO5Uu4ytX3lU+24XZdYjS5ovBf2vVMfVdWqpMyAtEtOfQ9NT/72ofaB/oGEjcGPBS2mlx5CtTrHzhpjOMT5HPPvvMuLBzbe4w5zWjNFgyYMAAs5GO1rtwEYu5btR9hMzLOhgteJHy0pKXKTDKn8X79poc2w4dMu5J+U/AnecBq2Pf/bHPkf4N6ZULFnLCS2G8xabVBw9Is6zisi1owcxLrmnxgMW15bBsRvreVTbDI7dtkQm16gpeHqR76bIycdfvjFZSBBQBRUAR8EAgLb5pu618nXbaaaaZubHyxe/MvOubxjRIubHyxfyxWvmC/Wtml7PPPtu4/MP7zmnw5L333hPem96zZ0/BjNrkqVmzplHmdmZMy22v47otedWpU0dsvvnmm5089Hha8pqIhHAeGyKWq8C2PwMKvGbhIo5caSjTrS6zojUKF3bSqMyXQAn7yS0NKulqwTJruMpmQXP27JZtMN7St1xFORffvkdu3+qUH81Di2OwXy642jZaVk1XBBQBReCYQCAtlHamWPnibJrGOYYMGWKMeIwdG9CQ48aNE86oD2FWypcOmtLkbDsrK0veffdd34GSCEtevhX6JHI2fACGS/pAgZL6V6ps3Fl7AnbKGeh8YmmhAuaZ7eInnCDTdu8UP7l12KzH2Xqf8hXNbLp3uQqmTPef13dsk9uQznxzdh+py53Hy68Wx7xQ0ThFQBE4lhFIC6WdSVa+uATOZfI1a9ZI586d5f3335dp06aZMbJ27VrBhjThjHzhwoVGieM7tzN+qPDdZIcTYcnLXY+XP7QlgY0NzHfjL2ukLWa83D0+qMLJ8vimDbLStSR+AKsF87Hj+5WqNeQdKNuNmCVHk3tg8wbpiQtVlmMHeTXXUrsRxJ//C86u30J5uSG1OJYbtDSvIqAIHCsIOJuO8EAp82ealS8cU8tzrNLFkhfHQfXCReJ6Pj+5yoULe5aJI2Fmc1qk9EjjUi2Ope7/NVKfaLz2iY6BvBsDXhvRgG/eVXC0ZamVr/Tpi6Pty1jlh1etbo6Rjapey1Oh+5XDHfnhx+z88mva8Te+tM+1zzN5DHgpbbXyhR51k1r5cqOReP+QStnyy58H5a2tWxJfmdagCCgCikAGIQClrVa+ovWX+4hWtLyafvQIPLRx/dEXoiUoAoqAInCcIJAWG9HSAevj0cpXpTyw2JUOfadtUAQUAUXgeEEgrZS2WvnKu2Hntorl9rOGy3FcC1eLyhLcPY5bzQTXiDoVu/O6/U4G9SgCioAioAikDIG0Udpq5StvxwA7NpKVr39XPkX+i5vHyi2eL2/gmNXLVao7lfvJOZnUowgoAoqAIpASBNJCaWeSlS8Y95BFixbJYVxCwstUXn75Zafj4rUAlkwrX81wrSgvRRmxdZNp93ObN0qB/PmlvWu27TyQehQBRUARUATSDoFcH7XBE+SpTCZZ+aKFEBoEwW1c1pQpU4zBEBuPeC2AJdPKV+2iRc2ZaLpstx3uVb6iCbutabn99jOqm7djX/FUPHUM6BiINAa8jnwhb+oByxQrX8SKBIMhzksLzwrj/msrXgtgqbDyBTva1ns1a1vnwprX+Fp1jRIfULGy80zpMCa0Dan/v9Q+0D7QMZDaMeCltNXKF0alfQ0pvDHRvHnznHxcLreXxRmZWwtgjRo1MmUl08rX9T+vlv4VK8t71WrJZNwrzju/tx4OGAtxHkw9ioAioAgoAmmHQFp8084UK19279WvX9/2Cs2KLliwwNw3zsjcWgBLhZWv+Xv3yNWrV0qlJQtk4C9rhZa8foBhj1hILWvFgpLmUQQUAUUgcQikfFn0hx9+sEaPHm1htmnt37/fghK3uOxMwmNbn3zyiQnzOzLDXbp0sdq2bWs1bdrU5OnevbuF42LWihUrTBgmOp1nYjnuMOXJrGPGjBlGbuXKlUYO5kAdOTtfuMuM/AYNc57WI488YuRq1QpcwYnNaaYNsK9twQKYSWvVqpUpk9/BSVWrVrX47ZvEu8ZZPja0WWwDZt0mzPZeeOGFTlsiPUN422INn128hCm7QsGCZnmcy+WxysLsqGn7hAkTYpaJtWzNl9qlOMVf8dcxkF5jwGt5HH2U+kb27t3bKK7KlQPfVW+88Uaj0Dp27OgohuXLlxtlwT9UYrCwZdLmzp3rxGPWavy33XabI8e87rD9vLAs5sjxmzopVqVNQxU2zZkzx6mrX79+zssG02Gy00lbtWqVtXPnThOePXu22cxmt6Vr167mJcIuk8q/R48ejmykZ7Dlc+u+iXu+YcXL8NL6ja26WVlOXdHK4osOacSIETHLRCtT01P/P6h9oH2gYyD9xkDaKm0Olkyx8kWF1bdvXzNDz87O9lRc8VoAS6aVr2xY3KpYqJBn+/3+edWyVvr9Y/v1l6Zpf+kYyNwxkNZKmwMrE6x82Ur7eP1H4KxfLWtl7o/A8Tpu9bl1zGbiGPBS2mmxexxgGho6dKiQU0Xr16+Xhg0bRqyexkQuvfRSmT9/fsQ8x3pCflzEoqQIKAKKgCKQGgTSSmmnBoLQWqNZ+br88stDBTSkCCgCioAioAgkCQGdNgWBTpaVL2x2E2w8S1L3ajWKgCKgCCgCxxICaaW0jwcrX4MGDZJHH300xxgaPny4vPvuuzni/SLcVrjcfrdM/aJZ7qDxu/O6/TkyaoQioAgoAopAWiGQNkr7eLHy1bNnT2nfvn2OQXDWWWfJ3/72txzxfhHsvEiWvCj3To3aMr1OfVlZv3FIMdHkQjJrQBFQBBQBRSBtEEgLpZ1JVr5woYvwFjPsojaMM9dOZ+K8t+CiFye8d+9eufjii02Yy+J79uwRfjN/9dVXnTy9evUSXCgjLVq0EFzKYvwM161b18kTr+f8kicaUd54hgtVohfzGLK8BT47elbNoQgoAoqAIpAaBHJ9VhfNzFOZTLLyhXvHrc2bN1vnnXeeBYVsPffccw4WPA5F4yE2Pjwedu211zphzLCt77//3lq7dq0Tx7y8NY3xmzZtMn77FjX5N3Be5sFTAvi7rXC5/Xb9E049zVygsrpBk5D63HndfihrSz4ErwDPAd8GzuO+1vIUUx0DOgZ0DMQ2BryOfAG72IQTmS+TrHzx1rWtW7daWMrOodCiKW1iCOMkOZQ242fOnGmx7BCcT0HfNPfghv59dnnpMs6NZ/bNZ3QfqXJKaPmR+r4cyr8LPBfMl4aHwZHyarxio2NAx4COgYSMAS+lnRbL4zS6sWzZMrnmmmtk+vTp8t577wmuMoWeCBDT3cvQdjzdJUuWmOVqXFUqmKGapBIlQpeCcU+2W0Q6depkwl98wW1YubPydfvttwvPKuP6VKGhE36LTxjtRcmbPfg3/xpvKVvBM0OvMuU943NEbkXMN+AfwBwhtcBKioAioAgoAilHIC2UdiZZ+Zo4caKUKVNGmjRpIjDyIUOGDHE6EXeGS6lSpUyY3+lzQ1hJNy8DITL3IzTRg8eG5MoRmLR7pxO3ABa99qBdpOm7jsQ7GdyebAT4DrIA/AKYhr+uAXcBB0mtfNlIqKsIKAKKQGoQSMi0Ho8Sc7mZZOVr2LBhln3n+MiRI42hE/tZ+a2az0LDJzQKEv5Nm/kiLY/TYhitfcV7b7ndBtttkFXMKgsrXl/WqW/cvwcte9npnu6L6LMo37LVylfs49oT41z8X6i8Yq1j4PgeA17L4xgTqQclk6x8bdiwwShjfr+muU2cr3ZeTgYMGGDRQhfJtjjWrVs3k7569WoT7/5DE582/lT0lGG5JNtMp50er3tWseJOHfGW4ZZTK1+p/39x94f6tT90DBy7YyBtlTYHXaZY+WJbaS+btrwj/bPUrl07YlokmUyJVytfx+4PRKaMQW2njsHjZQyktdJmJ2SCla/jZbBEek6uBKiVL/3RjDQ+NF7Hho6BvBsDXko7XxBgOEpEoEGDBhGBiGZMJKKgJigCioAioAgoArlEAEpburRZL2NbcpdwgNTKl41E0FXFHAaIBhUBRUARUATSBoG0OPKVKzRq5Cp37JlviD1r1JzloubwzuAnl4g071YciW0NL3GpciQqJp+fnF9atQilV4oQz2g/XHzE5MiLq1+unGkn54zSGEVAEVAEkoVA/mRV5NTDH+C5wdB/4LrOADt5vDxvIXIF+JOgm9PmhpdU7HF3IWuoXY3YZe2c9eHhGeeZ4GXgK8CxkJ9cXqfh3lKDI7F0801hDZ2B8JPgDmAqqnjlIOpQeJlM4H0vk8FsyySwPTbKwD8nGD8NLq947wi2yQ+X6sg0Asw+CD/TznPnrOOLYPrVcG1aCI8bE7bHJvblPPBU8HfgoWAlRUARUARSgEBydzpfj4/0M4Mf6nlFZr0YPtq/gDzfgZsF814It0XQn1dH1njfduOjLHMG5CeCy4PHg/l8sbTPTy4RaTXRLpv7ws9nr+Rqa3Ywrporjs9hy9DNjRxlI5XJu86/AtcFM1+boEsMnwKfCqZ/DHghmHnIfrgsQPo0MK9hZfm2DF2Oo8eDcU/DdfcRy78HbD+nG5NvEP8amGX0AhOzk4Nhd/nqD8Vb8VA8dAzEPQa8NqIlb6bdGj93X4EHgjmL4myHtb8OvgTsphoIcJb332BkW7iclduzMM6AbONaT8PPmQ9nSLx68yqwm1jn7WDOfpnnfTCJ7WF+zsbeBLupJgLjwUwjvwR20zAEKHu9K7Iy/OXBz4O3gDk75fNdDW4IZv6zwSTmY7uuA/vJJSINVcpqF7cK+jcyAUScPjY+kQ/gLgATf1K8cpHKLIsy64GHgNk3pCkBx2A4AP4fwMSTM+csMLH0wwXJpl/4XD8z4KJz4S8IZh+RngKzj65gIEhb4drPaWPCpOJgzvxJnG2TagUc/asIKAKKQLIQ4E9WcmgpqnkYnA/8NngtmD+qjFsEJnUGTwJ/Am4KfgfMH3XS7ICT4+9uxPQH84d3OvgBsPu740kI3wqmwu8DngcmPQr+FdwPXAPspkEIlASzPdeBvwO7qSIC/BEv44o8Jej/Hu5g8D7wIXBVMOW/BL8EJo0E/wH+D9hPLhFpqNIhKs0GYPaHTTfD80gwQLx6gLmU7KbcykUq08b9ahS+Asw+7gH2ovMR+SeYWPrhQln2gRdtD0aeGHQ5Nkh8CbBpADxsC8cLlbxNk+AhHuzbV8GbwTPASoqAIqAIJBGB/Emrawtqmg8uAKZSoNL7FDwRfB6YP8bDwEvBl4Jbgd8Dc1ZK+j3g5PhLmcVgKp91wdRwU9ScLfLHeCr4CTC/q/OHm7Kfgf8NdhOVEl8uDoIp+zLYTbQ/wra5XyRKBzNQkV8LvgN8AFwKTOoP3gv+Blwd3B1M8pNLRFqg1sBftuEv8BhX5DL4VwXDVFzsl3DKrVykMssFC2Z/9QazfwaBib+bmiFwBZh9R/LDJZDD+y+VOfvgQXBbMO2Hk2zlTWXMl7R/gfmCYKfDa15csuB2BVPJTwArKQKKgCKQZASSp7S53P08mEqCfiou/hh3BmeDC4J/BVNJ2koDXtnEPyD7hzUQOvKXs9Xp4BvALcGkogHH+fu54wt4mgfD34a5draH4DkB/D8wNyfxh9xNnHXdB57nivwt6OdsmnLfgfmCsgNsE18O7JeV9cFIP7lEpNltoXsVeKY7IkZ/vHLhxdvYvIKEGeChYI6PjmCbasLDlYnJ4NHBSD9cglkiOncgxQI/B6YC3wfeAiaxHXyxfBd8L5gvB/XBpKfAr4MbgnuAe4Fbg5UUAUVAEUgiAvmTVlcR1FQLvDXosuJtYCo2zqAuAC8CDwZzts3Z7engFWD+kJ8HDqcaiDgLzNlPOzBn8CTOkt1k/8jbcayHRIVAYrvcxBcH1nch+HvwPWA3sV1UXLY8037mHxCf827jC/jteEYNAVNBXAy2lYGd7iWXiDRUbYgvTCeC3wgEY/4br5xXBfaLC5WnTezrYsFARbhjwXwBorK1yQ8XO08kl6sjV4DrgflpJAvsfklE0NCuoFsNbpug/+Og+zXcP8H2S2IwWh1FQBFQBBKNQPKU9u14lMPgp8HzwCvBjLOXZtfBT+XImcz94Org58GkqeBu4OYMgKj0qFTzMQAqAy4PDleuTPOinxDJGdY/wZTj0qybuiLAJdq1YCp4tttNNyPwAPhSVyRXCbaA+SJCehhMBcRldNLbYJZzLpgvBaPAJD+5RKQFag3MFKmYqIByQ72QOR45rzrY53yhYpnsh55gvsS9DyaNB1M5PgamkiWT/HBhOvuuLpjKPyvo5xghcdzQfzL4VTBfGKaC+QLGfidxDN4HZv/NB08J+m+FS+JYZDsnMKCkCCgCikDyEOBPT3KIP5QlwR+BbwRPA0eicUgg23QbPP8HthUd4/uDV4NngF8Ck5YHHLP8GfQax3IHgv4X4Q4Enw+msnVTdwTsH+2D8D/nToTfLs927WTOBv8D5uoAiS8fJJbXFNyZAdB14IXgEWC+AESSQ1JC0lhuczBfJHJL8cpFqocvTiPB7MdDYPbzBvAZYHs/gP3igyjT7xPh+mHGMq9k5iBxzHE8DQXfAm4CJu0B96AHxPHJPieT+LJAvz02OAZuArNvmfYpeDFYSRFQBBSBJCNgob7MYfs8b3iby8X5DKdEkOPZYJ7XDa8nlnCNBMj5lRlvWizPkqw81ROAWaS2V0NdlSPUxz73w7NqBLlIdWl8fP9DipvipmPA8jqnnbyZdl69idiz2PDytoZHxBj+OUI+zrDsWVaELBGjf4qY4p/gJ5eINP/WJDd1TZzV+eESqci1kRIQz9UbP+KSvpIioAgoAilCIH+K6tVqFQFFQBFQBBQBRSCXCKjSziVgml0RUAQUAUVAEUgVAqq0g8g/8cQTUqlSpZT0wwMPPCB163K7c3pQVpEKQlZSBBQBRUARSC8E0uqbdvXq1eXKK6+UokWLChVZMmngwIEyZcoU2bhxYzKrNXUNGTJEtm/fLitWRPpgn5gmtWzwiLQ47R7ZsXu9vDqpipQuWU+6t/5WChUMDIvf92yU2cvvlaVr30hMA7RURUARUAQUgVwhkDYzbSrpH3/8UW6//Xa56aab5PDhw3LDDTfk6mE0c+wIlCpRxyhst0SRQifJ3v2bZMbSf8lXKx6Xk4pXknZnjHJnUb8ioAgoAopAChFIC6XdrFkz4Wzz2muvlapVqxp+5ZVX5O6773agee+99+TAgQNiWZbs3r1bWrVqZdKmTp0qhw4dMvF//PGHDB482JGhZ9euXfLyyy/Ljh07TJ5Vq1aZ9O7duwvz//XXX7J4cewHblnO5MmTZf/+/aY9zzzzjFPfb7/9JizXpr1798rFF18sTz75pOzcudPUxZn81q1bjXyXLl3srNKnTx/zHHxZGTmSB5cD1LhxY1m/fr2RPXjwoBAXN0V6PnceL/+lzd6XPX/sCEnasO0rM+Oes/x+mfndIPl1+0IpcIJIlfKtQ/JpQBFQBBQBRSB1CKT8POA333xjzZo1y7Tj448/tqCELSwXW1CoJg5KF7rasiZMmGC1bt3aeu2116yuXbuatPHjx1u9evWyzjnnHOvzzz83+WrXru08E8sgMw0K1Ro9erRJ27Nnj7V27Vqrd+/eFpStkWvXrp0jh+7w9LMsKE+rf//+1rRp05w2Mj/TGG/LslC8iJg6KXPHHXeYej799FNr5cqV1rfffmvyUo7PPGjQIAsvBCZPdna2ScMLigUlb/Xo0cOCMjdp9erVc+qgLDnk+f6NttNOdDhPCTzT6TVute7ubFnZ5c4zbu8Lf3HKs9terGgla+AVlmE7Tl3vMaG4KC46BnQMJGIMeJ3TRj2pB5tKk8qzX79+Fma/Fmag1uzZs42CYvswSzUKNlJbq1WrZt17770WZqFGhsrZzkuFtmTJEifM+Fq1apl8bdu2NfGslxSr0v7oo4+MHL7Bh5TDuiIp7Q0bNhgZ5qEif/PNN61169Y5cV988YXxs33MM2zYMOuyyy4z5VPJY6OcYaw2WOPGjQvJG/58MF1p4caznNxQLGwwM4r4kmZjTRlU3l5Ku0fb5Uahn3FqP6cuG1N1U/8/o32gfaBj4NgfA15KOy02ohUvXlyWLVsmXGqePn26cCkcs1BZvnw5xiUMYyEdM3DjD/8DhSUNGjSQzZs3m6VwppcoUSIkG2boIeFOnTqZMBSlcTFjDkmPFsCqgMmyZs0a41asWDGaiPz5J+++DNC+ffvM0nrBggXtKJk/f77j//33353lf0bWqFHDMP1YHRAuw7sp/PnMfdqb3TmC/v0ijWvcKvnxUaTgCcXkorNGm4QSWdlyVp1BMn8lL/kW6XLel1KhVF2Z98NzsvAHXhavpAgoAoqAIpAOCKSF0ua36ipVqsiCBQsEs12Di+0ywG/PTZrYF0Yfge3MM8+Uhg0byvnnny9UwJSZNGkSlFLop/otW0KvNuN3cFLTpk0FS/PCcnJDmP56Zuf36FKlAhdm8zu9myLJ2Hmw5G17zUsHlfhPPwWu+7rzzjvNczkZwjzhz2fuPG8TlonB7SL5by5kEmpXbu9k4HfrBlV7GqXdodk4qVb+XFm4+jWZtvhOJ4/t+fvf/y7NmzeXr7/+WrAaYkerqwgoAoqAIpAEBEK1WxIq9Kpi06ZNctFFF8njjz8unLVSiT/99JEZ3owZM8w5ZntjGjdwYWlb8uXLZ4qrXLmy8LjYs88+61V8jji+HHBT1/Dhw43cXXfdlSNPPBG//vqrsG1sD8vODbVp08a8RHAXfYECBQTL5/L222+bGTqfq1GjRqY4fBeXCy+80L/ovkjmse9wbiEya+lgeeHjSkE+2ZSza98WeePzOnJa1eukXtWApY2yJetjxj3DcKUyZzv1sQ+eeuqpkE2CTqJ6FAFFQBFQBBKKQFoobe6uxsYyo6yLFClidlJzyRvfdM3Dt2/fXrBxSx577DGzA3zMmDFmRstZ8rx584yC46y0UKHALBLfhENACw8z8bnnnhNsXjOz2XLlyoXkjxYIL88Ov/DCC2YZm7u97YtamGans1zOuBkOn3lzls7Z9dChQ2Xu3LnmcwHzX3/99YJv9uZzAWX4MhO+HO8unzLRaO8fmyTAgTPphw8fNCJFCpV2RKuWa44Z9zmGixcNKHcmli4dyJOK8+xO49SjCCgCisBxjEBabDTiDnJusnr00UfNTnB79zT6JaR9LVq0CAkzvUKFChaOiuWID5f1CmMGG5ecV1l2nHv3uh0Xi8sNdZGegzvG8Ykgz9saS7vceXDEzMILRsrb4W6T+kP/RxQPxUPHwLExBrw2oqFv0+fhHnzwQbNLnMobs0cLs+ikKge+KPgRj12lE16paAv7ZdSoUcc9DqnAXutMn98q7Qvti2SMAS+lzY/C/AFWCiLAZflItHTp0khJGq8IKAKKgCKgCOQpAlDa0qXNehnbMtspNy12jzutSQOPKuY06ARtgiKgCCgCioAnAmmxEc2zZUmOTKWVryQ/atzVXVG6jFQMbvaLuxAIdiuTu41/R1OXyioCioAicCwhkFZKm8e2aG0Lt4ElHWPWax+rSnrlCaiQ18bY17m4/UdT1QvZ1aRR0ayjKcLIPlulmtSPoRx3u93+o26AFqAIKAKKQIYikDZKW6185e0IYsfizhRDbn8wKiMcd7vd/oxovDZSEVAEFIEEIMDfwpRTJln5uuCCCxyLYbT0ZV/4QoteHTp0yIGlbenLzzpYoix55WhMMOKr0xrKA5WryPJ6p8vK+o3l+rJHlqvrYQbM9K2NzzLpHU46cnab4teXLS9rGp4h68G3VKjkVOEn17xESVmKejY2OlNePaWGI9PupFLyDepyE9v1SrWa7ij1KwKKgCKgCLgQSPnxnUyy8kWDJrRARgMnNNRBqlu3rsXzy+FHoTp27GjSgbU5whbJOlgiLHldgDqvCR7nc/vZFihPa3WDJtZFJ5WyHss+xYQZT4Zytb6sU9/6R4mS1uvValpQ3ha+Y5s0ykFhW1DkFpSrSYtFbtFpjawPatYxZc6q28DIYXncKfOyUqWdMcg6ritbzoTd7Xb77TrV1WM3OgZ0DBzLY8DryBeeN/WdnilWvlq2bGmUcN++fY1SwU1qJowrS605c+ZYMHpi4qmcu3XrZo0YMcIoc2LM881e1sESYckrWp9SMd5zcsD0Z9mCBY0SPS0ryzq1SBHjb1PyREeJUmnbSpRyD2UfucSG4U6ly/jKlXeVz3Zhdh2itPli8N9adUx9l5YqE/ICEe05ND31/7vaB9oHOgYSNwa8lHZaHPnKFCtfuOkM41Pks88+My7sXJs7zHnNKA2WDBgwwGyko/UuXMRirht1HyHzsg5GC16kvLTkZQqM8mfxvr0mx7ZDh4x7Uv4TcOd5wOrYd3/sc6R/Q3rlgoWc8FIYb7Fp9cED0iyruGwLWjDzkmtaPGBxbTksm5G+d5XN8MhtW2RCrbqClwfpXrqsTNz1O6OVFAFFQBFQBDwQSItv2m4rX6eddpppZm6sfPE7M+/6pjENUm6sfDF/rFa+YP+a2eXss48Y0OB95zR4QnOivDe9Z8+eghm1yVOzZk2jzI0Q/mBabnsd123Jq06dOmLzzTff7OShx9OS10QkhPPYELFcBbb9GVDgNQsXceRKQ5ludZkVrVG4sJNGZb4ESthPbmlQSVcLllnDVTYLmrNnt2yD8Za+5SrKufj2PXL7Vqf8aB5aHIP9csHVttGyaroioAgoAscEAmmhtDPFyhdn0zTOMWTIEGPEY+zYgIYcN26ccEZ9CLNSvnTQlCZn21lZWfLuu+/6DpREWPLyrdAnkbPhAzBc0gcKlNS/UmXjztqzy7j80/nE0kIFzDPbxU84Qabt3il+cuuwWY+z9T7lK5rZdO9yFZyybM/rO7bJbUhnvjm7j9Rlp0dy1eJYJGQ0XhFQBI5VBNJCaWeSlS8ugXOZfM2aNdK5c2d5//33Zdq0aWZ8rF27VrAhTTgjX7hwoVHi+M7tjB0qfDfZ4URY8nLX4+UPbUlgYwPz3fjLGmmLGS93jw+qcLI8vmmDrHQtiR/AasF87Ph+pWoNeQfKdiNmydHkHti8QXriQpXl2EFezbXUbgTx5/+Cs+u3UF5uSC2O5QYtzasIKALHCgLOpiM8UMr8mWblC8fU8hyrdLHkxXFQvXCRuJ7PT65y4cKeZeJImNmcFik90rhUi2Op+3+N1Ccar32iYyDvxoDXRjTgm3cVHG1ZauUrffriaPsyVvnhVaubY2SjqtfyVOh+5XBHfvgxO7/8mnb8jS/tc+3zTB4DXkpbrXyhR92kVr7caCTeP6RStvzy50F5a+uWxFemNSgCioAikEEIQGmrla9o/eU+ohUtr6YfPQIPbVx/9IVoCYqAIqAIHCcIpMVGtHTAWq18pUMvaBsUAUVAEVAE/BBIK6WtVr78uip3aW6rWG6/u5S2J55kdok/VaWaE+3O6/Y7GdSjCCgCioAikDIE0kZpq5WvvB0D7NhoVr5ehKnNP8OOocUil7ct1dIUAUVAEVAEYkUgLZR2Jln5gnEPWbRokRzGJSS8TOXll192sI7XAliyrXyxwQ9nV5WZe3cLryJVUgQUAUVAEcgcBHJ91AaPlqcymWTlixZCaBAEt3FZU6ZMMQZDbDzitQCWbCtfDbKKWTCtadGYB61uYXnc6U+3NS23335GdfN27CueiqeOAR0DkcaA15Ev5E09YJli5YtYkWAwxFFyPCuM+6+teC2ApcLKF+xlW3dWPNk8Q7jSTofxoG1I/f+k9oH2gY6BxI6Bpnc9bkVjL6WtVr4wMu1rSOGNiebNm+fk43K5vSzOyNxaAGvUqJEpK1lWvq4pW16qG0Mfe+WckidKCVj3OgVh2LfOYYHLeUj1KAKKgCKgCKQFAmnxTTtTrHzZPVa/fnIXE6EAAAydSURBVH3bKzQrumDBAnPfOCNzawEs2Va+iufPJ/uw+ez1KjXkTdwffjKslLWE+cyBFU92nsnPo5a1/NDRNEVAEVAEEotAWijtTLHyZXfF+eefb8x5PvLII8YMKK7SNCY4aQAktxbAkm3la8SWzVJz6SKHV+7/Q/5vx3bpseZH+/F8XbWs5QuPJioCioAikFAE0kJpZ5KVL/YGPmsLNs/JPffcI19//bX8+GNA4cVrASwVVr7sUXXYw8a3neblqmUtL1Q0ThFQBBSB5CCQNnePUwk2bNhQhg8fLp988okxfbl+fc4rLlu0aCGzZ88OQadChQpSuHBhZ4k6JDFKgN+UlyxZEiXXkWQq7Ntuu820kUe+vNrII2xz5849IhSjD1a+zHPwSFm6Ek2PFitWTE6ALW0lRUARUAQUgfgQwCa0qILzi92d4+7xtJhps+VNmzYVXiXatWtXs9RMm9TuDV/204UrbMZv3rw5LoVNWbfCzs7ONrNoKmYv7tGjB0UM0Z62l8JmYjwKm3K0vZ3OCptt5Df8t956i14lRUARUAQUgSQjkBa7x+1nHjp0qJBTRVTCnO1HIhoTufTSS2X+/PmRshzz8fnzp8173jGPtT6gIqAIKALhCKSV0g5vXCrC0ax8XX755aloltapCCgCioAioAiITpuCgyBZVr7atWtnPgFk4tgbNGiQcIc8+dZbb83ER9A2KwKKgCKQ0QikldI+Hqx8UfE9+uijOQYNN+C9++67OeL9ItxWuNx+twwvTQknd163PzxfePixxx4zR9wYX6RIkfBkDSsCioAioAgkGIG0UdrHi5Wvnj17Svv27XN061lnnSV/+9vfcsT7RbDz7D3cbr8t806N2jK9Tn1ZWb+xHWVcd163PySTBhQBRUARUATSDgH+ZqecMsnKF3e58xYze5nYvZsdd6hL9+7dHTz37t0rF198sQlzWXzPnj3Cb+avvvqqk6dXr16yf/9+4VG2atWqGT/DdevWdfLE6zkf15SSShcsKGfj1rOo9BhycGP42VFzagZFQBFQBBSBFCCQFkr7xRdflK+++krGjBkjH3/8sTF5efXVV8upp55qIKH5y6uuusrc692mTRuzjFyxYkWTtnPnTunTp4+ce+65MmvWLHn44Yeldu3aDpQ8onTzzTeby1B4ZIuXoZBYJ4+K3XLLLVK1alUnfzTPSy+9ZM4pt2rVSjp06GCuMLVlTjrpJClbtqwdlKysLClVqpQJ805yPsPPP/8sPFpm02uvvSYXXXSRLF++XLZs2WL8DK9YsULk38i1zIOnBKSpY68NeMXtD0bJnL17jHfXn3/K13t229EheUPkPkIW6vY3wXPAt4GVFAFFQBFQBNIGgbTYPU5jGfzW269fP6FSvvbaa+WOO+6Q5s2bG6C6detmlB2PW5GmTp1qXP7p1KmTmaFec801snr1amnbtq3wfuxVq1Y5eTi75dWjJJ4xrlWrllG8sLBlzoTzshB+U46FqJR57AlmOOXLL7+UiRMnxiJm8vDSmIEDBwq/3buJBks4Sy9atGio8ZLnkOsDd86gP6h/J7uS3P7LS5eREbhX3KaSBQrI1sZnyWvbt8jgX34Wd163X/g+w83x5cA9wdeB+4DHg+8FKykCioAioAikFIG0mGlzNsyLRah4p0+fLu+9957ceOONDjBMdy9DOwnw8HIULlfzljLOfkklSoQuBU+YMMHE23+o6ElffMFtWLmz8nX77bcbpc0LVGjohN/iE0Z7UfJmD/7Nv8ZbylbwzNCrTHnP+ByRWxHzDfgHMEdILbCSIqAIKAKKQMoRSAulnUlWvjizLlOmjDRp0kRWrlxpDITYvXj48GFnOZzf6XNDvIEtx8Ul96METuTDeax/yZN273QyLMAS+R60izR915F4J4Pbw1V7voMsAL8A3g++BtwFrKQIKAKKgCKQcgTSQmlnkpWvYcOGmW/SixcvNjejUVHb9Ouvv0qXLl2kcuXKMS+327L8Hk+5EGXfF6l1PbiFLeXtDt/4q7RatUxO+36xFMVS/lkrvpNLf1whnX9a5S1gx94DD78ivAGuB74JTAWupAgoAoqAIpAWCKSF0s4kK1/cuPbLL7+Y3ePXXXedPP/8805HvvDCC8Lv87wOtVKlSiaeu8xJ/N7O2fQ//vEPOeWUU4x/9+4jm8O4MY7lzpkzx6TRkMnR0NJ9e2UbDJoMWP+zcee4NqJFLJcvCX8Hc5atpAgoAoqAIpB2CORDi6x0aFWmWPkiVjyaxQ1pbLMXcfe6eyOcV55MjOMqw/33c81ezKbBZ555JhMfQ9usCCgCikDKEYjXylfaKG0i+OCDDwpnr5ylFsTZYirF3F44cjQ9waNYnO1GIl6M8uabb0ZK1nhFQBFQBBQBRSAmBI4JpR3TkyY4U4MGDSLWEM2YSERBTVAEFAFFQBFQBFwIxKu00+Kctus5Uu7NFMXM7+ORKF8+LqAoKQKKgCKgCBxrCCRkIxqXt3mBSbIoUfX53ZTml1avHrdeJ5aotCNxYmvW0hUBRUARUARShUCeKm0eWdq1a5fw6BM3Yv3+++9mw1K0h+P92/Zd3m73qaee8hWNtz7fQpF43nnnmRvP1q5dKzzSxVvMbPJL+9e//iXcEc7ZOuWGDBlii6mrCCgCioAioAgcNQJ5qrS5eYx3e/Ma0Zo1axrl7WWGMrzVvH+bG85s5v3epFdeeSU8a0g43vpCCvEIfPjhh7Jt2zbzDFTcNElpk1/a4MGDzf3nFSpUMDe72TutbVl1FQFFQBFQBBSBo0EgT5U2FdwFF1wgvOJzzZo1xm50oUKFpHXr1lHbyJ3iNvOecM7Wf/zxR1+5o6mPBY8dO1b27dtndq3bFdG6Fo18PPTQQ+YZypcvL/xGfO+99xrLW5HSunbtKgVwx3f//v1l69at0rdvXyM3YMAAu2hPl/eR86KWyy/npd9KioAioAgoAopAZATyVGmHV0OrVlwmdhv4CM8THuaxK34Pd5uvDM8TKZzb+k4++WQpXLiw2BbDWC53j/Nb8cyZM+Wdd94xy+SHcEkJz177pW3YsMHIlStXzjSPs22WwxUHP+IqA+9WHzdunNBiGS9ZiYUifc9mvJIioAgoAorAsYlAwpR2x44djS1p99JyLBDSAAcVD89s54biqe8///mPfPTRR/K///3Pqcq+yYwvD3wJIP8J05a8TMUvjRa/eIf666+/LjfccINznpv3lPvR+PHjzUsKLX+xLTynzvrCjZz4laFpioAioAgoAscHAglR2k2bNpX333/fmK4cOnRorpC88sorZd68ebmSibe+ESNGyBVXXBGiIDdu3Gjq5tL55MmTzbfpE044wXzj9kujEO11cyMdVwm47H7w4EHhDDwWWrdunUyZMsUsyXM5Ppm772Npn+ZRBBQBRUARSD0Cea60efc2Z520gOX1LZs3ijGd34DDibPlrKws4V3k4RRJLlp94eW4w/x2fs8998iZZ57pRHPnN2f6/Bbfvn174TI3v1XzefzSWAAVfZ06dUx+Pgs3yi1cuNAp28vD42EffPCB7N27V0aOHGlm65dccolEOzamy+NeaGqcIqAIKALHNgJ5fo0pj3lxpsiNVfv307ajhNjC3rFjh7F3PWrUKOndu3cIupxhcyNYyZIlQ+IZiCQXrb4cBbki+N2aO93D28KNZJwl80jZf//7X6O8qYBJfml8EZkxY4YUK1ZMJk2aZBQ+/X7E/DQO8vbbbxub4H553WlcQo9EfMlQUgQUAUVAEUhfBNLiRrR27doZhUWYqLRs+uc//xmywcqeJdrptksb1dyQFYnC5WKtL1J5XMoOL5N5r7nmGrNkzg1oJPfRLb80HvkaPXq0keH3bc6YoxGX5/kikFtiu5UUAUVAEVAEji8E8nymfSzBd8YZZ0Rc3o6Udvrpp5sVBi6nJ5LsFwqvOuxVAa80jVMEFAFFQBFIPQJpMdNOPQx52wK/79GR0r799tu8bUSE0nSmHQEYjVYEFAFF4BhGIM83oh3DWOmjKQKKgCKgCCgCKUVAdyylFP74K+fudiVFQBFQBBSB4wuBAgeGHV8PrE+rCCgCoQhENOTqkeARFVKYZ3pYZFgwRN4OeObxjLQljrgxZjsioD5FICUI3B1XrfmunLZatyHHBZ0KKQKZjkCYegsLhj6dRyKiQmNDQ458jugcEYGsIdGBQEiUU2AEj5PZ8UTIqNGKQOYiwNGtSjtz+09brggoAoqAInAcIaAb0Y6jztZHVQQUAUVAEchsBFRpZ3b/aesVAUVAEVAEjiMEVGkfR52tj6oIKAKKgCKQ2Qj8f2ewJSggKtd0AAAAAElFTkSuQmCC;" parent="1" vertex="1">
          <mxGeometry x="50" y="40" width="493" height="203" as="geometry" />
        </mxCell>
        <mxCell id="qgleAZx9od4PJ5vfA43V-2" value="" style="shape=image;verticalLabelPosition=bottom;labelBackgroundColor=default;verticalAlign=top;aspect=fixed;imageAspect=0;image=data:image/png,iVBORw0KGgoAAAANSUhEUgAAAeQAAADJCAYAAADy60GlAAAYTWlDQ1BJQ0MgUHJvZmlsZQAAWIWVeQk4lV3X/77PfI75HPM8z2Se53meZxKO6ZjiGEOJJGOiQkglGSuVQiUiDUoZekiSSIZKoaJC9d2Gep73ef/X/7u+fV373r+z9tprrb3WHu51bgC4qnwjI8MQjACER8RQHUwN+N3cPfixcwACSMAElADJlxwdqW9nZwXg8rv9z7IyDHPD5anMhqz/7v//Fib/gGgyAJAdjP38o8nhML4KAKqcHEmNAQCzQReKj4ncwHAFzFTYQBhnbuCgLVy+gf228KVNHicHQxh3A4Cj9fWlBgFA3w/T+ePIQbAM+kW4jxjhT4kAgAUFY53w8N3+AHAZwTziME8kjDfmoeb3DzlB/yHT749MX9+gP3hrLpsFZ0SJjgzz3fN/dMf/XsLDYn/rEIUrbTDVzGFjzrDfRkJ3W25gWhjPR/jZ2MKYCONvFP9NfhgjCMGxZs5b/AhucrQh7DPACmM5f18jSxhzw9gkIszGapvuF0gxMYcxvEIQCZQYcycYs8M4MyDa2HGb5zR1t8O2LkRzINVQf5v+wJe6qXdD13hsqLP+tvxPwQHm2/KR9InBTq4wJsBYOI7iYgNjehjLRoc6Wm7zaCUGG9r85qHGOmzYLwxjh4AIU4Mt+ci4QKqJwzZ/dnj07/kiTwdTzG228ZWYYCezLf8gu8m+m/bDc0H2B0ToO/+WExDtZvV7Lv4BRsZbc0fOBUQ4O27L+RYZY+CwNRZFiAyz2+ZHCQaEmW7QBWGsFB3nuD0W5RIDL8gt+ajAyBg7py07UYkhvhZ2W/agjgArYAiMAD+Ihasf2A1CAOXJfMs8/GurxwT4AioIAgFAZpvye4TrZk8E/HQEieADjAJA9J9xBpu9ASAOpv/4Q916yoDAzd64zRGhYAbG4cAShMG/YzdHRfzR5gLewBTKf2n3hSsZtjcMrhv9/2/6b+rfFH2YYrVNif2tkZ/hNyfGGGOEMcOYYCRQnCgdlCbKCn7qwVUBpYZS/z2Pv/nRM+gB9Gv0EHoC/XwXJY36LyutwQQs32TbF37/9AVKFJapjDJAacPSYckoVhQnkEEpwXr0UbqwZmWYarht94ZX+P8l+z9m8I9obPPh5fAIPBteDy/+75H0kvTKf6Rs+Pqf/tmy1e+Pvw3/9Pxbv+E/vO8Pt5b/5kRmIpuQ95GdyB5kG7IF8CM7kK3IXuStDfxndb3ZXF2/tTls2hMKy6H8l77fkd3wZLRcg9xbufWtvpiAhI0zGhjujtxDpQQFx/DrwzdCAL95BFlWml9BTkEJgI37Zev4+uyweW9ArH1/08gHAVCFz2f86t+08M8AXIL3Pr/13zQRb3j7YQConSHHUuO2aKiNBxo+JRjgncYBeIEQEIfnowBUgCbQA8bAAtgCJ+AOvGHrg+F1TgXxIBmkggyQA46A46AUnAJnQS24AK6AFtAGOsE98Aj0gyHwAl490+A9WAQrYA2CICxEB5EgDogPEoGkIAVIDdKBjCEryAFyh3ygICgCioWSoQNQDlQIlUJnoDroMnQd6oR6oAHoOTQJvYU+QasIJIIWwYzgQYgidiDUEPoIS4QTYiciCBGFSESkIw4jShCViPOIZkQn4hFiCDGBeI9YRgIkDZIVKYCUQaohDZG2SA9kIJKK3IfMRhYhK5EXkTfgOD9FTiDnkd9RGBQJxY+SgVewGcoZRUZFofahclGlqFpUM6ob9RQ1iVpE/UTTobnRUmgNtDnaDR2EjkdnoIvQ1ehr6LvwXppGr2AwGFaMGEYV3ovumBBMEiYXcxLTiLmNGcBMYZaxWCwHVgqrjbXF+mJjsBnYE9jz2A7sIHYa+w1Hg+PDKeBMcB64CFwarghXj2vHDeJmcWt4RrwIXgNvi/fH78Hn46vwN/B9+Gn8GoGJIEbQJjgRQgiphBLCRcJdwhjhMw0NjSCNOo09DYVmP00JzSWaBzSTNN9pibSStIa0XrSxtIdpa2hv0z6n/UxHRydKp0fnQRdDd5iuju4O3TjdN3oSvSy9Ob0/fQp9GX0z/SD9RwY8gwiDPoM3QyJDEUMTQx/DPCOeUZTRkNGXcR9jGeN1xmeMy0wkJnkmW6ZwplymeqYepjkilihKNCb6E9OJZ4l3iFMkJEmIZEgikw6Qqkh3SdPMGGYxZnPmEOYc5gvMT5gXWYgsSiwuLAksZSy3WCZYkayirOasYaz5rFdYh1lX2XjY9NkC2LLYLrINsn1l52LXYw9gz2ZvZB9iX+Xg5zDmCOUo4GjheMmJ4pTktOeM56zgvMs5z8XMpclF5srmusI1yo3gluR24E7iPsvdy73Mw8tjyhPJc4LnDs88LyuvHm8I7zHedt63fCQ+HT4K3zG+Dr53/Cz8+vxh/CX83fyLAtwCZgKxAmcEngisCYoJOgumCTYKvhQiCKkJBQodE+oSWhTmE7YWThZuEB4VwYuoiQSLFIvcF/kqKibqKnpItEV0ToxdzFwsUaxBbEycTlxXPEq8UvwvCYyEmkSoxEmJfkmEpLJksGSZZJ8UQkpFiiJ1UmpAGi2tLh0hXSn9TIZWRl8mTqZBZlKWVdZKNk22RfbjDuEdHjsKdtzf8VNOWS5MrkruhTxR3kI+Tf6G/CcFSQWyQpnCX4p0iiaKKYqtiktKUkoBShVKI8okZWvlQ8pdyj9UVFWoKhdV3qoKq/qolqs+U2NWs1PLVXugjlY3UE9Rb1P/rqGiEaNxRWNBU0YzVLNec05LTCtAq0prSltQ21f7jPaEDr+Oj85pnQldAV1f3Urd13pCev561Xqz+hL6Ifrn9T8ayBlQDa4ZfDXUMNxreNsIaWRqlG30xJho7GxcajxuImgSZNJgsmiqbJpketsMbWZpVmD2zJzHnGxeZ75ooWqx16LbktbS0bLU8rWVpBXV6oY1wtrC+qj1mI2ITYRNiy2wNbc9avvSTswuyu6mPcbezr7MfsZB3iHZ4b4jyXGXY73jipOBU77TC2dx51jnLhcGFy+XOpevrkauha4Tbjvc9ro9cud0p7i3emA9XDyqPZY9jT2Pe057KXtleA3vFNuZsLPHm9M7zPvWLoZdvruafNA+rj71Puu+tr6Vvst+5n7lfotkQ3Ix+b2/nv8x/7cB2gGFAbOB2oGFgXNB2kFHg94G6wYXBc9TDCmllKUQs5BTIV9DbUNrQn+FuYY1huPCfcKvRxAjQiO6d/PuTtg9ECkVmRE5EaURdTxqkWpJrY6GondGt8Ywwy/yvbHisQdjJ+N04srivsW7xDclMCVEJPTukdyTtWc20STxXBIqiZzUlSyQnJo8uVd/75l90D6/fV0pQinpKdP7TffXphJSQ1Mfp8mlFaZ9OeB64EY6T/r+9KmDpgcbMugzqBnPDmkeOpWJyqRkPslSzDqR9TPbP/thjlxOUc56Ljn3YZ58Xkner8OBh5/kq+RXHMEciTgyXKBbUFvIVJhYOHXU+mjzMf5j2ce+HN91vKdIqehUMaE4tniixKqk9YTwiSMn1kuDS4fKDMoay7nLs8q/nvQ/OVihV3HxFM+pnFOrpymnR86YnmmuFK0sOos5G3d2psql6v45tXN11ZzVOdU/aiJqJmodarvrVOvq6rnr8xsQDbENb897ne+/YHSh9aLMxTONrI05l8Cl2EvvLvtcHr5ieaWrSa3p4lWRq+XXSNeym6HmPc2LLcEtE63urQPXLa533dC8ce2m7M2aNoG2slsst/LbCe3p7b86EjuWb0fenu8M6pzq2tX14o7bnb+67buf3LW8++Ceyb079/XvdzzQftDWo9Fz/aHaw5ZHKo+ae5V7rz1WfnzticqT5j7VvtZ+9f4bA1oD7YO6g51PjZ7e+8v8r0dDNkMDw87DI8+8nk2M+I/MPQ97vjQaN7r2Yv8Yeiz7JePLonHu8cpXEq8aJ1Qmbk0aTfa+dnz9Yoo89f5N9Jv16fQZupmiWb7ZujmFuba3Jm/733m+m34f+X5tPuMD04fyj+Ifry7oLfQuui1OL1GXfn3K/czxueaL0peuZbvl8ZXwlbWv2d84vtV+V/t+f9V1dXYtfh27XvJD4seNn5Y/x36F//oV6Uv13XwVQMIVERgIwKcaAOjcASDB+RnBcyv/2y5I+OUDAbcukCz0HpEO36h9qAy0CQaJeYQtwUXgrQgSNFiaedpBuhb6GoZqxkamVmIX6RFzP8sI6yu2Ofb3HEucq1w/eBC8WD4CP50AUZAoxCrMLsImyi7GLc4jwS/JLyUoLSwjKiu2Q1pOTl5RQUVRQ0lX2VjFXNVczUTdRMNE01BLX1tLR0NXSU9WX9SAx5DZiGD0y/izyYzpc7Ne8zaLWsujVinWITZutsZ2yvZiDlyOjE44Z6QL5IpwQ7njPRg9ObyEd8p4S+wS9uHz5fRjIZP8iQGkQNYgrmBBinSIaqhJmEs4JSJ5d2FkVdRpakl0QUxubFZcdvzhhJI9tYntSS/2gn3SKbv2n0h9cUAwfffBzkOYTKEshWyDHMfcwLzEwwX5tUduF4wWLh9jOi5TZFEcWHLgREXp9bLB8jcnl09hT3OckazUOmtb5XcupvpgTVFtbd31+ocNo+ffXfjeiLvEdln8im6T+9Woa1nNJ1saWzuu99zou9nf9uhWV/vljrLbKZ27ujTuEO/MdF+/W3+v/H7Og4Qev4fmj2R76XvnH999Ut4X2W8wQBqYGrzyNPUv+yGRYdTw22e9I43PC0djXriMqb3kfLk+Pv6qc+LcZNbr3VPOb7SmheFVtjL719zVt8XvUt6HzZM/kD9GLuQsXlta+Kz35cwK6WvJd6nVJ+spPzV+/fpH/BWQc6hCtCWGBfMS24TLxQcRjGgkaRlo1+lm6UcYRhhfMb0hfiB9Zl5h+cG6xvaD/SfHD84Vrs/cCzwzvGN8g/x3Ba4LVgvlCIeJWIlKiuHF3on3SNRJZktRpC1lZGTpZBd2DMhdlS9WSFYkK9krG6goqAqoEdV+qX/UGNPs0WrWrtTJ1Y3X89G3MFAw5DRCGL01fmJyybTALNrcyULFks1yzeqV9R2betsCuyT7QAdHR30neWcBF5Ir1nXV7b37mEev5y2vxp2nvY/uOuST7Ev1o5B9/T0CnALtg2yCLSmWIWahmmGy4QIRLLtpIhGR61HfqN+jf8Si44jxQgkae5wSo5OKktv2zqTQ7OdLlUnTPmCT7ncwPiPvUHVmR9Zo9tdc5jyFw/b5EUfyChoKHxx9c+xXEWexcondidDSg2WnyltP9lfMnfp5hrlS4qx2ld05cnVszaHaEvic621YuEC8qNjoeCnqcv6Vhqbuq2PXPrVgWjmuS97QuGnR5nYrsD2mI+V2aueBroN3MroP3c28l30/90FeT97DvEd5vbmPc55k9R3qTx9IHdz7NO6vqKHdw5HPYkaSnh8cPfqicqzp5b3x568+TILXxCnBN/LTOjPms35zp99+eK88n/Sh/ePPRc2luE8XP79ZZl+x/Jryren77Br3usOP7J/d2/E3RugjdyA/ojrRhzCOWHHsEu46PoPgQMNNM057li6cXp0BwdDJmM5kQWQg9pOOMNuyMLA8Zs1mM2GH2Fs5IjiFOEe4crh1uD/wlPGa8X7hq+A34/8ocExQQ3BMaK8wv3C7iLfIumiJmJJYr3iA+LrEUUkpyQ4pR6kZ6VQZEZkR2dwdBju+yNXIeyrQKXQoRioJKA0qp6koqEyq5qtpq31QL9Mw11jWPKtlr/VTu0HHXRere02PrE/Uv20Qachv2G+UZqxkPGtSamoLv3fcNI+ykLJ4Y1lh5WHNav3UptDWwY5kN2x/wsHbUdjxndNl50QXY1cG11G3avdoDwNPWs9hr1M7g70VvNd23fUp8PXyk/BbIXf7Hw3wDVQMQgUNB9dTUkKcQqXD0GGvwm9ElOyOj3SN0qDyRqOi52OGYjvjGuMrEvL3pCbGJ4Um++/duc8txWm/Q6p9mv0Bh3Sng+4ZOw8FZIZmRWen5GTmFuZVHK7Lbz5yp2CgcPzox+OoIolir5IjJ+6WrpXLnvSrOH7q4en1SoWzAVWl5/pqULVadfH1jQ3vL0heDGmsv7RwRaVp/9XeZo6WsNbuG3w3U9pet1t1tHXKd53vlrp7+b7Bg9GHCb18j/v78gacnooOgeH3I29G370Er0Qmd03Vz6DnEt+DD1WL5M+6K2rfnddLNuK/9T/gRsGoAHD8EAAb//M41AGQex4AsT0AsMG5px0dAE7qACFgCqDlLgBZaP+5PyA48SQAEuABkkANmMH5ZRicUxaDRtADpsAPiB1ShhyhaOg41Aq9hHM+aYQLIhXRiBhHMiANkPHIC8gZOEvzQpWhXsCZmA/6HPoDRgWTinmC5cGGYztwJBwF14nnxMfiBwmKhGLCOg2Z5jGtOm0tHTtdLj2CPon+K0MswwpjIhPElE1kJVaR1Ej9zCEsWJZzrMasM2yZ7FLs/RwxnByc7Vz+3DTcV3g8eJG8F/g84YxgQCBf0FaISeipcLGIp6iA6IzYefFoCQ1JSLJHqkDaE16di7KDO9rkquULFfYpUpQclTVU+FQh1Qm1NvVjGiGa2lr0WmPadToxurp6OL0B/SaDq4YtRjeM203umPaY9ZkPW4xbzlotWa/Z4uxY7UUd1BytnMjOyS4lru1ucx4kT32vyJ2V3kM+BF99vyRyq//XQLWgpODOEEKoc1hV+PJus8iKqIVorZic2PF4pYQje5aSXJPv7dNOaU+1TJtKz8rQzgRZAzmX8srzCwvMjiKP3S0qKAkoNSyXrhA8LVKpVGVTHVVbVv/oAmhUvWzT5H4tuCX5+vGbV24Ndqx08Xab3Yt5cPrhk94ffTIDO58eHro9Qholj10Yn5/knlKb1puVf0v/7tn84Y87FjqXzD51f1FYLl1Z/Wb//dzq0rrGj5SftzfPj634E+H4SwBVYAJcQQjYB46BBtANxsE3iATJQTZQBHQEaoKeIwBCAs7y0xCXEa/hPN4KmY7sQK6htFEHUL1odnQguhmDx3hjmrGM2DDsI5w0Lh+3jPfC3yPIEoppkDRRNJO0zrQP6Qzp2um16G/BWewDRnvGcThP/UU8RpIlPWaOgDPPVlZfNhq2VvZADlaO+5x7uKS5JrmLeWx5cbxdfPv5DQQwAo8Fi4R8hWWF10V6RSvEosSNJbgkPkk+lDornSLjKau5Q0KOXR4vv66woDil9Ez5ocpN1fNqpeqHNKianlqG2pI6jDrLuqN67fqNBpcNm4xajG+adJh2mz0077d4ZvnKatZ6yWbNDmfP6iDmqO5k7ezvste11O26+6jHDy/BnRbeMbtO+/T5QWQV/4iAusCZYFFKSMjl0NVw04ii3XNRWtS90R2xqDir+OKEmUT1pMPJs/uMU2pT6dP2HJiFz5P+TIus+zlmub2HHfInClKO8h67XRRYQn+itcz/JKni3um9lSpnP527XBNbp9WAOT908dyl5CteV1Wa6Vumrl+9eeCWTQf77cmuum7qPa0H2J7hR3WP9/d5Deg8FRliGn4w4vx8+kXiS+bxKxNOk+tTtdPuswxzPe8y5y0/Mi48Wzr9OWRZ5SviW99q2XrQT8Xt+CMBBtBungDiQAVeAW4gHBwEp8BNMArvf0HIAoqFqqBhBA3CCN75XUgc0h55CvkJZYGqQePRVPQrjBO8222wQzgy7ju+iKBOmKY5QatHO0aXRM9P38MQzyjJOMV0iuhHkiB9Zb7PUsGaxObJrschxcnORcON4F7nWeVd5wcCWPgNlEdYVkRb1EEsSHy/xAnJa3DevSjLuENBzlV+n0KVYp/SmoqEqrtaofqgJrOWu3aVzoKetn6ewSsjReMck0kzLfMii09WdtYXbGntwuwfOko65Ti/c7Vwq/fAe1K87nuL7jroM+1nSK4OQAb6B92hiIZkhM6FW0U0RrJEJVAnYoxiL8azJ+zb8z7JDd6nKik1qRxph9NRB5MzPmV6ZF3O/pXrlFdzePWIY8HFo4RjlOP3iqVKck8slLmW36oQPVUAn/3+Z3vPaVbX1DLVJdbPnHe80NYoein/8kqT99V7zTItR1oXb9jfvHiL0B7Y0d5J7Aq403wXdc/uftmDqYcSjyi91Y8n+zj77QcODl59+nqIMCz3zGGE+vzwaN2LO2NDL2fGl16tT0KvsVOYN5hpML0682F2fO7x29Z3le8z5yM+WH+UWsAuvFpsXcr65PFZ4vOnL23LaStGXzFfu7+lfNf8vrR6bs1jnbDe/IP8k+7nlV/uG/Hf+na0eX8wAnCaawMNXJrN+vd3m63vSv/ITf7dgs3bZaNs3C6bLXzTgP8B4nnQallXPXIAAABiZVhJZk1NACoAAAAIAAIBEgADAAAAAQABAACHaQAEAAAAAQAAACYAAAAAAAOShgAHAAAAEgAAAFCgAgAEAAAAAQAAAeSgAwAEAAAAAQAAAMkAAAAAQVNDSUkAAABTY3JlZW5zaG907mFvOQAAAj1pVFh0WE1MOmNvbS5hZG9iZS54bXAAAAAAADx4OnhtcG1ldGEgeG1sbnM6eD0iYWRvYmU6bnM6bWV0YS8iIHg6eG1wdGs9IlhNUCBDb3JlIDYuMC4wIj4KICAgPHJkZjpSREYgeG1sbnM6cmRmPSJodHRwOi8vd3d3LnczLm9yZy8xOTk5LzAyLzIyLXJkZi1zeW50YXgtbnMjIj4KICAgICAgPHJkZjpEZXNjcmlwdGlvbiByZGY6YWJvdXQ9IiIKICAgICAgICAgICAgeG1sbnM6ZXhpZj0iaHR0cDovL25zLmFkb2JlLmNvbS9leGlmLzEuMC8iCiAgICAgICAgICAgIHhtbG5zOnRpZmY9Imh0dHA6Ly9ucy5hZG9iZS5jb20vdGlmZi8xLjAvIj4KICAgICAgICAgPGV4aWY6UGl4ZWxZRGltZW5zaW9uPjIwMTwvZXhpZjpQaXhlbFlEaW1lbnNpb24+CiAgICAgICAgIDxleGlmOlVzZXJDb21tZW50PlNjcmVlbnNob3Q8L2V4aWY6VXNlckNvbW1lbnQ+CiAgICAgICAgIDxleGlmOlBpeGVsWERpbWVuc2lvbj40ODQ8L2V4aWY6UGl4ZWxYRGltZW5zaW9uPgogICAgICAgICA8dGlmZjpPcmllbnRhdGlvbj4xPC90aWZmOk9yaWVudGF0aW9uPgogICAgICA8L3JkZjpEZXNjcmlwdGlvbj4KICAgPC9yZGY6UkRGPgo8L3g6eG1wbWV0YT4KBy9EPQAAQABJREFUeAHtfQeYFEX6/gdKWoJkWFmQJBkExcMDwxFUxENERQRRQAUV1Dv/onKKeObEmc6EivmnInp6nCgGggiSkyJJEUQkLYpECWr/37dmqumZnemZWXZ2e3e/73ne7cpV/XbtfF3VVfWVEBHnwpkb5K2Ts+BUUQaUAWVAGVAGlIGCYKBkQVSqdSoDyoAyoAwoA8pAJAOqkCP5UJ8yoAwoA8qAMlAgDKhCLhDatVJlQBlQBpQBZSCSgSOt17nDuvSqDCgDyoAyoAwoA/nNgKuQWXGJ2/O7+ryvL6NsLVPo3n1b8r5wLVEZUAaUAWVAGchjBv75z3+aEiMUch7Xka/FVa3UQgZ2WSqlS4Vu6Zfdm2TWiltl2boX87UdWpkyoAwoA8qAMpAbBoqMQi5burLs2bdZ5qx6Xo48spx0bHaznHn8C6qQc9MrNI8yoAwoA8pAvjFgR8iBW9T14YcfytKlS+W8885LiYyN276QZyfXldkr7pDPvxopP/60SI48QqRuzS4plaOJlQFlQBlQBpSBgmCgQBTyp59+Kn/88UcObNmyRZ577jmpUKGCvPPOO7Jr1y556qmnUualfLlMyaxyPMoX+WHr1JTzawZlQBlQBpQBZSC/GSiBCs1JXeOnZOXboq42bdpI06ZNc9zrtm3bZNq0aSa8Xr16cvfdd5uRckZGhkyaNEl69uyZI0+sgEHdVkitKs3kkyX/TxZ980isJBqmDCgDyoAyoAwEioEC+Yb8888/y9q1a3MQsXv3bjds/fr1MmXKFGnXrp20atVKjj32WDfOz9H3tM+MMp73zeOqjP2I0jhlQBlQBpSBwDHAEbKDfcgOWpYvmDlzphNLduzY4bRo0cJ59913nX379jmY1nYWLFjg9OjRI6l29ewwwbm5j+OcfvyzSaXPr/vVevKnXynPyrP2Ae0DhbkPFMgI+eSTTwZnsQXKWo477jh54YUXZNiwYbETxQhtXu8SaVHvAhNTvVJL6XvaDOOesewm2fTTnBg5NEgZUAaUAWVAGQgOAwWikP1uv3fv3pKdne2XJGZc2dJV3fB6NTq67kXljnbd6lAGlAFlQBlQBoLKQOAUcm6UMcld/O1jBkElWtulDCgDyoAyoAz4MVAg2578GqRxyoAyoAwoA8pAcWRAFXJxfOp6z8qAMqAMKAOBY0AVcuAeiTZIGVAGlAFloDgykHaFnJmZKY0bN843btNVHw8qKaqSG85uv/12wRa1tFLy4IMPCtumogwoA8pAcWEgLfuQ69Sp4+DoS3e7MfcYX3/99Qn3Bw8ZMsTN43WMGTPGN29u68ND9i33tNNOM3ui2Rbui77xxhvd9Di0xJkzZ44JX7VqlRvOMv3iEtWZX/GHwxm5uOGGGyLuOa/bTc7PPPPMtNaR123W8vz/n5Qf5Uf7gG8fMEdn5vnBIPXr13c++eQTp0OHDk6DBg2c5cuXO/v370/qx7V9+/aOxZNPPsnfZQejbN+8h1OfXwfBqWLOhg0bzD189913Rvna9Dy8BMd9OjhhzFmzZk1E+/zibP6Cvh4OZ6qQff+pIvpCQT9nrV+flfaBQtMH0qOQozvAJZdcYhRrly5dUvqxWr16tVGI0eUl8qda34QJE5xff/3VwfnZbvuaNWtm2nzVVVeZMCpeyqhRo4yfo2e2g6PjaIXsFxev7bB05cDSlQNLV24b4qWNDudsxOLFi53ff//dOXjwoPP000+nXEYqnFEhz54928we8EXr0UcfdeubOnWqaQO5Iqe33HKLG7d9+3bn448/jplv4MCBJj3LXrJkCbPrCDnBDE50P1B/ofnhdf8n9JnpM/P0gfxRyP/73/+MsvBUnLBDZmVlmR/l0aNHJ0wbXW6q9c2aNcvU9fzzz7t19emDczghPM7zjTfeMKNhKrtXXnnFTcN6Yylk2x6/OJvGXqmIqdgpVLCwdBVRj00X68o8Bw4ccG6++WYHZ4DTm3ReW14qnFFpsj5OW8MgSMTMAY8+5aeHU045xcySsC1NmjQx7fHLxxeedevWOUOHDnU4M0HRKWv9sbL9U6/aF4pBH0i/Qj733HPNj6t39JkMsS+++GLED30yeZgmN/VxFPyf//zH6dWrl6vIrrvuOlcpUJF07tzZjOA++OADNw3r81O6fnHx7gcLyIzSp4JivVSU8dLacDb0o48+ctMxXyrfeFPljOW/9957pj5+kqB069bNrZ/T4bfeeqvzzDPPmDiOftnWePn4ScJbBtcbUFQh64+w7eN61b5QDPpAehUyvwVzGnX69Onuj3WypFIhcdFUsumZ7nDqi67HjpB37tzpTJ482bSDo8J0jZC99VOBffXVV0YprVy5MiEHTHjXXXe56biIzqugvWVHu3PDGRXriBEj3PpY/4ABA4z/yy+/NIp306ZN5mWFcddcc42Ji5ePi+Uotm1t27Y1flXI+iNs+4RetS8U9T6Q1m1PDRs2FBqLwChR/vKXv4DLSIFik88//1z69+8fGQEfRmxSvnx54daXaImXL1F90eV4/WeccYbgW6dAObnBUIjGXaZMGenevbvUqlVLSpUqZe7HTZSHDm4jwnSvYEGYYHZA8G1Wzj77bMG37KRqadmypZuuQoUKsnDhQtcfz5GIs3hcs7yQ/ows+YQTTpDWrVsL+eSWJcwymAQlSx7qarHy4buzSWf5ZzkqyoAyoAwUNwbSsu0JJJrvoBzlcioTFp4MGG7BkSfF+93WxtHs4p49e9y0NpzXePn43dWvPm8Z0e5Y35CZht8yN2/ebNrBqWOO8GxefuPu1KmTWXS2ceNG4+ZWIsb7xdn80VeapUz127EtgzwyLxSZc++999KbcGU68ybiLB7X5ME7Jc76OELmaJvCET6nsjm6p3D6n/XFy8c4Lg6bMWOGycepfoqOkA/9v9hnrVflRPtAke0D6ZmyxojS/KBG/7FTl+xQ9sf+ueeec5Wc7Wj84X7zzTdzhMfLl0x9tuxYV2ujObotVAhcyGXFu8Bs4sSJNti92u+qfnGx6mdYjRo1Yt5vvPTecDbA8kk3V0B742O5k+HMlhnNC5+Pd18568RMh6lz7ty59BrhVjGKfe5++R566CGTln90UVeR/cFJ2C9j9VUN0/5QTPpAehRyUSOPI88g3xOV2PDhw83okqPzgm4rpvcdLk7LTTvatGmTq3y5qUvz6A+99gHtA0HpA4c+7KFFKvEZSOZ7bPzc+Rezdu1awUEmpkIoZvOdF7o65nXQoEFpa9iWLVtk/fr1uSofi8JylU8zKQPKgDJQmBkInD3kwkxmQbadi8Hmz58f0QQqZi6wiifLli2LF6XhyoAyoAwoA/nMgCrkfCY8XdXhUJGYRavSjUmLBioDyoAyEDgGdMo6cI9EG6QMKAPKgDJQHBlQhVwcn7reszKgDCgDykDgGFCFHLhHog1SBpQBZUAZKI4MBE4hw+KRwOKRxPsmWhwfkt6zMqAMKAPKQNFnoEAU8qeffio4ICIHuFUGB1AIj3185513BKdICSweFf2noHeoDCgDyoAyUOwZKAEGeHSmjJ+SJSVuzx8+cPCDNG3aNEdl27ZtE5jyM+E4VEJgHcqMlDMyMmTSpEnSs2fPHHk0QBlQBpQBZUAZKAoMFMi2JxyLKDzAIlpwDrUbxEMlYNdX2rVrJ61atZJjjz3WjVOHMqAMKAPKgDJQFBlIm3EJkBXzCER7bjSPe/QKTQbC4pFDA/eweGQMEdDIRI8ePWKWE698DY/Nu/KivGgf0D6gfSC4faBARsiw/IQ+EVtorvG4446TF154QYYNGxY7kYYqA8qAMqAMKANFjIECUch+HPbu3Vuys7P9kmicMqAMKAPKgDJQ5BgokFXWfiyqMvZjR+OUAWVAGVAGiioDgVPIRZVovS9lQBlQBpQBZcCPAVXIfuxonDKgDCgDyoAykE8MqELOJ6K1GmVAGVAGlAFlwI+BfFHIGzduNKdy7dy5068tqcc1TD1LUjkuSypVcolqJJcsRyq/fOmIy9GAqIAu8JOXulHhibx++eLFZSUqNEZ8TYQdHSPcG1Tf64ly+8VFJXW9iepzE6pDGVAGlIHEDJRMnOTwU5QrV84chVmpUqXIwjLhnRsOehXXvpHRcX0vI2Yl8EH42iNuytxF3IRsbXOX1c3VEq6FwOfAcuB8IBnxy5fXcWegQeQxGldENXQG/A8BPCiNSii3+ZDVlegyGXExwP7wKUDOLgKSka+QiOVNBWYDfQArNeH4GOA9TgZsf4NT/OIYTzkbYN4n6QkLn+U8gPWx7tsAFWVAGVAG8oCBtB8Msn37dueNN97IebjHpdig/Xl4k/ZyXFsksWH7CaT5CugQTtsd105hd5yDSMBRzrr9wlYifdsU80SXNwP5JwE1gXcB3l90mlh+v3zpiGuEdlkMh5v3nulpa1Y4rL4njO22eXhNJR/zxiuTz/UBgGkeAZLlrC/S1gCqAWOBJQDLIP4DfAE0C/u7hq+J4mz+RUjPdjzpybcA7ufC/iG4krOjw36bT6+HnoFyoVxoH0iqD+TLCBk/jJHSBd4vgBuBagBHLWzJ88BfAa80hIejs/+GA7vhytG0Helw1DMrHPcIrhyxcESzALgQ8ArrvBbgqJVp3gYobA/Tc1T2EuCVRvC8CzCOeArwymh4mPdST2AduGsC/wa2AhxV8v4uAloDTH8SQGE6tusSwC9fOuJQpazxoHPYvYkREPL0vnGJvIPrQoD8U3KbL16Zp6LMUgA5o4wByNn59ED8nu14xGcDPwEfAmWBukB1oAUwCuDzpkwJXXzjwknkYTi+BrbZgPC1Aq4ciVM4SqY0Dl30rzKgDCgDuWWAP3n5L8tQ5T0ATVu8BqwDvgcYthigcNpxMvAB0B54HeCPK2VW6JLj7y6E3ADwR3w6cCfg/c5XGf6rASrzYcA8gHIf8CNwPdAQ8MpIeDjTzvZcAnwFeKU2PPyBruYJPCbs5o/5LcBe4CBQD2D+z4CnAMo44FfgVcAvXzriUKUrVF6tAD4PK1fCcW/YQ74GAZxO9kqq+eKVSWVKOSp0ET4rCl9EKLuAG4DzgelA9LPl8+GL2z+BL4EfAPssL4J7JcB+Mwig+MUx/njgDOAmeqJkMvzkg8/2WWALMANQUQaUAWXgMBgoeRh5c591K7LOB44E+INPhcaRzSTgNIBKazRAxX0OwJEbR0E1AcovoUuOv8yzBKBiWR+ObRa+2gtHeSMAjmweBPgdm0qAeT8C/gV4hQqHLw4HAOZ9GvDKRHjYNu9LQtVwgmq4DgCuA/YDVQAKFcseYAHQABgIUPzypSMuVGvoL9vwB/CGJ3A53KvDfr7E8LlES6r54pXJlxdychfQDbgfoFjFnOjZst90ATg6psKk1AhdMF0tMhTgMx8J8Jn6xSFaHgP4crKJnijhS0kG0A/gCwP7gIoyoAwoA4fJQMEoZI5k/g1QAdBNpdQB6ANkAaUAjlipAK1CgFM28w/E/kiHfIf+vgrndOAy4GSAUi50cf9+4rpCjo5h/9Koq012NxxHAP8DFgEcJXuFP/63A/M8gT+H3U/hynxUZHz52A5YoeK3LyIbwoF++dIRZ9vC64XA596AJN25zRer+OsQ6ACPA1TOewG+vFESPdtrkOYEgC9ZNwHsU5bvZ+CeAdwGsM/1AvziLkd8NYAvd90AKvmjgbYAZQzwPNAaGAQMAfgyoKIMKAPKwGEwUDAKmT9wjYHs8JU3sA2g0uIPKqcKFwO3ABwlc1R6HLAS4A8qR0PR0hABJwIctZwJcORN4ejWK1ax2TDWQ2kUuuT4FsiXAtbXHfga+AfgFbaLSsnmZ9z3/APhfd5sXCG3DWfQKIDK5mygJUCx8bHypSMuVGvoZegoeF60AUle+RKVm3zxiucsw/lAC4CfDzIAvpAl+2yR1F1rwGdmX3So3K2w/5QH/OIqIf4AcD9A5Ut/U4DPsitAeT90kTm4/gbYF8BwsF6UAWVAGUiVgYJRyNeimb8DjwDzgFUAw+x06Xq4qfg4ArkDaAD8G6BMBfoDHemBUKHxx7cEPRCObGoC0YqTcbHkOwRyJPZ3gPk4temVfvBwinMdsBhgu71yJTx3Aud4Ajm6p7LlSwblHoCKgFPblNcAlnMqQIX/AkDxy5eOuFCtoRHeTnioXFKRIUicm3zx6uBz5PM7GngWoCKdCvg9W77MDAZqAPUAck35CmA/4gsY28lny3R86Xsb8Itjv+Ro2ILPchrAvjAF+AO4GqCwL7JMnbYmGyrKgDJwGAzwpyT/hT+6HHW8B1wO8McunkxABGHlGjj+D7BKjOE3AGuAGcBTAGVF6GKmQMNOc3G8nrD7SVxvBE4H+OPrlYHw3A7wR/gAwOlUr9jy7NXGXQfHqwBH9ZQ7Qhfzvbg93H3C/ktwXQSMBajc4+VDVFriWG5HgC8JqUpu88Wr5ypEtAtH7sZ1UNjt92wrIg2fnZ2J2AH3swBfdCh80RoHsG9wYR37zkaA4hcXShH6G/1s2QeuAPhsOTr+EFgCqCgDyoAycJgMpH0f8s8//+xQfv31V/605R3s3tLoMrknNTosGf8xcfJxLzH32yZTRnSahmnI51dmbuOi211Q/vrgq44PZ/GebT3kqeuTr0Eu4/x4YJ1+8Rqn/Ggf0D6QQh/gZCAVsoyfkiUlbodPRRlQBpQBZUAZUAbynYGS+V6jVqgMKAPKgDKgDCgDORhQhZyDEg1QBpQBZUAZUAbynwFVyDE4f/DBByUzMzNGTPqD7rzzTmnWrFn6K/LUkFG2lhAqyoAyoAwoAwXHQMGssk7ifhs0aCAXXHCB0FIUlVR+yo033ihTpkyRTZs25We1pq5Ro0bJTz/9JCtX2uXZ6WtC1UotZGCXpVK6VKgb/LJ7k8xacassW/di+irVkpUBZUAZUAZiMhDIETIV8LfffivXXnutXHHFFfL777/LZZddFvMGNDD3DJQtXVn27NssM5b9U75Y+YBUrpApZx7v3U+W+7I1pzKgDCgDykDqDKR92xOalPTS9w4dOjh//PGH069fPzfPk08+6axatcr1jx8/3tm/f7/ZSrVr1y6nc+fOJm7q1KnOwYMH3S1Wt9xyi5uHbdi5c6fz9NNPOzQHSVm9erWJHzhwoNmSxXqXLFli4s4888yIvLHugeV8/PHHzr59+0x7Hn30UTcPt3qxXJtvz549ztlnn+089NBDzo4dO8w9YgTuZGdnm/x9+/Y1adkG3ivvAy8izrhx49wy2rZt62zYsMHkPXDggPPMM8+4cX73Z9uQ6Dqgy0Ln5j6OU7dml4hyE+XT+OT7t3KlXGkf0D7g0wfMtifHuSMYJC1YsMCZOXOmUQjvv/++UUyYwjVKiDdBhUqZOHGi06VLF+e5555zlfe7777rDBkyxDnllFOcTz75xKRr0qSJq1yo7AjGUVm+8sorJm737t3OunXrnKFDhzp2z3QyCpllUTHecMMNzrRp09w2sp2MY7glno0ZMGCAqZN5rrvuOtO+Dz/80CjgpUuXmrTMR2U8cuRIo+yZKCsry8Tx5YMKfNCgQUZRM65FixZuHcxLRNzfv/Bcac83GlMin3f5cpnOjec7BrbNeo3kSPlQPrQPaB9Icx8IlkKmQqRivP76682olSPHWbNmUfcYxcPRJZVnPFLq16/v3HrrrWb0yDxUvDYtldWXX37p+hneuHFjJnO6detmwlkvJVmF/N5775l8+OZt8tlyWFc8hbxx40aTh2mopF966SVn/fr1btinn35q3Gwf04wePdo599xzTflU4Fh0ZsBZggkTJkSkjb4/mHR0cBJXTrSO/Mca1G2FGR0ff+z1bnmWN71GcqV8KB/aB7QPpKMPBG5RV4UKFWT58uWC6V+ZPn26YHpaMHqUFStCZ2EyHiNncJFToIykVatWsmXLFsH0tElQsSLPVjwkGFkf8sDVu3dv44cSNFeMdCPiE3kwmjdJ1q5da661a9dOlEV++43nLYZk7969AsUqpUqVskEyf/581/3LL78IpuRdf8OGDYWg4MVE8ALjxtERfX/mPOgtEUlCnn2Hwvqe9pnUqtJM5n3zuCz6hgc5qygDyoAyoAzkNwOBU8hUTnXr1pWFCxcKRqmGD3ulB8dvSrt29sDjQ3SdcMIJ0rp1azn99NOFypV5Jk+eLCVLRq5b27o18rBqfHc2hbRv314wXS4sJxXBsDVmci5Eq1KlionDd/GINPHy2ESYhrZO4QsFFfR3331nwv72t7+Z+3ITRDmi78+coW0tFHnT/gRPJ5GeHSZI/ZqnyqI1z8m0JX/zpjDuP//5z9KxY0eZM2eOYKYiR7wGKAPKgDKgDOQNA5HaKm/KPKxSNm/eLGeddZY88MADwtEmFfQjjxwatc2YMcPs07355ptNPZjSFkwTS4kSPAUU9uLr1BFumXrssceMP9EfKn5805WHH37Y5LvpppsSZUkq/scffxS2je1h2alI165dhS8IXG1+5JFHCqa05bXXXjMja95XmzZtTHH4Di3du3f3L3o4ormtORpQxs3rXSIt6l1g8lev1FL6njbDILPaSW6Z5HnMmDFi+XYj1KEMKAPKgDKQpwwETiFjFbJghbVRxGXLlpVhw4aZaWh8QzU33qNHD8EqZLn//vuFI8033njDjEQ5up03b55RXhxNli5d2qTHN9gIwqL9jHz88ccFC8HMKLRGjRoR6RN5osuz/ieeeMJMLWNVtHvICONsPMtl++mPHjFzdM1R8W233SZz5841U/hMf+mllwq+kZspfObhi0r0FLm3fObxk7Klq7rR9Wp0xEj5FIMK5Y52w6tWDaUpiD3ZbiPUoQwoA8pAMWEgUNuewLnDldZcsHTfffeZFdN2lTHjvOjUqVOEn3G1atVy6tWrlyPcmy+eGyPPXOWLVx7Dvau8/dJFx3FxWrz74MpqTNvneVuj20A/t4px+1WsOA2L7I/Kh/KhfUD7wGH2gWCtsrY3c9ddd5nV1FTMGPU5GP3mq1LgS4CfcOuRbWtRvpL7F154oVjca1F+jnpvqii0DwS/D6j5RfTSeMIV2/Fk2bJl8aI0XBlQBpQBZUAZSJmBwK2yTvkO0phBlW4aydWilQFlQBlQBiIYCNyirojWFZCnIK09FdAtp1zt+VWrSe3wwrmUM3sy9K+W2iI6T1Z1KgPKgDJQpBgIrELm1iVaXcIpVflOOOu1W4vyvfI0VMgjT+xRJF734VT1RFZ9aVMu43CKMHkfq1tfWiZRjrfdXvdhN0ALUAaUAWUgIAwEUiGrtae87R18yEeEi/S687aW9JbmbbfXnd5atXRlQBlQBvKPAf62BUp4qhVtAuOMZ8G2HwNYNYo4mILHafLAEO7FhcEF92hJnroFwwwmnCd6wdpTxL3xOE0YpxBYaTJpYO3JxOO8a3MCGPfwwtpTRB4/zxlnnOGWBYtPbhth2Ul69uyZIyvDYfHJ5IGVKGEe3gePCbUCi07CvctsCw8s4b17Jd49eNOk4v6ieWu5s05dWdHiOFnVsq1cWv3QFHILjFwZn932RBPfs/Khfcus49LqNWVt6+NlA3BVrUy3Wr98HStWkmWoZ1ObE+TZYxq6ec6sXEUWoC6vsF3P1G/kDVK3MqAMKANFmoFA7UMuTNaeoPQdWqKiMQwadaA0a9bM7N2N3irUq1cvE4+eZLZxxbMSlQ6LTmegzosB1u110w/F6Kxp1c45q3IV5/6sY4yf4QQUp/NZ05bOXypWcp6v38iBYnbw3djEMR+UsQMl7UBxmrhk8i1u3sZ5p1FTU+bMZq1MPkxZu2WeW6Wqcdu2XVK9hvF72+112zr1GvwtHfqM9BlpH0jYB4K1D7mwWHs6+eSTjYIdPny4URg44cv4cUymM3v2bAcGMkw4FW///v2dsWPHGkXNDsm9vbGsRKXbolOsfwYq1n8cHTLvWL1UKaMgm2dkOMeWLWvcXSsd5SpIKmSrIJnv7qxDB7DQ37tqNd98NT3lsy0YFUcoZCr9/zZuauo7p0q1iJeDWG3XsIT/3O6zU66UK+0Dwe8Dgdv2VFisPeEELvRvkY8++shcYafYTDHzaEsatxgxYoRZlEYrTjhExBxx6d1GFctKlLXilA6LTqaRcf4s2bvHxGzDdD+lcskjcIZ2yPrUV7/uNWH88zPi65Qq7fqX4bOAlTUH9kuHjAqyLWzJKla+9hVClrdWwMIV5WtP2fSP27ZVJjZuJngxkIFVq8uknb8wWEUZUAaUgWLBQOC+IfObqrX21Lx5c/MQUrH2xO+6mZmZQsMLlFSsPTF9staeYL+YyeWkkw4ZYuD52TSOwW/cPId78ODBgpGwSdOoUSOjqE0m/MFw2jrdq9eiU9OmTcXiyiuvdNPQEdOi0yREROOtiGwpebb9FlLOjcqUdfNVhaLM9piObFimjBtHRf0lFKxfvmVhBVw/XGZDT9ksaPbuXbIN382H16gtp+Jb87ifst3yEzlolQr2pwXHqSZKqvHKgDKgDASSgcAp5MJi7YmjYC684gI0jorfeiuk/SZMmCAcCXNxGV8oaC6Ro+SMjAx58803fTtBOiw6+VboE8lR7H4YuRgG5Ui5IbOOuc7cvdNc+afPUVWFypV7kisccYRM27VD/PKtxyI2jrKH1axtRsFDa9Ryy7KO57dvk2sQz3Szdx2qy8bHu6pVqnjMaLgyoAwUFgYCp5ALk7UnTktz6nrt2rXSp08fefvtt2XatGnm2a9bt064Ipoj6UWLFhkFje/Kbr+gMveK9ee1RSdvHfHckS3B6D2c8PIf1ko3jFS5ynpkraPlgc0bZZVnmno/RvnzsTL6mXoN5XUo0k0Y3VL88t25ZaMMxmEgK7DSur5n+jtcpfxfeFT8MspLRdQqVSpsaVplQBkIKgOBWmUNkgqdtSds1crzxTP5adGJnPuhQZmyvvHx8vrlq1OmTMwysS3KLPSKFx+vLrVK5f8M4/Gm4cqb9oFA9YFgrbK2nUOtPQWqk8RUnvZZ5dX14XoNzFaqFxo0Trk+rlyP3mqWV+3ScopfX9Rnrs+8IPqAWnsC6/FErT3FYyY94aMys+SH3w7Iy9lb01OBlqoMKAPKQIAZCNy2pyBx5d2mFKR2FdW23L1pQ1G9Nb0vZUAZUAYSMhC4RV0JW5wPCYqbtSfu+60FqCgDyoAyoAwUHAOBVchq7SnvOoXXOpLXzRp4FjVXPPN8aZ4l7T2v2pvW6867lmlJyoAyoAwoA5aBQCpktfZkH0/eXPmQ41l7+vuGdVJjyXyDWXt3y6NZx7iV+uVzE6lDGVAGlAFlIE8YCJxCLkzWnmhpavHixfI7DtDgQSC0JGUlt5ag8tva03+3/2ybLJN3/CKVjjxSMnHimIoyoAwoA8pA/jMQqH3IhcnaE61J0HgETolypkyZYoxL4PGZLTu5tQSV39ae2F5rsYlWn15r1MTdcuS1quR123vUq24N0T6gfUD7QJ72gWDtQy4s1p7YCSkwLuEqMO6FxXnKTm4tQRWEtSfex5i69R3YQzYHcvSvFjJ3qP9kefpP5vYR5VV51T6gfSBeHwjctqfCYu0JhBqZN2+edQqnsO1UNQNTtQTVpk0bU1Z+W3sa8cM6GYGaoYzlsbr15XOcV/0DjHyoKAPKgDKgDOQfA4H7hlxYrD3ZR9SyZUvrFL5MLFy40JxfzcBULUEVtLWn18PnSHeqUMm9Jz+HWljyY0fjlAFlQBlInYFAfUP+5ptvnFdeecXBKNHZt2+fAwXtcCqYgltzPvjgA+Pnd1v6+/bt63Tr1s1p3769STNw4EAHW6aclStXGj/MMLrThSzH62d+gnXMmDHD5Fu1apXJB5OPbj6bLvrKhPzmC5ONzr333mvyNW4cOvYRC71MG2AJyoElKBPXuXNnUya/O1Pq1avn8FszhWdXs3wsDnPYBoyWjZ/t7d69u9uWePcQ3bZk/E3KlXMuCk9RH126tPMopq5hSMJpk1Herc+vHJiWNG2fOHFiUun9ytI4ncbTPqB9QPsAlMCFMzc4zh3B6AxDhw41SqlOnTrmR/7yyy83yqpXr17uj/6KFSuMIuAfKihYWjJxc+fOdcMx2jTua665xs3HtF6/ffiwMOXm4zdsSrIKmUYNrMyePdut6/rrr3dfJBgPs4xu3OrVq50dO3YY/6xZs8zCMNuWfv36mRcEWyYV+6BBg9y88e7B5k/lekKFCs6mNicYJUxFvLh5G+eqWpluXYnK4ksMZezYsUnnSVSmxgfj/1Cfgz4H7QMF0geCpZDZCbjSmqPW++67zznllFOcrKysmD/4MEafI7xWrVpm5JmbzmRHpcnmpTIaPny4GVnHa2NuLUHlp7Unjo6x1SkHl4l4UAtLBfIPm/JzSvQcNV6fo/aBwPSB4Clkdo7CYO3JKuTi2pk5WlcLS4H5R1ZFjd+N4vq/qPddNJ594FZZo2MZue2224QoKNmwYYO0bt06bvU0PHHOOefI/Pnz46Yp6hElSwZuTWBRp1zvTxlQBoowA4FVyEHgPJG1p/POOy8IzdQ2KAPKgDKgDBQBBnSIE+Mh5pe1JywcEyziitECDVIGlAFlQBkobgwEViEXB2tPI0eOFCxcy9HnHn74YXnzzTdzhPsFeK0xed3M06BM2Yis2O7k+r1pvW43gTqUAWVAGVAG8oWBQCrk4mLtafDgwdKjR48cD/rEE0+UP/3pTznC/QL4IGNZdLq37jEyD2YVsa1JTixfwZhZnNW0lUxt0sIUFy+fX10apwwoA8qAMpD3DAROIRcma084jER4uhZWGxtgT7H7hLCfWXBIievfs2ePnH322cbPqerdu3cLv1E/++yzbpohQ4YIDkMRbOcSHChi3PQ3a9bMTZOqY3CV6m6WiY2aSq1SpYy/dUZ5wQEgblwOx/0IeRk4KUeMBigDyoAyoAykiYFAHQxSmKw94RxrZ8uWLc5pp53mQNk6jz/+uLvtgluCaGgCz8yAW6QGDBjg+jEydr7++mtn3bp1bhjT8jQvhm/evNm47ele8i+UszwGpoTK91pj8rpXtWzrHvzBwz+8YH3etF43FLEj/wFWArOBawDdVqIcaB/QPqB9IJ19IFj7kAuTtSeeBpadne1gejnHA0qkkKncpk2blkMhM/zzzz93WHaEAjwGCrFjDLT2V5SDqteMUMJWIT9fv1Fk+fH+yWqg/JuAuQBfCO4B4qXVcOVG+4D2Ae0Due4DgZuyttaeLr74Ypk+fbqMHz9ecHwmdEBIGO+dGrbhvH755ZdmChnHYwpGliaqYsWK3iSCc5cj/L179zb+Tz/lkiYRKElzTebPtddeK9yLiyM7hUYx+O07bbIHJW+JgZ/9a3xp21aZsmtnRKItBw/KFevWRITF9WQjZgHwDcDe0hhQUQaUAWVAGchzBgKnkKnY6tata6wmNW/e3Nwwv7lagTEGadeunfW6Vxh4MAd50PxhZmamwCiDiYs+vGLr1q1uHjqmTp1q/PweTGE5ycqkSZOkWrVqpj0wCCGjRo1ys+IMaqlSpYrx87t4KoLZbaPoI/LcAd+kGHgrIlVMz0VrVsnGAwdM3G/43n3umpUx00UEZsHH94uFwBPAPuBioC8QFrX2ZJnQqzKgDCgDecNAoL4hFyZrT6NHj3bP2R43bpwxioFHYqYr+G2Y90IjGTQgEf0NmeniTVnTchStPuX2HGzbBu8VW5+cDa2Pd04/qnJy0ylP4j4SfDtWa086fe/tY+rW/qB94LD7QLC+IRcma08bN240ipbfi2lSEfuHXWU3YsQIh5aaKNbyVP/+/U38mjVrTLj3D8042s5MJc48LJeSqtELW066r2rt6bD/+dxnnu5npeXrs9I+UCj6QLAUMjtNYbH2xLbS3jFtMcfr7E2aNIkbFy9PYQlXa0+F4h+8yPa/wvJ/ou3U/5MU+kDwFDIbXxisPaVAcpH8UeQIXq096Y9Ncf8/0PvX/4G86gMlWNCFMzfI+ClZUuJ2+FRcBlq1auW6ox2JDE9Ep1e/MqAMKAPKgDLgx4Bae/JhR5WuDzkapQwoA8qAMpCnDARu21NKd9cwpdTJJ74s+aQJU9ZImCJ2Ar986YiL3YpDoV3gJC91DwUl5fLL5xdXP07pmXHCGezHi082Odonktu/4klu64tXnoYrA8pAsWagZIHePX9c54Zb8Cqunj2uvu3iGcvcSvtB+JrTPoNv9oSRNyFF24Sp/BO0RDT38H4OLAfOB5IRv3x5HYezMg2P5NKLK6IaOgP+h4CeAJVXbvMhqyvRZTKiJvAxwLZMBmzfqAb37HD4NFx5ZHgvwIofLw2QaCzAZxC9Z5vPZB7ArehfAbcBVrjnmvXzvBjmvQiw4lefTaNXZUAZUAZywUDB7UO+FIsBPg8vCOCxjC2SWBzwBNJ8BXQIp+2Oa6ewG9/Dcf+HD57f3PYwy5mB/JOAmsC7AO8vmbb55UtHXCO0y2I43Lz3TE9bs8Jh9T1hvA+bh9dU8jFvvDJ5dvYXQDOA6bqGr+RwDHAsQPcbwCKAaQg/XhYifhrAoz9Zvs3D6wLguXDYEFx570eH/exjD4Tdj+DqfX5+9XnLV3ck38qH8qF9wLcPFMwIuQt+Fr8AbgQ4+uFIhC15Hvgr4JWG8HB09t9wYDdcOZq2oyeOpKyRpUfg5kiHIywe93gh4BXWeS3AUSvTvA1Q2B6m50joJcArjeB5F2Ac8RTgldHwMO+lnsA6cNcE/g1sBTiq5P1xlNUaYPqTAArTsV2XAH750hGHKoUnaFp0Drs3MQJCnt43LpF3cF0IkH+KzcNrKvnilUmjVC2AUQCfDWVK6GI4HAH3NwD55Ig3AyCXfrwg2jwXtu97eqKkAvwceVNCB7aFjgY9FX4axeLzo4wB+PzOBxLVhyQqyoAyoAzkhgH+zOS/LEOV9wAlgNeAdQB/MBm2GKD0ASYDHwDtgdcB/mBTZoUuOf7uQsgNAH84pwN3At7vg5XhvxqgMh8GzAMo9wE/AtcDDQGvjISnEsD2XAJ8BXilNjz8Ya/mCTwm7P4a11uAvcBBoB7A/J8BTwGUccCvwKuAX750xKFKV6gQWwF8HlauhOPesId8DQI4heuVVPPFK9PyfhEKXwnwGQ8CYsnpCPwNIJd+vDAvn0E8mYwI3hef0bPAFmAG8BNAOSp0EfYbCpVxovpMQv2jDCgDykDqDJRMPUse5NiKMuYDRwL8wadC+xCYBJwG8Id2NEDFfQ7QGRgPcDRJ+SV0yfGXeZYAVCzrw7HRpoQ5yhsBTAUeBPgdmz+8zPsR8C/AK1Q4fHE4ADDv04BXaKuCbfO+JFQNJ6CSHgDwWO39QOho69BLwx74FwANgIEAxS9fOuJCtYb+sg1/AG94ApfDvTrs50sMn0u0pJovXpk1wgXzeQ0F+HxGAuTfKx3gOR/gs6P48RJKEf8vXy4ygH4Ale1EgEIlzudzF8AZAdqGplAxH059phD9owwoA8pAbAYKRiFzCvrfABUA3VRK/KHtA2QBpYAfASpAqxDglM38A7EjlpDv0F+OMqcDlwEnA5RyoYv79xPXFXJ0DPuXRl1tsrvhOAL4H7AI4CjZKxxl3Q7M8wT+HHZzFMx8XwF8+dgOWKHity8iG8KBfvnSEWfbwuuFwOfegCTduc0XXbzl5hlEzABuA9g/egFWGsHBGYWPgVfCgX68hJPEvYxBzPNAa2AQMAToAlCuAxzgcYDKeS+wFTic+pBdRRlQBpSBeAyUjBeR1vCyKL0xkB2+srJtAJUWRz5nAIuBWwCOkjkqPQ5YCfBH+jQgWhoi4ESAo50zAY68KRzdesX+oNow1kPhjz2F7fIKXwpYX3fga+AfgFfYLiolm59x3/MPhPd5s3GF3DacQaMA/sCfDbQEKDY+Vr50xIVqDb0MHQXPizYgyStfonKTL1bx9qWEys8Kn3X5sKc2rm8BfLmhsrTix4tNE+vaNRz4fvg6B9ffAPsixxmP84EWAD9lZAB8OcxtfciqogwoA8qAHwMFo5CvRZN+Bx4B5gGrAIbZ6dL1cFPxceRyB9AA+DdAmQr0BzrSA6FCo8IsQQ+kGlATiFacjIsl3yGQo5+/A8zH6VKv9IOH06brgMUA2+2VK+G5EzjHE8jR/VaALxmUewAqF05tU14DWM6pABX+CwDFL1864kK1hkaGO+GhUkpFhiBxbvLFqoPPnC9LLJPPYTDAF7S3Acq7ABXm/QCVJEHx44XxfHbNACr2jLCbfWQKwGdyNUBhn2J9E+mBsE8x3dHAswBfFKYCiepDEhVlQBlQBnLDAH+C8l/4Q1cJeA+4HJgGxJMJiCCsXAPH/wFWiTH8BmANMAN4CqCsCF3MtGPYaS6O1xN2P4nrjcDpABWpVwbCczvAH+8DAKcwvWLLs1cbx1HcqwBH9RS+WFBYXnugDz2QS4BFwFiAyj1ePkSlJY7ldgT4kpCq5DZfvHr4UjQO4HPkIjg+543A8YD9/m5fahBknvskXP04Y5kXMHFY2OfYn24D+CyvAPiMqOw/BJYAlKuAdsYlshvXQWE3L371eZKpUxlQBpSBVBkouH3Ih7snze5XjS6nRnj/aHR4Iv8xcfJx7yv32ybKHyu+YRry+ZWZ27hYbS+osAZp4MzvXurFqa8+wuvEiWN5flz71adxuftfUt6UtyLeBwpmhJzqK0O89Hb0GR2fHR2QpP/7OOk4ao4eOcdJmiP4uxwhyQX45UtHXHKtyp9Ua3NZjR8vfkVyujyWrIsV6AnLbX2eItSpDCgDyoBloKR16FUZUAaUAWVAGVAGCo4BVcgFx73WrAwoA8qAMqAMuAyoQnapOOR48MEHJTMz81BAPrruvPNOadaMy4KDIeXL1ZYK5Y4ORmO0FcqAMqAMFGEGAvsNuUGDBnLBBRdIuXLlhEoqP+XGG2+UKVOmyKZNm/KzWlPXqFGj5KeffpKVK+N9IE9Pk05uda90av4P2b5rgzw7ua6p5IbzHDnyiFB9e/btlDmr75IFq8akpwFaqjKgDCgDxZyBQI6QqYC//fZbufbaa+WKK66Q33//XS677LJi/qjSd/tVKjY1yji6hh171srCb5+RRWvGSrnSlaRrm4eik6hfGVAGlAFlII8YCJxC7tChg3CUOGDAAKlXr57BM888IzffbI+8wvka48fL/v37xXEc2bVrl3Tu3NnQMXXqVDl48KAJ//XXX+WWW26JoGnnzp3y9NNPy/bt202a1atXm/iBAwcK0//xxx+yZIndiBqRNaaH5Xz88ceyb98+055HH33UTffzzz8Ly7WyZ88eOfvss+Whhx6SHTt2mLo4As/Ozjb5+/bta5PKsGHDzH3wRWTcOG7MDUnbtm1lw4YNJu+BAweEvHgl3v1508Ryn9Phbdn96/YcUc9/1FA+XXy1fLLoKlm3daqJz6x2Uo50GqAMKAPKgDKQNwwEah/yggULnJkzZ5r9du+//74DBetgCteBsjRhUKjQw44zceJEp0uXLs5zzz3n9OvXz8S9++67zpAhQ5xTTjnF+eSTT0y6Jk2amDhQZcpgOYyDsnReeeUVE7d7925n3bp1ztChQx0oUpPvzDPPdPMxbyywLChG54YbbnCmTZvmttHWxXCbj4XiJcPUyTzXXXedqefDDz90Vq1a5SxdutSkZZm855EjRzpQ9iZNVlaWicPLhwMF7gwaNMiBojZxLVq0cOtg3hz39y+0nbZ8ozEldE/HNbzaubmP42TVOM1ch3b/wS2Pbe/W7mlnSPd1Ju7iznMj4uy96TV2/1BelBftA9oHUuwDEiiFTIVIxXj99dc7GLU6GDk6s2bNMsqHN4bRpVGe8W6yfv36zq233upg9GjyUPHatFRWX375petneOPGjU26bt26mXDWS0lWIb/33nsmH755R5TDuuIp5I0bN5o8TEMl/dJLLznr1693wz799FPjZvuYZvTo0c65555ryqcCx6IzA8wSOBMmTIhIG31/MBfo4CSunGgtTkbZWs6N5zvOXzu8ZcqgYo5WyFec+Z1Rxozr1PIuty7LqV71B0f7gPYB7QN50wcCt6irQoUKsnz5cuH07/Tp0830NEaPsmJF6CxMxmPkjOefU6CMpFWrVrJlyxbh9C2lYsWKEQkxso7w9+7d2/ihBM0VI92I+EQejOZNkrVr15pr7dq1E2WR337jOY0h2bt3r5nuLlWqlA2S+fPnu+5ffvnFnZJnYMOGDQ3oxqheODXulej7M2cwb/GmCLv3ibRteLWUxEeLUkeUl7NOfMVEVMzIkhObjpT5q3hoNIwhYdq6csXGcs6f3pGTW4yS9dnT5Ifw9LVJoH+UAWVAGVAG8oSBwClkfhuuW7euLFy4UDBKNTdpr/TwW2+7dvaQ4UMcnHDCCdK6dWs5/fTThcqVeSZPngyFE/mZfOvWyCO3+N2Z0r59e8F0ubCcVATD1pjJ+f23SpXQAcz8Lu6VeHlsGkxDW6d5oaCC/u670LFQf/vb38x9uQmiHNH3Z87Q7hqViN6fREpeWdpENKnTw03AVdWt6g12FTIjftn1raz6cbxkVm0jx9Ts5irkP//5z9KxY0eZM2eOYBbDLUMdyoAyoAwoA6kzEKmtUs+f5zk2b94sZ511ljzwwAPC0SYV9COP0CxUSGbMmGH26dpFXlwMhelmKVGihElQp04d4Zapxx57zGbxvVLxc4HUww8/bPLddNNNvumTjfzxxx+FbWN7WHYq0rVrV/OCwNXmRx55pGBKW1577TUzsuZ9tWnTxhSH79DSvXt3/6KHI5rbmqPRSWTmslvkifczwwjtNd65d6u8+ElTaV7vEsG3Yzmz/Tjp3v5ljI7vMfVk71jq1sdnMGbMmIgFd26kOpQBZUAZUAZSYiBwCpmrkLFIyyjismXLmhXHnIbGN1RzYz169BAsgpL777/frJR+4403zEiUo9t58+YZ5cXRZOnSodEfvsFGEBLtZ+Tjjz8uWAhmRqE1atSISJ/IE12e9T/xxBNmapmrou0hI4yz8SyXI2X6o0fMHF1zVHzbbbfJ3LlzzRQ+01966aWCb+TCKXzm4YtK9BS5t3zmSSR7ft0sIYT2XP/++wGTZd/BbVK5/DHStsFlclyDS2X/wZ0y75vHZdUPh8wtVa1a1aQtiP3aie5L45UBZUAZKIwMBGpRFwh0uNKaC5buu+8+s2LarjJmnBedOnWK8DOuVq1aDrZL5Qj35ovnxsgzV/nilcdw7ypvv3TRcVycFu8+uLIa0/Z53tboNtBfMaMeUDdmXfhO7+DlIWZcrLI0LLL/Kh/Kh/YB7QNRfSBYq6xt4+666y6zmpqKGaM+B6PffP3h50uAn3DrkW1rcb3yubzwwgvFnofi+vz1vlWZaB/I2z7AD68cIcv4KVlS4nb4VFwGOFUeT5YtWxYvSsOVAWVAGVAGlIGUGQjcKuuU7yCNGVTpppFcLVoZUAaUAWUggoHALeqKaF0BeQrS2lMB3XLK1Z5ftZrUDi+cSzmzJ0P/aqktovNkVacyoAwoA0WKgcAqZG5dotUlnFKV74SzXru1KN8rT0OFPPLEHkXidR9OVU9k1Zc25TIOpwiT97G69aVlEuV42+11H3YDtABlQBlQBgLCQCAVslp7ytvewYcctqIoXnfe1pLe0rzt9rrTW6uWrgwoA8pA/jHA37ZASWGy9nTGGWe4lqNo8ckeVkLLTj179szBq7X45GclKl0WnXI0JhzwRfPWcmedurKixXGyqmVbubT6oSnkFhi5Mj677Ykmvmfl0L5jW9al1WvK2tbHywbgqlqZNlj88nWsWEmWoZ5NbU6QZ49p6OY5s3IVWYC6vMJ2PVO/kTdI3cqAMqAMFGkGArUPuTBZe6LxC1qiojEMGnWgNGvWzOH+3OjtQL169TLx6ElmG1c8K1HpsOh0Buq8GGDdXjf9UIzOmlbtnLMqV3HuzzrG+BlOQHE6nzVt6fylYiXn+fqNHChmB9+NTRzzQRk7UNIOFKeJSybf4uZtnHcaNTVlzmzWyuTDlLVb5rlVqhq3bdsl1WsYv7fdXretU695u/1C+VQ+tQ8USB8I1j7kwmLt6eSTTzYKdvjw4UZh4IQv48cxmc7s2bMdGMgw4VS8/fv3d8aOHWsUNTs59+/GshKVDotOif6pqFj/cXTIvGP1UqWMgmyekeEcW7ascXetdJSrIKmQrYJkvruzDh3AQn/vqtV889X0lM92YVQcoZCp9P/buKmp75wq1SJeDhLdh8YXyI+H2zeUf+Vf+8Dh94HAbXsqLNaecAIX+p/IRx99ZK6wU2zOxObRljRuMWLECLMojVaccIiIOeLSu40qlpUoWnKi5KVFJ1Nggj9L9u4xKbYdPGiulUsegTO0Q9anvvp1r5v7Z8TXKVXa9S+DoQ8raw7slw4ZFWRb2JJVrHztK4Qsb62AhSvK156y6R+3batMbNxM8GIgA6tWl0k7f2GwijKgDCgDxYKBwH1D9lp7at68uXkIqVh74nddnh1NwwuUVKw9MX2y1p5gv5jJ5aSTTjJX/uH52TSOMX78eOE53IMHDxaMhE2aRo0aGUVtE2M4bZ3u1WvRqWnTpmJx5ZVXumnoiGnRaRIiovFWRLaUPNt+CynnRmXKuvmqQlFme0xHNixTxo2jov4SCtYv37KwAq4fLrOhp2wWNHv3LtkGQx/Da9SWU/GtedxP2W75iRy0PAX704LjVBMl1XhlQBlQBgLJQOAUcmGx9sRRMA05jBo1yhh8eOutkPabMGGCcCR8EKNJvlDQXCJHyRkZGfLmm2/6doJ0WHTyrdAnkqPY/TByMQzKkXJDZh1znbk7ZGeanj5HVRUqV+5JrnDEETJt1w7xy7ceC984yh5Ws7YZBQ+tUcuU6f3z/PZtcg3imW72rkN1edPEcqvlqVisaJgyoAwUJgYCp5ALk7UnTktz6nrt2rXSp08fefvtt2XatGnm+a9bt06wuEs4kl60aJFR0Piu7PYNKnOvWH86LDp564nljmxJaEUX013+w1rphpEqV1mPrHW0PLB5o6zyTFPvxyh/PlZGP1OvobwORboJo9tE+e7cslEG4zCQFVhpXd8z/W0y4s//hUfFL6O8VEQtT6XClqZVBpSBoDIQqFXWIKnQWXvCVq08X9ySnxadyLkfGpQp6xsfL69fvjplysQsE9uizEKvePHx6lLLU/7PMB5vGq68aR8IVB8I1ipr2znU2lOgOklM5WmfVV5dH67XwGyleqFB45Tr48r16K1medUuLaf49UV95vrMC6IPqLUnsB5P1NpTPGbSEz4qM0t++O2AvJy9NT0VaKnKgDKgDASYgcBtewoSV95tSkFqV1Fty92bNhTVW9P7UgaUAWUgIQOBW9SVsMX5kECtPeUDyVqFMqAMKAPKQAQDgVXIau0p4jkdlsdrHcnrZqGrsNqZq6gtPjw2tPebcd60XjfjVJQBZUAZUAbyloFAKmS19pT3D9nP2tM9m3+UE1d8ZTBw3bdu5ewcfvnchOpQBpQBZUAZOGwGAqeQC5O1JxiCkMWLF8vvOECDB4E8/fTT7gPJrSWo/Lb2xAbzuMt1+/cZbMV9qCgDyoAyoAwUDAOB2odcmKw90ZoEjUfglChnypQpxrgEHqHZspNbS1D5be0JU9Zm3y8NR9ASU4cKFd0tR16rSl63vUe96tYQ7QPaB7QP5GkfCNY+5MJi7YmdkALjEq4C415YnKfs5NYSVEFYexpYo6ZzXEZ5h2YP5zRr7cyDUtZ/sDz9B1M+Exw8o/1N+5v2gVAfCNy2p8Ji7QkdyMi8efOsUziFbaeqGZiqJag2bdqYsvLT2pPd87sUFp+2YOp6YqOm0qRcOVntOSLTvUF1KAPKgDKgDKSNgcB9Qy4s1p7sE2nZsqV1Cl8mFi5caM6vZmCqlqAK2trTLnwLp9QrfciKkwmI80ctLMUhRoOVAWVAGcglA4H6hvzNN984r7zyioNRorNv3z4HCudECoAAAAxeSURBVNrhVDAF9+d88MEHxs/vtvT37dvX6datm9O+fXuTZuDAgQ62TDkrV640fphhdKcMWY7Xz/wE65gxY4bJt2rVKpMPJh/dfDZd9JUJ+c0XJhude++91+Rr3Dh07CMWepk2wD6yA0tQJq5z586mTH53ptSrV8/ht2YKz65m+Vgc5rANGC0bP9vbvXt3ty3x7iG6bcn4YanJ6V21mim7WUaG806jps6mNie4dSUqA6YlTdsnTpyYdJ5EZWq8Tl9qH9A+UIz7QLC+IQ8dOtQopTp16pgf+csvv9woq169erk/+itWrDCKgH+ooGBpycTNnTvXDcdo07ivueYaNx/Tev32ocPClJuP37ApySpkGjWwMnv2bLeu66+/3n2RYDzMMrpxq1evdnbs2GH8s2bNMgvDbFv69etnXhBsmVTsgwYNcvPGuwebP5Vru/IV3AVdXNS1ofXxTs/KVd26EpXFlxjK2LFjk86TqEyN1x9j7QPaB4pxHwiWQuaD4Eprjlrvu+8+55RTTnGysrJi/uDDGH2O8Fq1apmRZ24eqB2VJpuXymj48OFmZB2vjbm1BJWf1p44Uq5XNnWLTmphSX84k/1f0XTaV7QPJNUHgqeQ+eAKg7Unq5CLa0fjaF0tLCX1T5bjxbG49hm9b+0v2gfi94HArbLGwzJy2223CVFQsmHDBmndunXc6ml44pxzzpH58+fHTVPUI0qWDNyawKJOud6fMqAMFEEG2t/0gLmrwCrkIHCeyNrTeeedF4RmahuUAWVAGVAGigADOsSJ8RDzy9oTFo4JFnHFaEHwg0aOHCmYsja4+uqrg99gbaEyoAwoAwFnILAKuThYe6JSw8K1HF3k4YcfljfffDNHuF+A1xqT1+3N07Jchtdr3N60XneOhFEB999/v9gp67Jly0bFqlcZUAaUAWUgVQYCqZCLi7WnwYMHS48ePXI8sxNPPFH+9Kc/5Qj3C+CD9LPM9HrDJjK9aUtjbtFbTqJ83rTqVgaUAWVAGUgfA4FTyIXJ2hMOIxGermWnbrGn2H1S2M8sOKTE9e/Zs0fOPvts4+dU9e7du4XfqJ999lk3zZAhQwSHoQi2cwkOFDFu+ps1a+amya3j9EpHmaxVS5WSkypUTFzM/UjyMnBS4qSaQhlQBpQBZeDwGQicQn7yySfliy++kDfeeEPef/99Y9bwoosukmOPPdbcLU0cXnjhheac6K5du5qp3dq1a5s4HLYhw4YNk1NPPVVmzpwp99xzjzRp0sRliUdbXnnllYJ9zoLDNmTOnDkmjnVu2bJFrrrqKsHpWW76RI6nnnpKypcvLziBS3r27GmOzbR5KleuLNWrV7deycjIkCpVqhg/z7jmPXz//feC/ctumueee07OOusswcEnsnXrVuOmH6eOifwLyZbHwJRQdurPASGneN3hIJm9Z7dx7sR51XN277LBEWkj8r2HJNTbLwGzgWsAFWVAGVAGlIG0MhCoozMLk7UnngaWnZ3tYHo5xz5T7tGl5Sc8OQPuWR4wYIDrZ/i0adOcdevWRYQx/PPPP3dYts1rrsegnI4x0DpUfkTacJ0MOw9HY/IUrmjcW/eYyPI9eSLKqoHybwLmAsuBewBPWt4nTyXzhqk7kiPlQ/nQPqB9wK8PYNuTQwRuhGytPV188cUyffp0GT9+vOD4TNxLSBjvnRq24bx++eWXZgoZx2OaUSvDKlaMnJ7FucsMdqV3797G/emnXNIkAiVprsn8ufbaa83CJhzZKTSKwW/faZM9KHlLDPzsX+NV1WvFTDCkWs2Y4TkCsxGyAPgGYG9pDKgoA8qAMqAM5DkDgVPIVGx169Y107/Nmzc3N8xvrlZgjEHatWtnve4VBh7MQR40f5iZmSkwymDi7Epgm5BTwV6ZOnWq8fJ7MIXlJCuTJk2SatWqmfbAIISMGjXKzYozqN0pan4XT0UwmHZXMLv57oBrUgy85aaI6Zi8a4cbvhDT1rvDFp2m7zwU7ibwOjiTzveLhcATwD7gYqAvoKIMKAPKgDKQ5wwETiFv3rzZfDt94IEHhN+GqaAfeeQR98Zh0MAscoK1JxMGa08Ca09SokQJ44dRCuGWqccee8zN4+eguURYXxJuNWK+m266yS95RNzo0aPNN+AlS5aYE7uohK38+OOPwraxPSw7FeH3b+aLUOTDUUKzGOjkX/LDm36UzquXS/Ovl0g5nKx14sqv5JxvV0qf71b7Z/wHok8HXgRaAFcAVM4qyoAyoAwoA2ljIFDfkAuTtaeNGzfy07Cx6kSTilC87rfUESNGOLTUROH3YEr//v1N/Jo1a4zf+4dmHPGEDWjpinn4fZaSqtELW0709URYd4oOO1y/fkPWb2OH24c0v/ah4t4H7Ddk8BA84xKFxdoTuaO9Y9pijtehsMo7bly8PIUhHLMD7vvE3//+9yJ5j4XhOWgbVZlpHyj8fSDQCpkdrDBYe9J/hML/j6DPUJ+h9gHtAwXdB6xC5odXTlnL+ClZUuJ2+FRcBlq1auW6ox2JDE9Ep1e/MqAMKAPKgDIQiwEoZBOs1p5isRMOKyxKF3PHce/CLnaLm0AjlAFlQBlQBgLBQHiVtWPmLNLRIm5Batw4/zavpqu+VE7wsjymqy22fHulQo4Hm0avyoAyoAwoA8FmIKSQ4w+wct16btvZuXOncPvP6tWr5ZdffhGc6JSwPJ7njJW7OTBmzBjfvLmtz7dQRJ522mnCvc84UUu4renGG290s3A/9OzZs024Od4yHJOutrgVq0MZUAaUAWWgSDLgXPj5D84f/8zbD/tcffzxxx872EvrYH+v8/XXXzswlJDUalyuWrZ44oknzPYfjLJ98x5OfXiqccv+6aefnB9++MHcA7crcSuTTQ9FbY7O5Jalb7/91g1PV1tsvdFXbj2Kh+i06o//rJUb5Ub7gPaBgugDdlEX6sairjQo5Oib4jnOVBpdunRxFVd0mlh+nIBlFGKsOL+wVOt76623nL1795rV3bZcWFkybYZBCtNmKl7ew6233mr8GD2bK0bHEQrZ5rfXZNvywQcfODhkxDnvvPNS4iieMma4bYNe9YdG+4D2Ae0DwewDViGbKWv7q42HlTahdSNO+dqjKpOpiJaQ+P3Za6IwmXxMk2p9Rx99tJQpU8acDmbr4CprfpuFsQd5/fXXzdT1wYMHXQtSn332mU3qe022LbT2xLO6J0yYILRcRStUyUi878cMV1EGlAFlQBkoHAyEvyGn94e7V69exhbw/ffTwF/yQmMNVCrYk5x8JqTMTX2vvvqqvPfee/K///3PrYuLsih8MaBSJX6D+UKvWUXGW4VId7Sk0pZ3333XvIDwCE+25ZJLLjH1RRvEiK5D/cqAMqAMKANFgwGnz4z1zu95/A0Z1JiBN78FY1TpYGRsB+JJX7EozIFt5KTTs87Dqc+22V4vuOAC880YC9IcTicznN/BX3755Yg2wX6x880330SEHW5bLr30Umfp0qWm/uXLl+co27aRV37XjgdvOnUHc7pKn4s+F+0DxbsPRExZozMYNnjNS2nYsKFwWpeWkPDtOEfRL730konv169fjjiOLDMyMuShhx7KERcvX6L6chTkCTj99NPlH//4R4S1J+5D5ui3dOnS0qNHD6lVq5YceeSR5n48WWM6c9OWFi1ayDvvvCN79uyRcePGGcMaf/3rX4XhfmJH6LGufvk0ThlQBpQBZSBYDGCE/L3z2+15/4bCkSW+hTpdu3Z1OnXqZIBbd0d727dvdzAF7OAbsRtm4+fNm+dwhGz93mu8fInq85YR7cZ34phtyc7OdrB1y7Tjv//9rxnt27yYynY6duzofP/992bhGd00DMH43LQFlqxMPq4st3UkcyWH8ZBMfk1zqE8qF8qF9gHtA/ndB+wIOXRSF37+qQHyUmjDuHz58qbIyZMnu0XDEEHEYiU7qnMThB3c48vFTfEkOl+y9cUrDyuSY34Lvvjii4XfcLmYi3LHHTRMHBIoTvNt3Po5G8Bv0GPHjk3q3m0+ez3//PMFLwDWm/SVXKgoA8qAMqAMFG4GzFnWfT5bJ69PrS+lDumawn1XaWj98ccfL4sWLUpDyYdfpH1ZiFVSqVKlYgVrmDKgDCgDykBAGMAI2bTEjJA5vtIxlv+TCaoyZqt1hOz/7DRWGVAGlIHCwMChbU+qkQvD89I2KgPKgDKgDBRRBlxrT6qPC+8T5ipwFWVAGVAGlIHCzcD/B2m/K8PPuqFzAAAAAElFTkSuQmCC;" parent="1" vertex="1">
          <mxGeometry x="50" y="250" width="484" height="201" as="geometry" />
        </mxCell>
        <mxCell id="qgleAZx9od4PJ5vfA43V-3" value="" style="shape=image;verticalLabelPosition=bottom;labelBackgroundColor=default;verticalAlign=top;aspect=fixed;imageAspect=0;image=data:image/png,iVBORw0KGgoAAAANSUhEUgAAAfMAAADKCAYAAACxDamaAAAYTWlDQ1BJQ0MgUHJvZmlsZQAAWIWVeQk4lV3X/77PfI75HPM8z2Se53meZxKO6ZjiGEOJJGOiQkglGSuVQiUiDUoZekiSSIZKoaJC9d2Gep73ef/X/7u+fV373r+z9tprrb3WHu51bgC4qnwjI8MQjACER8RQHUwN+N3cPfixcwACSMAElADJlxwdqW9nZwXg8rv9z7IyDHPD5anMhqz/7v//Fib/gGgyAJAdjP38o8nhML4KAKqcHEmNAQCzQReKj4ncwHAFzFTYQBhnbuCgLVy+gf228KVNHicHQxh3A4Cj9fWlBgFA3w/T+ePIQbAM+kW4jxjhT4kAgAUFY53w8N3+AHAZwTziME8kjDfmoeb3DzlB/yHT749MX9+gP3hrLpsFZ0SJjgzz3fN/dMf/XsLDYn/rEIUrbTDVzGFjzrDfRkJ3W25gWhjPR/jZ2MKYCONvFP9NfhgjCMGxZs5b/AhucrQh7DPACmM5f18jSxhzw9gkIszGapvuF0gxMYcxvEIQCZQYcycYs8M4MyDa2HGb5zR1t8O2LkRzINVQf5v+wJe6qXdD13hsqLP+tvxPwQHm2/KR9InBTq4wJsBYOI7iYgNjehjLRoc6Wm7zaCUGG9r85qHGOmzYLwxjh4AIU4Mt+ci4QKqJwzZ/dnj07/kiTwdTzG228ZWYYCezLf8gu8m+m/bDc0H2B0ToO/+WExDtZvV7Lv4BRsZbc0fOBUQ4O27L+RYZY+CwNRZFiAyz2+ZHCQaEmW7QBWGsFB3nuD0W5RIDL8gt+ajAyBg7py07UYkhvhZ2W/agjgArYAiMAD+Ihasf2A1CAOXJfMs8/GurxwT4AioIAgFAZpvye4TrZk8E/HQEieADjAJA9J9xBpu9ASAOpv/4Q916yoDAzd64zRGhYAbG4cAShMG/YzdHRfzR5gLewBTKf2n3hSsZtjcMrhv9/2/6b+rfFH2YYrVNif2tkZ/hNyfGGGOEMcOYYCRQnCgdlCbKCn7qwVUBpYZS/z2Pv/nRM+gB9Gv0EHoC/XwXJY36LyutwQQs32TbF37/9AVKFJapjDJAacPSYckoVhQnkEEpwXr0UbqwZmWYarht94ZX+P8l+z9m8I9obPPh5fAIPBteDy/+75H0kvTKf6Rs+Pqf/tmy1e+Pvw3/9Pxbv+E/vO8Pt5b/5kRmIpuQ95GdyB5kG7IF8CM7kK3IXuStDfxndb3ZXF2/tTls2hMKy6H8l77fkd3wZLRcg9xbufWtvpiAhI0zGhjujtxDpQQFx/DrwzdCAL95BFlWml9BTkEJgI37Zev4+uyweW9ArH1/08gHAVCFz2f86t+08M8AXIL3Pr/13zQRb3j7YQConSHHUuO2aKiNBxo+JRjgncYBeIEQEIfnowBUgCbQA8bAAtgCJ+AOvGHrg+F1TgXxIBmkggyQA46A46AUnAJnQS24AK6AFtAGOsE98Aj0gyHwAl490+A9WAQrYA2CICxEB5EgDogPEoGkIAVIDdKBjCEryAFyh3ygICgCioWSoQNQDlQIlUJnoDroMnQd6oR6oAHoOTQJvYU+QasIJIIWwYzgQYgidiDUEPoIS4QTYiciCBGFSESkIw4jShCViPOIZkQn4hFiCDGBeI9YRgIkDZIVKYCUQaohDZG2SA9kIJKK3IfMRhYhK5EXkTfgOD9FTiDnkd9RGBQJxY+SgVewGcoZRUZFofahclGlqFpUM6ob9RQ1iVpE/UTTobnRUmgNtDnaDR2EjkdnoIvQ1ehr6LvwXppGr2AwGFaMGEYV3ovumBBMEiYXcxLTiLmNGcBMYZaxWCwHVgqrjbXF+mJjsBnYE9jz2A7sIHYa+w1Hg+PDKeBMcB64CFwarghXj2vHDeJmcWt4RrwIXgNvi/fH78Hn46vwN/B9+Gn8GoGJIEbQJjgRQgiphBLCRcJdwhjhMw0NjSCNOo09DYVmP00JzSWaBzSTNN9pibSStIa0XrSxtIdpa2hv0z6n/UxHRydKp0fnQRdDd5iuju4O3TjdN3oSvSy9Ob0/fQp9GX0z/SD9RwY8gwiDPoM3QyJDEUMTQx/DPCOeUZTRkNGXcR9jGeN1xmeMy0wkJnkmW6ZwplymeqYepjkilihKNCb6E9OJZ4l3iFMkJEmIZEgikw6Qqkh3SdPMGGYxZnPmEOYc5gvMT5gXWYgsSiwuLAksZSy3WCZYkayirOasYaz5rFdYh1lX2XjY9NkC2LLYLrINsn1l52LXYw9gz2ZvZB9iX+Xg5zDmCOUo4GjheMmJ4pTktOeM56zgvMs5z8XMpclF5srmusI1yo3gluR24E7iPsvdy73Mw8tjyhPJc4LnDs88LyuvHm8I7zHedt63fCQ+HT4K3zG+Dr53/Cz8+vxh/CX83fyLAtwCZgKxAmcEngisCYoJOgumCTYKvhQiCKkJBQodE+oSWhTmE7YWThZuEB4VwYuoiQSLFIvcF/kqKibqKnpItEV0ToxdzFwsUaxBbEycTlxXPEq8UvwvCYyEmkSoxEmJfkmEpLJksGSZZJ8UQkpFiiJ1UmpAGi2tLh0hXSn9TIZWRl8mTqZBZlKWVdZKNk22RfbjDuEdHjsKdtzf8VNOWS5MrkruhTxR3kI+Tf6G/CcFSQWyQpnCX4p0iiaKKYqtiktKUkoBShVKI8okZWvlQ8pdyj9UVFWoKhdV3qoKq/qolqs+U2NWs1PLVXugjlY3UE9Rb1P/rqGiEaNxRWNBU0YzVLNec05LTCtAq0prSltQ21f7jPaEDr+Oj85pnQldAV1f3Urd13pCev561Xqz+hL6Ifrn9T8ayBlQDa4ZfDXUMNxreNsIaWRqlG30xJho7GxcajxuImgSZNJgsmiqbJpketsMbWZpVmD2zJzHnGxeZ75ooWqx16LbktbS0bLU8rWVpBXV6oY1wtrC+qj1mI2ITYRNiy2wNbc9avvSTswuyu6mPcbezr7MfsZB3iHZ4b4jyXGXY73jipOBU77TC2dx51jnLhcGFy+XOpevrkauha4Tbjvc9ro9cud0p7i3emA9XDyqPZY9jT2Pe057KXtleA3vFNuZsLPHm9M7zPvWLoZdvruafNA+rj71Puu+tr6Vvst+5n7lfotkQ3Ix+b2/nv8x/7cB2gGFAbOB2oGFgXNB2kFHg94G6wYXBc9TDCmllKUQs5BTIV9DbUNrQn+FuYY1huPCfcKvRxAjQiO6d/PuTtg9ECkVmRE5EaURdTxqkWpJrY6GondGt8Ywwy/yvbHisQdjJ+N04srivsW7xDclMCVEJPTukdyTtWc20STxXBIqiZzUlSyQnJo8uVd/75l90D6/fV0pQinpKdP7TffXphJSQ1Mfp8mlFaZ9OeB64EY6T/r+9KmDpgcbMugzqBnPDmkeOpWJyqRkPslSzDqR9TPbP/thjlxOUc56Ljn3YZ58Xkner8OBh5/kq+RXHMEciTgyXKBbUFvIVJhYOHXU+mjzMf5j2ce+HN91vKdIqehUMaE4tniixKqk9YTwiSMn1kuDS4fKDMoay7nLs8q/nvQ/OVihV3HxFM+pnFOrpymnR86YnmmuFK0sOos5G3d2psql6v45tXN11ZzVOdU/aiJqJmodarvrVOvq6rnr8xsQDbENb897ne+/YHSh9aLMxTONrI05l8Cl2EvvLvtcHr5ieaWrSa3p4lWRq+XXSNeym6HmPc2LLcEtE63urQPXLa533dC8ce2m7M2aNoG2slsst/LbCe3p7b86EjuWb0fenu8M6pzq2tX14o7bnb+67buf3LW8++Ceyb079/XvdzzQftDWo9Fz/aHaw5ZHKo+ae5V7rz1WfnzticqT5j7VvtZ+9f4bA1oD7YO6g51PjZ7e+8v8r0dDNkMDw87DI8+8nk2M+I/MPQ97vjQaN7r2Yv8Yeiz7JePLonHu8cpXEq8aJ1Qmbk0aTfa+dnz9Yoo89f5N9Jv16fQZupmiWb7ZujmFuba3Jm/733m+m34f+X5tPuMD04fyj+Ifry7oLfQuui1OL1GXfn3K/czxueaL0peuZbvl8ZXwlbWv2d84vtV+V/t+f9V1dXYtfh27XvJD4seNn5Y/x36F//oV6Uv13XwVQMIVERgIwKcaAOjcASDB+RnBcyv/2y5I+OUDAbcukCz0HpEO36h9qAy0CQaJeYQtwUXgrQgSNFiaedpBuhb6GoZqxkamVmIX6RFzP8sI6yu2Ofb3HEucq1w/eBC8WD4CP50AUZAoxCrMLsImyi7GLc4jwS/JLyUoLSwjKiu2Q1pOTl5RQUVRQ0lX2VjFXNVczUTdRMNE01BLX1tLR0NXSU9WX9SAx5DZiGD0y/izyYzpc7Ne8zaLWsujVinWITZutsZ2yvZiDlyOjE44Z6QL5IpwQ7njPRg9ObyEd8p4S+wS9uHz5fRjIZP8iQGkQNYgrmBBinSIaqhJmEs4JSJ5d2FkVdRpakl0QUxubFZcdvzhhJI9tYntSS/2gn3SKbv2n0h9cUAwfffBzkOYTKEshWyDHMfcwLzEwwX5tUduF4wWLh9jOi5TZFEcWHLgREXp9bLB8jcnl09hT3OckazUOmtb5XcupvpgTVFtbd31+ocNo+ffXfjeiLvEdln8im6T+9Woa1nNJ1saWzuu99zou9nf9uhWV/vljrLbKZ27ujTuEO/MdF+/W3+v/H7Og4Qev4fmj2R76XvnH999Ut4X2W8wQBqYGrzyNPUv+yGRYdTw22e9I43PC0djXriMqb3kfLk+Pv6qc+LcZNbr3VPOb7SmheFVtjL719zVt8XvUt6HzZM/kD9GLuQsXlta+Kz35cwK6WvJd6nVJ+spPzV+/fpH/BWQc6hCtCWGBfMS24TLxQcRjGgkaRlo1+lm6UcYRhhfMb0hfiB9Zl5h+cG6xvaD/SfHD84Vrs/cCzwzvGN8g/x3Ba4LVgvlCIeJWIlKiuHF3on3SNRJZktRpC1lZGTpZBd2DMhdlS9WSFYkK9krG6goqAqoEdV+qX/UGNPs0WrWrtTJ1Y3X89G3MFAw5DRCGL01fmJyybTALNrcyULFks1yzeqV9R2betsCuyT7QAdHR30neWcBF5Ir1nXV7b37mEev5y2vxp2nvY/uOuST7Ev1o5B9/T0CnALtg2yCLSmWIWahmmGy4QIRLLtpIhGR61HfqN+jf8Si44jxQgkae5wSo5OKktv2zqTQ7OdLlUnTPmCT7ncwPiPvUHVmR9Zo9tdc5jyFw/b5EUfyChoKHxx9c+xXEWexcondidDSg2WnyltP9lfMnfp5hrlS4qx2ld05cnVszaHaEvic621YuEC8qNjoeCnqcv6Vhqbuq2PXPrVgWjmuS97QuGnR5nYrsD2mI+V2aueBroN3MroP3c28l30/90FeT97DvEd5vbmPc55k9R3qTx9IHdz7NO6vqKHdw5HPYkaSnh8cPfqicqzp5b3x568+TILXxCnBN/LTOjPms35zp99+eK88n/Sh/ePPRc2luE8XP79ZZl+x/Jryren77Br3usOP7J/d2/E3RugjdyA/ojrRhzCOWHHsEu46PoPgQMNNM057li6cXp0BwdDJmM5kQWQg9pOOMNuyMLA8Zs1mM2GH2Fs5IjiFOEe4crh1uD/wlPGa8X7hq+A34/8ocExQQ3BMaK8wv3C7iLfIumiJmJJYr3iA+LrEUUkpyQ4pR6kZ6VQZEZkR2dwdBju+yNXIeyrQKXQoRioJKA0qp6koqEyq5qtpq31QL9Mw11jWPKtlr/VTu0HHXRere02PrE/Uv20Qachv2G+UZqxkPGtSamoLv3fcNI+ykLJ4Y1lh5WHNav3UptDWwY5kN2x/wsHbUdjxndNl50QXY1cG11G3avdoDwNPWs9hr1M7g70VvNd23fUp8PXyk/BbIXf7Hw3wDVQMQgUNB9dTUkKcQqXD0GGvwm9ElOyOj3SN0qDyRqOi52OGYjvjGuMrEvL3pCbGJ4Um++/duc8txWm/Q6p9mv0Bh3Sng+4ZOw8FZIZmRWen5GTmFuZVHK7Lbz5yp2CgcPzox+OoIolir5IjJ+6WrpXLnvSrOH7q4en1SoWzAVWl5/pqULVadfH1jQ3vL0heDGmsv7RwRaVp/9XeZo6WsNbuG3w3U9pet1t1tHXKd53vlrp7+b7Bg9GHCb18j/v78gacnooOgeH3I29G370Er0Qmd03Vz6DnEt+DD1WL5M+6K2rfnddLNuK/9T/gRsGoAHD8EAAb//M41AGQex4AsT0AsMG5px0dAE7qACFgCqDlLgBZaP+5PyA48SQAEuABkkANmMH5ZRicUxaDRtADpsAPiB1ShhyhaOg41Aq9hHM+aYQLIhXRiBhHMiANkPHIC8gZOEvzQpWhXsCZmA/6HPoDRgWTinmC5cGGYztwJBwF14nnxMfiBwmKhGLCOg2Z5jGtOm0tHTtdLj2CPon+K0MswwpjIhPElE1kJVaR1Ej9zCEsWJZzrMasM2yZ7FLs/RwxnByc7Vz+3DTcV3g8eJG8F/g84YxgQCBf0FaISeipcLGIp6iA6IzYefFoCQ1JSLJHqkDaE16di7KDO9rkquULFfYpUpQclTVU+FQh1Qm1NvVjGiGa2lr0WmPadToxurp6OL0B/SaDq4YtRjeM203umPaY9ZkPW4xbzlotWa/Z4uxY7UUd1BytnMjOyS4lru1ucx4kT32vyJ2V3kM+BF99vyRyq//XQLWgpODOEEKoc1hV+PJus8iKqIVorZic2PF4pYQje5aSXJPv7dNOaU+1TJtKz8rQzgRZAzmX8srzCwvMjiKP3S0qKAkoNSyXrhA8LVKpVGVTHVVbVv/oAmhUvWzT5H4tuCX5+vGbV24Ndqx08Xab3Yt5cPrhk94ffTIDO58eHro9Qholj10Yn5/knlKb1puVf0v/7tn84Y87FjqXzD51f1FYLl1Z/Wb//dzq0rrGj5SftzfPj634E+H4SwBVYAJcQQjYB46BBtANxsE3iATJQTZQBHQEaoKeIwBCAs7y0xCXEa/hPN4KmY7sQK6htFEHUL1odnQguhmDx3hjmrGM2DDsI5w0Lh+3jPfC3yPIEoppkDRRNJO0zrQP6Qzp2um16G/BWewDRnvGcThP/UU8RpIlPWaOgDPPVlZfNhq2VvZADlaO+5x7uKS5JrmLeWx5cbxdfPv5DQQwAo8Fi4R8hWWF10V6RSvEosSNJbgkPkk+lDornSLjKau5Q0KOXR4vv66woDil9Ez5ocpN1fNqpeqHNKianlqG2pI6jDrLuqN67fqNBpcNm4xajG+adJh2mz0077d4ZvnKatZ6yWbNDmfP6iDmqO5k7ezvste11O26+6jHDy/BnRbeMbtO+/T5QWQV/4iAusCZYFFKSMjl0NVw04ii3XNRWtS90R2xqDir+OKEmUT1pMPJs/uMU2pT6dP2HJiFz5P+TIus+zlmub2HHfInClKO8h67XRRYQn+itcz/JKni3um9lSpnP527XBNbp9WAOT908dyl5CteV1Wa6Vumrl+9eeCWTQf77cmuum7qPa0H2J7hR3WP9/d5Deg8FRliGn4w4vx8+kXiS+bxKxNOk+tTtdPuswxzPe8y5y0/Mi48Wzr9OWRZ5SviW99q2XrQT8Xt+CMBBtBungDiQAVeAW4gHBwEp8BNMArvf0HIAoqFqqBhBA3CCN75XUgc0h55CvkJZYGqQePRVPQrjBO8222wQzgy7ju+iKBOmKY5QatHO0aXRM9P38MQzyjJOMV0iuhHkiB9Zb7PUsGaxObJrschxcnORcON4F7nWeVd5wcCWPgNlEdYVkRb1EEsSHy/xAnJa3DevSjLuENBzlV+n0KVYp/SmoqEqrtaofqgJrOWu3aVzoKetn6ewSsjReMck0kzLfMii09WdtYXbGntwuwfOko65Ti/c7Vwq/fAe1K87nuL7jroM+1nSK4OQAb6B92hiIZkhM6FW0U0RrJEJVAnYoxiL8azJ+zb8z7JDd6nKik1qRxph9NRB5MzPmV6ZF3O/pXrlFdzePWIY8HFo4RjlOP3iqVKck8slLmW36oQPVUAn/3+Z3vPaVbX1DLVJdbPnHe80NYoein/8kqT99V7zTItR1oXb9jfvHiL0B7Y0d5J7Aq403wXdc/uftmDqYcSjyi91Y8n+zj77QcODl59+nqIMCz3zGGE+vzwaN2LO2NDL2fGl16tT0KvsVOYN5hpML0682F2fO7x29Z3le8z5yM+WH+UWsAuvFpsXcr65PFZ4vOnL23LaStGXzFfu7+lfNf8vrR6bs1jnbDe/IP8k+7nlV/uG/Hf+na0eX8wAnCaawMNXJrN+vd3m63vSv/ITf7dgs3bZaNs3C6bLXzTgP8B4nnQallXPXIAAABiZVhJZk1NACoAAAAIAAIBEgADAAAAAQABAACHaQAEAAAAAQAAACYAAAAAAAOShgAHAAAAEgAAAFCgAgAEAAAAAQAAAfOgAwAEAAAAAQAAAMoAAAAAQVNDSUkAAABTY3JlZW5zaG901Dd/9AAAAj1pVFh0WE1MOmNvbS5hZG9iZS54bXAAAAAAADx4OnhtcG1ldGEgeG1sbnM6eD0iYWRvYmU6bnM6bWV0YS8iIHg6eG1wdGs9IlhNUCBDb3JlIDYuMC4wIj4KICAgPHJkZjpSREYgeG1sbnM6cmRmPSJodHRwOi8vd3d3LnczLm9yZy8xOTk5LzAyLzIyLXJkZi1zeW50YXgtbnMjIj4KICAgICAgPHJkZjpEZXNjcmlwdGlvbiByZGY6YWJvdXQ9IiIKICAgICAgICAgICAgeG1sbnM6ZXhpZj0iaHR0cDovL25zLmFkb2JlLmNvbS9leGlmLzEuMC8iCiAgICAgICAgICAgIHhtbG5zOnRpZmY9Imh0dHA6Ly9ucy5hZG9iZS5jb20vdGlmZi8xLjAvIj4KICAgICAgICAgPGV4aWY6UGl4ZWxZRGltZW5zaW9uPjIwMjwvZXhpZjpQaXhlbFlEaW1lbnNpb24+CiAgICAgICAgIDxleGlmOlVzZXJDb21tZW50PlNjcmVlbnNob3Q8L2V4aWY6VXNlckNvbW1lbnQ+CiAgICAgICAgIDxleGlmOlBpeGVsWERpbWVuc2lvbj40OTk8L2V4aWY6UGl4ZWxYRGltZW5zaW9uPgogICAgICAgICA8dGlmZjpPcmllbnRhdGlvbj4xPC90aWZmOk9yaWVudGF0aW9uPgogICAgICA8L3JkZjpEZXNjcmlwdGlvbj4KICAgPC9yZGY6UkRGPgo8L3g6eG1wbWV0YT4KYIO2SQAAQABJREFUeAHtXQecFEX2fiA5KDlIkCQgSRBMoHIECfJHREUEiSroEfQ8FFERc+YMmEAE4wmInh4nikoSQSSKgAIqgohklSxJ+/99NdO9PbPdszPLzu40+97v96YrvQpf1e7rqq6ql0dELHA6umr+Znn7gsrpwjVAEVAEFAFFQBFQBFIDAVtX502N6mgtFAFFQBFQBBQBRSCzCOSLJWjdFytW4xQBRUARUAQUAUUgJxHoHi48pjJnmjz35GQ1s6bsIoXKm4wOHtqeNRlqLoqAIqAIKAKKQBIRuPfee53c3W4nEA73hDtDZe4WDJq71Mn1pG/rr6VA/lAzd+/fKgvW3CWrN74StKZofRUBRUARUAQUAV8ETmhlXqhACTlwaJt8ue5lyZevsDSve7u0P2uiKnPf4aARioAioAgoAqmAgN9s3K9ugdgA99FHH8nXX38tl19+uV87PMO37PpCXppRRRauuU8+XzVCfvl1ueQ7SaRKudae6TVQEVAEFAFFQBEIIgIpo8xnzpwpf/31Vzrevn27jB8/XooVKybvvvuu7Nu3T1544YWEsS5auKJULHkW8hf5ecfshOVVQBFQBBQBRUARSFUEUmaZ/Z///KfUqVMnHU67du2SOXPmyH/+8x+pWrWqPPjgg9KnTx+58cYbZfr06dK5c+d0Ml4B3VrMlrx4dfl0xT+9ojVMEVAEFAFFQBEILAIpo8x/++032bBhQzog9+/f74Rt2rRJZs2aJU2aNJEGDRrI6aef7sTFcnRv+ZmUL1lXFn8/RpZ//1SspBqnCCgCioAioAgEDoGUUeaTJ0+WFi1apANw7969cv7558tDDz0kHTt2lAIFCsjy5culU6dO8uGHH6ZLHx3Q+dypUq3cRbJ8/XiZs+Lm6Gj1KwKKgCKgCCgCgUcgZZT5BRdc4Avm/Pnz5cwzz5SJEyfKoEGDfNNFR5xRtbfUq3qlCS5zcn3p3nKecc9bPVy2/vpldHL1KwKKgCKgCCgCgUQgZZR5LPS6du0qO3fujJXEM65QgVJOeNWyzR338sKnOm51KAKKgCKgCCgCQUcgEMo8M4qcHfPVD88YDnonaf0VAUVAEVAEFIFYCKTM0bRYldQ4RUARUAQUAUVAEfBHQJW5PzYaowgoAoqAIqAIBAIBVeaB6CatpCKgCCgCioAi4I9AjijzihUrSq1atfxrlcUxySqPl9icqFS9enWpXbt2Qs275557pF69egnJJJr48ccfF/ankiKgCCgCikAkAha86fiq+ZstmFdLF+6VNt6wSpUqWbiO1bJpz5491i233JJhGQMGDLBFIp6jR4+OKZvZ8jJqT8uWLa1Dhw6ZuuAKWuu2225z6oELbawvv/zSYvi6deuccOZ5+PDhiPpv2bIlIj6jcrMr/ujRo0492V8jRoyIq55s87Bhw+JKm9m2sGLt27dPahmZrZvKZe3/C8VT8dQxEHsMUEdTV4dx8k6cDGVerVo169NPP7XOPfdcCzM/69tvvzUKLp4Oa9asmWXz888/b5QNZvd2Izyfx1NerDrhtjpr8+bNpg0//vijUdx2eip5XEFr4eY6a/369RH1ojL/97//7bQjo/rbeWb386677rKw6mDxZYgvJkeOHIloh199VJl7/y354aXhipeOAR0DxzMGckyZR1e6d+/eRim3bt06LmVhy3/33XdGmdr+eJ+Jljd16lTrjz/+sHAfvFO/unXrmjrjbngTRqVNGjlypPFz1s76cFbupcwzWk2IbgssxlmwGGfBYpxTh+g0fn7Oqr/66ivrzz//tDjbfvHFFxPOgzNtEpbPM5SlMl+4cKFZteCLy9NPP+3IzJ4929SBeRHTO++804n7/fffrU8++cRTrm/fviY9816xYgXFdWbusZLmNwY0XJWFjoETdwzYyjy8iu7d0GTMzKMH1f/+9z+jaKLDY/krV65s/qGPGjXKUQax0rvjEi1vwYIFpqyXX37ZKatbt24mjMpt0qRJZhZORfn66687aVimnzI3wvjhS0CPHj0iZNx1td1U4nwpIFE5w2JchjK2LGU4q7799tst3GlPb9yyXFqngqV89OcCO//oJxUu0/MFAMZxIlYs3nvvPYufSy688EKzOsO64Ju8qU8sOeK0ceNGa+DAgRZXREi6zO79NxvdH+pXnHQMnNhjICWU+WWXXWb+MbtnvfEMvFdeeSVCScQjwzSZKY+zb1hrs7p06eIowZtuuslRKFRCrVq1MjNH3BPvpGF5Xsr8mWeesWDlzcziuV8A985HyMRqC5e9+cJA5cZy+WISKz3jSB9//LGTjnLxftP+/PPPnX0B2HTm5BGrTOb//vvvm7T8jEJq27atI8vPHlzCHzt2rInjrJv5+cnxM4Q7D+6vIKkyP7H/QcUaYxqnfa9jIG0M2Mo8jElahBukZM7M+e2bS79z5851/tG7y47lpjLjd9xYaaLjjqe86LzsmTkV8YwZM0w9OBuNZ2buzste8reX5d1xfm4qv1WrVhmFtnbt2gwxYMIHHnjASccXCLdy9yvHHU5FTuLGPne4l5tK+dZbb3XSUa5Xr17Gv3LlSqO0t27dal50GDdkyBAT5yfHjYUku6zGjRsbvypz779ZGyd9Kj46BnLHGLCVOZ/ZfjStRo0aQsMpmLnK3/72N4y5SIJSFMwKpWfPnpER8GF2LUWLFhUeT4omP7mMyovOx+1v166d4Nuu4GXACYYyNe6CBQtKhw4dpHz58pI/f37THidRHA77itqGDRvGTM2jXliiFmysE6xKCL5FG4tx+HYfU86OrF+/vu2UYsWKybJlyxx/PA6sJphkV111lZPcD2smCOleJ6lxNG3aVNhO4sljZVjdMOF5aWA+TF5y+M5uYm38mY+SIqAIKAKKQCQCee4J+Z2ZD7yOO1kzc3735eyay6+wlGbYXS5nvCT3d2o7funSpdaBAwecOtrhfPrJZVSeO49ot9c3c6bht9tt27aZenC5mzNLW5bf9GHK1WzQ49EzurkrnKsD/M4P5W9xwx+/A1OOS8+2rNcTLz4Jfyu38yGObD+UoPXwww/Ta2W0g54rBY8++qjZzQ6b8WZDG+Vgctappx/WbI97GZ9ynJmz7SSuLHD5nasKJH6yYF395BjHjXTz5s0zcvx0QdKZedrfqd3X+lRMdAzkvjHgnpmj/70BSIYyx0zW/DOO/rGXW1kXW1GMHz/eUR52HflPH3bP04X7ycVTnp2315OKlBRdFyoT91ls92a8adOmRTfPfEfmd3c38TNDPOe3y5Yt69ler/pGh7E8G0+6udM8Ok20/4orrjDKlelJfPGaMGFChJydZzQu7B/3vQGUxwqLkV20aBG9hnicj2T3eyy5J554wqTlj26A8/5bje5D9StOOgZyxxiwlXm4v70bnQxlfqINMM54E20TZ6mZkUu0HKYnDR482MxquWKQSB6clcdzHC2RPLkqwY18icjYaRs1apQpOVten95/54qL4qJjILhjwFbmfAbCBCoGW0pSot+f2Qh8Ksj2tmzYsMEpE0pdfv75Z8cf7ejfv7+8+uqrsnr16uio4/Zv374903lgA12mZVVQEVAEFIETGQF+M1dlfgL3MDfOLVmyJKKFuLnObEaLCHR5kqHEXdmrUxFQBBQBRSCLEcDMXJV5FmOaUtnhwhnP+qjC9oRFAxUBRUARCCQCnJmnnQ0KZBO00oqAIqAIKAKKQO5GgDNzVea5ewxo6xUBRUARUAQCjoDOzAPegVp9RUARUAQUAUUgMDNzWA4TWA4Tv2/A2pWKgCKgCCgCikBuRSClZuYzZ84UXB6SjnmcCZeTmKtI3333XcGNZgLLYbm1z7TdioAioAgoAopABAIptZv9n//8p9SpUyeigvTs2rVLYE5TYL1McOGIwMqa9OnTR2DRTKZPny6wQpZORgMUAUVAEVAEFIHcgkBKnTPHVZ3ivtzE7gRcJ2o7ZdOmTQK73AILXoIbyuT000934tShCCgCioAioAjkRgRSamaOO9cFRknS9QPuAZfzzz9fHnroIenYsaMUKFBAli9fbiyHwYZ4uvQaoAgoAoqAIqAI5CYEUmpmDgtqvtjTZOqZZ54pEydOlEGDBvmm0whFQBFQBBQBRSC3IZBSM/NY4Hft2lVs+9+x0mmcIqAIKAKKgCKQ2xBIqd3sscBXRR4LHY1TBBQBRUARyM0IBOaceW7uJG27IqAIKAKKgCIQC4HAzMxjNULjFAFFQBFQBBSB3I6A3s2e20eAtl8RUAQUAUUg8AjkmDLfsmWLue2NR8+ylGpkaW5pmV2b5jxuV9lM5hBLLhlxGVWzNRIQlyoZJYyKjyXnF1c5Ko94vOWQ6NR4EmYiTTUfmWSV51OcBisCioAiQATy5hQMhQsXFl7PevLJJ0dWoSK8i8JBb+DZPTLa1/caYtaCefScz0vAWUnDkVnj48ywPuSXgT8Hfwu+AhwPxZLL6rh2qBDxi+broyo6D/4nwLyAjwoss3IQdSg6T0ZcA+Z4mAkmZleD46FVSMT8ZoMXgruBbVoOh7t9M+yIDJ7lEP9JWJYy9jilGPtyMZjlsey7wUqKgCKgCGQjAhbKSsdXzd9sYYdcunCvtJkJ+/33361Jkyalz78Pyvw8XO63eNaLow7PIc0q8LnhtB3wbBF2e7QtM/XFP38Lyjx9fRPJfx7kp4PLgd8Ds33xyMeSS0ZcTdTL5sFws+0VXXWtHA6r5gpjO2wZPhORo6xfnuzXx8BM8xQ4Xsy6I21ZcGnwOPAKMPMgLwffAbbr626bncbr+R/IfAGuC2Z8m/CT7qXg8WH/ADyJ2alhv1deGpbWH4qFYqFjIFNjgDqaupr/j3JsZo7CI6k1vF+AbwOXBnPWw9q9DP4/sJtqwMNZ4X/DgW3x5Czenilx1rQgHPcUnpwpcSa2FHwV2E0scyiYs2WmeQdMYn2YnrPBV8FuqgnPe2DGkV8Au2kUPJTt4wqsBHc58LPgHWDOZtm+q8ENwUx/HpjEdKxXb3AsuWTEoUhZ7+JWYfdWRoCI0wfGJfIunsvAxJ+UWTm/PC9CnvnBxIw0GkzMrqAHFKtvpyB+J/hX8EfgQuAqYJsYZ9fXbhvj/PIsg7h64JFgjhPSrNDD/BbDL1cASJydk2qFHvqrCCgCikCyEeC/xtSg1ajGQ+A84DfBG8E/gRn2FZjEpdIZ4A/BzcBvgfkPlrQg9Ej3uw8hw8BUAHPB94Pd3zVLwP93MF8EBoEXg0mPgH8B3wKuAXbTCHj4dYD16Q1eBXZTBXj4z720K/C0sPsbPO8EHwQfBVcFU/4z8Atg0gTwH+A3wLHkkhGHIh2iAmsAZn/YdAMcD4c9xKsfmEvgbkpUzi9PKmLSKaGHsK9IfIkh7QMPA18BnguO7lv2D1/67gWvBP8MtulWOKiU2e98abDJL097DFyNhJTjeOsHtmkGHMSDffsSeDt4HlhJEVAEFIFsQCBvNpQRXxE7kGwJOB+YyoLKkDOq6eCW4FXgUeDV4EvBnDFOAXMWS9odeqT7pcwKMJXSpnBs3fDTfnB2yX/us8GPg/ndngqEsh+D/wV2E5UVXzqOgCn7IthN0+Bh3dwvGKXCCUrj2Qt8E/gwuCSYNAx8ALwUXB3cF0yKJZeMuFCpoV/W4S/wJFfgt3B/F/ZTEbJfoilROb88+eJDTB4AtwU/CibZSj2jvuW4aQ3mrJzK1iYqW76E3Qs+BrbzhdP0udd4KctIEMfOQDDHyggwxwKJLzRFwD3AfNngGFBSBBQBRSCbEEgdZc4Z1LNgKg+6qdDOBXcDVwbnB3OmTOVpKxM4ZRt/QPY/+JAv7fcNOOeCrwVfACYVDj2c308dV8jRPOz/OuppJ3sQjpPA/wNzMxUVg5uoOO4BL3YF/hZ2c/ZNOSpBvrj8DraJLw32S8zmcGAsuWTE2XXh8yrw5+6AON2ZlfPK/iYEWuAxYCr2g2C++JEy6tshSNMUzBe04WCOKdJYMF8cJ4PvAvOlqD6Y5Jen3U+UnQe+G8yx2gVMGg1+GdwQ3A88AMwXCSVFQBFQBLIBgdRR5oXQ2lrgneEnG78LTIXHf8btwF+B7wRzds7Z8JngtWD+U+UsLJpqIOBsMGdL7cGc8ZM4q3aTrRTtMJZDqhl6pPv2yRcKltcB/A34DrCbWC8qNFuecT/xB8R23m5cIbcdzqCRYCqqTmBbudjxXnLJiEPRhvgidQr4lZA37t/MyvkVwNWNK8D1wPzkUQTMl7l4+xZJnb0VXmNkLxOAqoFj5Wm/XPGFwiaOu6LgNuGAD8LPL/E8BrZfHsPB+lAEFAFFIFkIpI4yH4om/gl+CrwYvA7MMHuJdxPcVJqc+dwHrg5+FkyaDe4JtmfUVIb8x50HTCoNLgeOVrqM86IfEcgZ4D/AlOOyqpt6wMPl1Y1gKn7W2003wHM/+FJXIFcVqKj5gkJ6CExlwOV40ptg5nMRmC8LE8GkWHLJiAuVGppZUtFRMSVCA5A4M3J+ZbAf2X+ngl8CU5nOBsfqW74I9QeXBVcFE2vSKjBfsNh/JI6le8B/gZeAY+XJ8ceXPraPY4L580XzHfAsMPP4O5jEsci4afQoKQKKgCKQfAT4Lyc1iP+wTwa/D74OPAfsR1MRQbZpCBz/Bk+0A/AcBl4Pngd+AUxaE3qYZduw0zwstyfsfh7P28AXg6mE3dQXHlsJHIF7jDsSbjs/+2lH3wTHG2CuJpDuCz3M9/FmcHcL+3vjuRw8DswXAz85RCUljvk2B/MFI1HKrJxfOTciokk4cj+e/cLuWH1bHGnYd/YKyB64XwLzJekcMPuOTOIMmm72MTnWeOHL3YRwmqN4csxtAZM4Bq4Hs2+Z50fgFWAlRUARUASyCQGqnHSc7HPmv/32m0X6448/0pXtVZ+4w+wzwNFt4pnj6LB4/Kf5yPGsOM8px5NHdJoaSZCLlWdm46LrnVP+asCrUgzM/Pq2KmSq+Mix72Lh4pcnMajukyfjWGZO4aTlKvY6BnLVGHCfM8+xmXmpUqXwPy8JZM96o7PeGR0Qp/8nn3T2TM4nOmbwjzFj/SNjySUjzr8m2RuzMYPi/PqWS+N+xJl9LPLLkzIbYgjGKjOGmEYpAoqAInA8COQ9HmGVVQQUAUVAEVAEFIGcR0CVec73gdZAEVAEFAFFQBE4LgRUmccJ3+OPPy4VK1aMM3XWJrv//vulbt26WZvpceZWtHCF48xBxRUBRUARUASyCoEc+2aemQZUr15drrzySqHFNSq47KTbbrtNZs2aJVu3bs3OYk1ZI0eOlF9//VXWrvXbEJC1VWrfdKLUq9JbCuTPJ7/t+0nGz6jmFFCr0mVyceNxcnKRcnL4yGH58rsH5cs1Dzrx6lAEFAFFQBHIfgQCMzOn8v7hhx9k6NChcv3118uff/4p1157bfYjlgtKrFmxsxw5ts+0NI+56i6t0VTkxQqVk4Vrn5Cjfx6Ulg0eSItUlyKgCCgCikCOIBAIZX7uuecKZ6e9evWSqlWrGh47dqzcfrt9kBh3r0yZIocPHxacdpN9+/ZJq1atDKCzZ8+Wo0ePmnAcg5M777wzAui9e/fKiy++KDDJatJ89913Jr5v377C9H/99ZesWBH/gWHm88knn8ihQ4dMfZ5++mmnPBzHE+Zr04EDB6RTp07yxBNPyJ49e0xZnPnv3LnTyHfv3t1OKoMGDTLt4EvMhAk87Byixo0by+bNm43skSNHhLi4ya997jTR7hc+KCvPf+B92oAz8i2/LZV5q4bL1xt4EB73spTnYXwlRUARUAQUgZxEwPNcXrLPmaPBnuV6hS9dutSaP3++Sf/BBx9YUM4Wlp0tKFoTBmVszqxPmzbNat26tTV+/HirR48eJu69996zBgwYYF144YXWp59+atLVrl3bKZt5kBkHRWu9/vrrJm7//v3Wxo0brYEDB1r2mfj27ds7cl71ZBjzglK1hg0bZs2ZM8epox3HcFuWlcELiimTMjfddJOp30cffWStW7fO+vrrr01a5sk2jxgxwsKLgklTuXJlE4cXFwvK3+rXr58FJW/i6tWr55Th2b5/AXvaBY/mWZF9cns3yxrY4WcnL9b7ygs/sRh+1UVzrGGXW9aQznsi4u226TMSS8VD8dAxoGMgq8eA+5w58vYGOJWUOZUpleott9xiLpnBjNVasGCBUVysP2a1RvH6taVatWrWXXfdZWHWamSotO20VHYrV650/AyvVauWSde2bVsTznJJ8Srz999/38jhG39EPizLT5lv2bLFyDANFfyrr75qbdq0yQmbOXOmcbN+TDNq1CjrsssuM/lT+WODnmGsTlhTp06NSBvdPphVtXDDW3puGDkWvJR5vdP6GmXOOHK7s152yrIx1WckjoqH4qFjQMdAMsaAW5kHYgNcsWLF5NtvvxUuWc+dO9csqWPWKmvWrAE+MDSGeMzYjTv6B4pMGjRoINu3bxcuOZOKF+d9n2mEGX2aB66uXbsaPxSoeWKGHRGfkQerCCbJhg0bzLNChYx3fh87xjtAQ3Tw4EGzRJ8/f347SJYsWeK4d+/e7XxGYGCNGjUM043VBOFyvpui22fuN9/uThF2H/IIiwrqfM6rsmvPD/L+osuled1R0qTmdfLj9g/kh1/ej0qpXkVAEVAEFIHsQiAQ38z5LbxKlSqybNkyOeOMMww2mCU7GPHbdpMm9gXeTrA0bdpUGjZsKO3atTPHyrCMbSLz5o1s9o4dkZev8zs7qVkzXpgOK5rIJxHCdNkzOb93lyxZ0sRxH4Cb/GTsNFg6t53mZYTK/ccfQ9e+3XzzzVKnTh2Hb7iBF7qnUXT7zJ3w0xEfzW+nyXi5qpZva4J/3P6R/Lpnlaz9ZZLxVyiR1pbzzz9fsPogLVq08MpCwxQBRUARUASSgECkVktCAVmR5bZt26Rjx47y2GOPCWe5VO5PPUXzaiGaN2+eOYdtb4jjxjEskUuePHlMgkqVKgmPtT3zzDO2SMwnXxq4mezJJ580csOHD4+ZPt7IX375RVg31od5J0Jt2rQxLxfc1Z8vXz7BMry8+eabwhk929WoUSOTHV9YOnToEDvrwYjmsfVoDuvfKy+YKde0WmTyOKVoZenecp5c1PAJ2bR9phz7U+SsmkOl1ZljzBE1JrKVOt3sg9GjR0dsTmS4kiKgCCgCikDyEAiEMudub2xoM0q8UKFCZmc3l87xzdggc8kllwg2jMmjjz5qdqRPmjTJzICxcU4WL15sFB9nsQUKFDDp8c05AtFoPyPHjBkj2DRnZr9ly5aNSJ+RJzo/2//cc8+Z5XDuPrcvoGGcHc98OUOnP3qmzlk9Z+N33323LFq0yHx2YPo+ffoI9gQIPztQhi850cv67vwpkxHVrNhGKpeheTERLmJUK3ehnFY2NCufuWKQHDryu5xTe6gUzFdClv0wVnbtXulkad+5nxPn8Z1KqEMRUAQUgVyIgOcGplTaAIc+sbijnZu7HnnkEbMz3d7NzTg3Y3k3ws+48uXLWzjSli7cLefnxow3U3J++THcvZs+VrroOG7k82sHd7DjU0OW1zW6Dra/eJEqnmVhX4KFFw/POFtWn5FjVvFQPHQM6BjIzBhwb4CDvDeIqabMWc8HHnjA7FqnUsds08KsO1uVBl8gYhGPh/nhmVvC2S8TJ07M9Tjklv7Wdnr//1RcFJfsGANuZR6I3ewAxRCXmMk5RVwe54Y6P1q9erVfVK4Jj95cmGsarg1VBBQBRSAHEQiUMs9BnJyiVWE7UKhDEVAEFAFFIEUQCMQGuFTAKietpqVC++OpwxWlSkuF8CbDeNL7pelZOrENh375aLgioAgoArkFgUApcx4vo/Uy3H6W7f3Dcu3jX9leeBIK5HU49jU1bvfxFPVc5WrSqHCR48nCyD5TpZrUjyMfd73d7uOugGagCCgCikDAEAiMMleraVk7stjxJ4WzdLuztpTk5uaut9ud3FI1d0VAEVAEUg8B/g9MeQqS1TTeNmdbYKPlNPsiG1pI69y5czqsbctpsaytJcMyWrqKuAK+OKOh3F+piqypd6asq99Y+pRJW/auhxkz43c2PtvEdy4RaV2tT5lysqHhWbIZfGP5ik6useSaFz9ZVqOcrY2aykun1XBk2pcoKUtRlptYr7HVarqD1K0IKAKKgCIABDyPEaXS0bQgWU3D1bLGohsNw9DACalu3boWz19HH9nq0qWLiWcf8EiXn7W1ZFhGa4cyrwn3vdvNukCpWusbNLE6lihpPVr5NOO3xwmUrvVZnfrW34qfbL1craYFpW7hO7kZQ5SDIreg4C0oXRMXj9xXZzSy3q1Zx+Q5v24DI4dldifPy0qWcsYoy+hdpqzxu+vtdttl6tP7b1txUVx0DJwYY8B9NA196t2oVFLmQbGadsEFFxjlPHjwYKNscHOc8ePqVmvhwoUWjMWYcCrtnj17WuPGjTNKnn1AZe5lbS3ZltG8+p8K845TQyZWy+TPb5TrGUWKWKcXKmTcbU4+xVGuVOa2cqXcg5XTLuehv2up0jHlyrnyZ10wG49Q5nxh+G+tOqa8S0uWjnix8Kq7hnn/PSsuiouOgRNvDLiVeSCOpgXFahpudsPfi8jHH39snrAzbu5453WrtMB26623mg18tIaGC2bMtavuo25e1tZoEY2UnZbRWN6Kgwf4kF1Hj5pnibwn4U74kBW3VX8cNGH8+Q3xlfIXcPyrYfTGpvVHDsu5RYrJrrBFOC+5ZsVCFuzWwFIc6RtX3vRP2LVDptWqK3ipkL6lysj0vbsZrKQIKAKKgCLgQiAQ38yDYjUN9scNtOedd54DMe+Dp6GYKVOmCO+V79+/v2AGLkxTs2ZNo+TtxJjG207nmd2W0ZyCPRy7joUUe82ChZzYUlCyO13mW2sULOjEUcmvhHKOJbc6rLyrhfOs4cqbGS3cv092wejN4LIV5CJ8W5/w604n/4wcasEtI4Q0XhFQBE4UBAKhzINiNY2zbyyXy8iRI43xk7ffDtkUnTp1qnAGfhSzWJpwpclSzs6LFCkikydPjjmWkmUZLWahPpGcPR+GwZdBUKykYRUrmef8/SE78fR0O6WUUDHzzHmxk06SOfv2SCy5TdgkyNn9oHIVzOx7YNnyJk/3z8u/75IhiGe6hfvSynKn8XKrBTcvVDRMEVAETkQEAqHMg2Q1jUvpXG7fsGGDdOvWTd555x2ZM2eOGTsbN24UbIQTzuCXL19ulDu+ozvjii8CbrL9ybCM5i7Hyx1Zk9DGCqa77ucN0hYzZO5mH1H+VHls2xZZ51paP4zVhSXYgT62ag15C0p4K2bVGcndv32L9MdFMWuwo72aa8neCOLn3+HZ+GvILxFSC26JoKVpFQFFIOgIOJuZ0BDHnUob4FivoFlNw3E6B0s3rsfjzm7LaLHqWr1goUy1L5ZcpYIFPfPE0TWzKc4v3q+easEt7e/ZDyMNV4x0DAR3DLg3wKEfvRuSasqc9VSrad595deHJ0L4k1Wrm+NuE6vX8lT0sdrIEwLRxwFjpde43De+tM+1z4M8BtzKPBC72QG2IbWaZiORe578Tn7vts3y2s4dCTdaLbglDJkKKAKKQEARCJQyTwWM3UfJUqE+J3odHty6+URvorZPEVAEFIHjRiAQG+COu5VZkEFutZpW2XXULAtg1CwUAUVAEVAEkoBAoJS5Wk3LuhHgtjLmdrMEXtDySe16Zsc6rloVsk3utG63Ha9PRUARUAQUgexHIDDKXK2mZe3gYMf7WU17vmp1KXFSPjl/7Sopu2KJDNm80Sk8lpyTSB2KgCKgCCgC2YpAIJR5kKymwSiKfPXVV/InLlfhJTEvvvii06GZtaiW3VbTWhc/Rf4BBf4DLnQhLUjgohansepQBBQBRUARyFYEPI/8pNLRtCBZTaNlFRpSwe1j1qxZs4yhFfSmwTizFtWy02pak6LFzJnuMTgSRiMqX9ZtaF1dOmSljO1wWydzu+026lOP+ugY0DGgYyB7xoD7aBow9y40lZR5UKymEUsSDK04L0g86zxs2DArsxbVsttqWttTShglTlOk5xYrbt0J62lU6n7jRMO9/34UF8VFx4COgWSPAbcyD8TRtKBYTUPHGVq8eLHtFC6728vrDEzUolqjRqHNZ9llNW33n8dM3Z/csVUWwcgJeWiZ8nJNmXLyb1gwU1IEFAFFQBFIPQQC8c08KFbT7O6tX7++7RS+iCxbtszcx87ARC2qZbfVtC3hu9QPuO6J/xP3rRfJG99QUUtlTterQxFQBBSBbEXAcwk1lZbZv//+e+v111+3MDu1Dh06ZEG5W1y+JgEp68MPPzR+fqemv3v37lbbtm2tZs2amTR9+/a1cKzNWrt2rfHfdNNNTpuZj9tPeTLLmDdvnpFbt26dkWvfvr0jZ6eLfjIhv3E3bdrUevjhh41crVqhq0ixKc7UAfbNLVhUM3GtWrUyefI7O6lq1aoWv62TeBc788dGOot1wCzd+FnfDh06OHXxa0N03eL1Lz6jkfXfWnUsHFEz38u5zF4e7njkYd7V1H3atGlxpY8nT02jy5U6BnQM6BhIPwbcy+zAJ30ChqWSMh84cKBRaJUqVTIK4rrrrjOKrkuXLo7CWLNmjVEi/KFyg8UyE7do0SInHLNc4x4yZIgjx7Ruv40HLLU5cvxmT4pXmdPAh00LFy50yrrllluclxDGwzSqE/fdd99Ze/bsMf4FCxaYTXR2XXr06GFeLuw8+VLQr18/R9avDbZ8ok9ugtvQ8CzzrZxPmDp1ysooL74AkcaNGxe3TEZ5arz336jiorjoGMjdYyBwypwDNihW06jIBg8ebGb0lStX9lRombWolt1W06r4WDGL9Q9ELZXl7n8uscaGxunY0DGQtWMgkMqcgyAIVtNsZZ5bBy1XCdRSWdb+webWsaTt1nGkYyD2GHAr80DsZkeHGgqC1bRLL71UlixZYlc51z3VUlmu63JtsCKgCKQAAoFS5imAl2RkNe3yyy9PhWpqHRQBRUARUARyEQLxnTfKRYD4NTW7rKZhk51gw5tfNTRcEVAEFAFFQBFIh0CglHlusJo2YsQIeeSRR9J11JNPPimTJ09OFx4rwG3VzO2OJcM4d1q3OyM5jVcEFAFFQBHIGQQCo8xzi9W0/v37yyWXXJJuNJx99tlyzjnnpAuPFcDO9bOMRrmKBQoIjp7JRSefEpFNRnIRidWjCCgCioAikOMIBEKZB8lqGi6qEd7ahl3dhnFm3OlknFcXXGDj+A8cOCCdOnUyfi6v79+/33yTf+mll5w0AwYMEFyUIy1atBBcNmPc9NetW9dJk1nH5OqnS7GTTpK3TqspFaDYM6RHkeI18HkZptQEioAioAgoAtmMgOdZ6FS6NCZIVtNwL7u1fft2q2XLlhYUtTVmzBgHXx7botEV9K9hHmPr1auX48eM3Prmm2+sjRs3OmFMy1viGL5t2zbjtm+Nk38hn289eFYof7dVM7ebeT5epZq5FIa3u5HnwLCKXS93WrcbStyS/4DXgheCh4DDbdGnYqFjQMeAjoHsHQPuo2nA3rvwVFLmQbKaxlvmdu7caWFJPJ2iy0iZsy/mzJmTTpkz/PPPP7eYd0R/nYa+a+7BDb371JbF8nqEIrcV+qUlS0fm7zM2pCzyHw5eBObLxENgv7QartjoGNAxoGMgKWPArcwDscxuW0275pprZO7cuTJlyhTBla7QHyFivHs52w7nc+XKlWbZG1e2Cma0Jqp48eLuJIJ7xCP8Xbt2Nf6ZM7n9SwQK1jzj+Rk6dKjwrDWukRUaiOG3/qTRAeS83YN/i13iVhhTGbeLgmn01cEDMu33X9MCYrl2InIp+HswR1AtsJIioAgoAopAjiEQCGUeJKtp06dPl9KlS0uTJk0ExlFk5MiRTufiTnUpWbKk8XMfQCKEFXnzkhAhcx980z347YhUnp6RmzfJt38cNHH7Ua9eG6iZM6DKiOe7yTLwc+BD4GvA3cFhUqtpNhL6VAQUAUUg+xAIhDLHt2Lp2LGjPPbYY1KhQgUz433qqacclGDcw2wIg9U0EwaraQKraZInTx7jh4EW4bG2Z555xpGJ5aDJUlgxEx4Ho9zw4cNjJY+IGzVqlOBOdlmxYoW5CY4K3KZffvlFWDfWh3knQvPnzzdyES8Bg5ED98FFc4v4cr4aCtwo8o0/yI6jRzMWugNJLga/Aq4Hvh5Mxe4i9sHo0aPF7gtXlDoVAUVAEVAEkoiA51p+Kn0zD5LVtC1btnBfm7GORrOmUNoOvrfeeqtFi2ckfv8m9ezZ08SvX7/e+N0/NKWKfjdMi3GU4Xd3km0O1Y5PladaTdP9A6kyFrUeOhZP9DHg/maOtnp3eCopc9YxKFbTWFfaK6ctdT9sa9eu7RvnJxOUcLWa5v33FJT+03pq/+kYCM4YCKQy5wALgtW03P6HwJUDtZoWnH8GuX28avt1rAZ5DLiVeaAMrQTBahoGRq4mtZqWq7tfG68IKAI5hECglHkOYRRRbEZW0yISq0cRUAQUAUVAEcgGBAKxmz0hHGoklDr+xNfGnzTDlGUzTOGdIJZcMuK8a5EW2hpO4lIlLSguVyw5vzgei0uUykHg1ESFXOn96sIk1Vzp3M7jKc+dj7oVAUVAEUgAgbwJpM2epBVRzKJwUW/g6TrDHLMCryF2LfjD8DO9rZKY4hlG8nRa4wxTxU5QH9E8yvU5+FvwFeB4KJZcVsfh/laDI7F0M4+huWkePE+AO4OpwDIrB1GHovNkBM+xczzw/h5idjU4HlqFRMxvNnghuBvYpuVwuNs2w45wPb3qUg7xn4RlKWOPU4qxLxeDWR7LvhuspAgoAopANiLgubM6x3az98GGjM/DmzJ4VWi9ODZoPIc0q8DnhtN2wLNF2O2zWx/4erbbN5z3kTdOUCa6jHmQnw4uB34PzPZFp/Hyx5JLRlxN1MvmwXCz7RVdda0cDqvmCmO9bRk+E5GjrF+e7NfHwEzzFDhezLojLa+dLQ0eB14BZh7k5eA7wHZ93W2LVRfeS/8FuC6Y6dqEn3QvBY8P+wfgScxODfsZr6wY6BjQMZDFY8C9AS4v/smkBrVGNb4A3wYuDeash7V7Gfx/YDfVgIezwv+GA9viyVm8PVPirMk2Vsa7ZThT4kyMV5BeBXYTyxwK5myZad4Bk1gfpuds8FWwm2rC8x6YceQXwG4aBQ9l+7gCK8FdDvwseAeYs1m272pwQzDTnwcmMR3r1RscSy4ZcShS1ru4Vdi9lREg4vSBcYm8i+cyMPEnZVbOL8+LkGd+MDEjjQYTsyvoAcXq2ymI3wn+FfwRuBC4Ctgmxtn1tdvGOL+6lEEcL8oZCeY4Ic0KPcxvMfxyBYDE2TmpVuihv4qAIqAIJBsB/mtMDVqNajwE5qVtb4I3gn8CM+wrMIlLpTPAH4Kbgd8C8x8saUHoke53H0KGgakA5oLvB7u/a5aA/+9gvggMAi8Gkx4B/wK+BVwD7KYR8JwMZn16g1eB3VQBHv5zL+0KPC3s/gbPO8EHwUfBVcGU/wz8Apg0AfwH+A1wLLlkxKFIh6jAGoDZHzbdAMfDYQ/x6gfmEribEpXzy5OKmHRK6CHsKxJfYkj7wMPAV4DngqP7lv3Dl757wSvBP4NtuhUOKmX2O18abPKriz0GrkZCynG89QPbNAMO4sG+fQm8HTwPrKQIKAKKQDYgkDcbyoiviB1ItgScD0xlQWXIGdV0cEswFd4o8GrwpWDOGKeAOYsl7Q490v1SZgWYSmlTOJbXn7qJs0v+c58NfhzM7/ZUIJT9GPwvsJuorPjScQRM2RfBbqLdFtbN/YJRKpygNJ69wDeBD4NDV7WHlNIB+JeCq4P7gkmx5JIRFyo19Ms6/AWe5Ar8Fu7vwn4qQvZLNCUq55cnX3yIyQPgtuBHwSRbqWfUtxw3rcGclVPZ2kRly5ewe8HHwHa+cJqVFq/2lWUkiGNnIJhjZQSYY4HEF5oi4B5gvmxwDCgpAoqAIpBNCKSOMucM6lkwlQfdVGjngruBK4PzgzlTpvK0/9nCKdv4A7L/wYd8ab9vwDkXfC34AjCpcOjh/H7quEKO5mH/11FPO9mDcJwE/h+Ym6moGNxExXEPeLEr8Lewm7NvylEJ8sXld7BNfGmwX2I2hwNjySUjzq4Ln1eBP3cHxOnOrJxX9jch0AKPAVOxHwTzxY+UUd8OQZqmYL6gDQdzTJHGgvniOBl8F5gvRfXBscjuJ8rOA98N5ljtAiaNBr8MbgjuBx4A5ouEkiKgCCgC2YBA6ijzQmhtLfDO8JON3wWmwuM/43bgr8B3gjk752z4TPBaMP+pchYWTTUQcDaYs6X2YM74SZxVu8lWinYYyyHVDD3SffvkCwXL6wD+BnwH2E2sFxWaLc+4n/gDYjtvN66Q2w5n0EgwFVUnsK1c7HgvuWTEoWhDfJE6BfxKyBv3b2bl/Arg6sYV4HpgfvIoAubLXLx9i6TO3gqvMbKXCUDVzK//j/1yxRcKmzjuioLbhAM+CD+/xPMY2H55DAfrQxFQBBSBZCGQOsp8KJr4J/gp8GLwOjDD7CXeTXBTaXLmcx+4OvhZMGk2uCfYnlFTGfIfdx4wqTS4HDha6TLOi35EIGeA/wBTjsuqbuoBD5dXN4Kp+FlvN90Az/3gS12BXFWgouYLCukhMJUBl+NJb4KZz0VgvixMBJNiySUjLlRqaGZJRUfFlAgNQOLMyPmVwX5k/50KfglMZTobHKtv+SLUH1wWXBVMrEmrwHzBYv+ROJbuAf8FXgKORRx/fOlj+zgmmD9fNN8BzwIzj7+DSRyLjJtGj5IioAgoAslHgP9yUoP4D/tk8Pvg68BzwH40FRFkm4bA8W/wRDsAz2Hg9eB54BfApDWhh1m2DTvNw3J7wu7n8bwNfDGYSthNfeGxlcARuMe4I+G287OfdvRNcLwB5moC6b7Qw3wfbwZ3t7C/N57LwePAfDHwk0NUUuKYb3MwXzASpczK+ZVzIyKahCP349kv7I7Vt8WRhn1nr4DsgfslMF+SzgGz78gkzqDpju5jxkUTX+4mgDmmjoI55raASRwD14PZt8zzI/AKsJIioAgoAtmEAFVOOs6xc+YedfGqn2+YfQY4Oh+eOY4Oi8d/mo8cz4rznHI8eUSnqZEEuVh5ZjYuut455a8GvCrFwMyvb6tCpoqPHPsuFi6x2lrdJ0/KsMxYshqn+OgY0DGQRWPAfc48dWbm+A+YJWTPeqMz2xkdEKf/J590nMnFM5vzEv/RKzCOsFhyyYiLo0rZkmRjBqX49S2Xxv2IM/vM0oYYgrHKjCGmUYqAIqAIHA8CeY9HWGUVAUVAEVAEFAFFIOcRUGWe832gNVAEFAFFQBFQBI4LAVXmccL3+OOPS8WKFeNMnbXJ7r//fqlbt27WZnocuRUpVF7ISoqAIqAIKAKpgUCgvplXr15drrzySilcuLBQwWUn3XbbbTJr1izZunVrdhZryho5cqT8+uuvsnat34aArK1S+6YTpV6V3lIgfz75bd9PMn5GNVNAqZPrSd/WX5twBuzev1UWrLlLVm98xcTrjyKgCCgCikDOIBCYmTmV9w8//CBDhw6V66+/Xv7880+59tprcwa1E7zUmhU7y5Fj+0wr85ir7kINLlSghBw4tE3mrb5Xvlj7mJQoVlHan+U+D3iCA6PNUwQUAUUghRHwPCaQSkfTzj33XOuvv/6yevTo4dT1+eeft9atW+f4p0yZYh0+fNgi7du3z2rVqpWJmz17tnX06FET/scff1h33nmnI4M+sfbu3Wu9+OKL1u+//27SfPfddya+b9++FtOz3BUrVpi49u3bR8hSPpqZzyeffGIdOnTI1Ofpp5920vz2228W87VlDhw4YHXq1Ml64oknrD179piyMPO3du7caeS7d+9u0rIObCvbgZcYa8KECU4ejRs3tjZv3mxkjxw5Yo0dO9aJi9U+uw6xnrd3s6yBHX6OyM+dvlfrZRbTVCnX2jeNO726048XxUQx0TGgYyCzY8B9NA15eAOZSsp86dKl1vz5843C+OCDD4xSw7KzUWCsP5Uxadq0aVbr1q2t8ePHO4r/vffeswYMGGBdeOGF1qeffmrS1a5d21E+VJRkxlHRvv766yZu//791saNG62BAwdaVMKkeJQ586JSHTZsmDVnzhynjqwn4xhuY848e/XqZcqkzE033cQg66OPPjLK++uvvzZpKUdFPmLECPOiwDSVK1c2cXxxofLv16+fUfKMq1evnlMGZckR7fsX+px2waN5VuRYiKXMixauaN12hWXYbo8+I/FTPBQPHQM6BpI5BgKnzKlMqVRvueUWM1vmjHXBggXUW0ZpcVZLxesHWrVq1ay77rrLzFopQ6Vtp6WiW7lypeNneK1atZjMatu2rQlnuaR4lfn7779v5PCN38jZ+bAsP2W+ZcsWI8M0VPCvvvqqtWnTJids5syZxs36Mc2oUaOsyy67zORP5Y8Neoa5OjF16tSItNHtg1lVCze8peeGkX94sZR5v7ZrzKz8rNNvccqyMdVnJI6Kh+KhY0DHQDLGgFuZB2IDXLFixeTbb78VLFnL3LlzBUvqglmrrFkTup+V8ZixA6v0BEUmDRo0kO3btwuW1E2C4sV532caYUaf5oGra9euxg8Fap6YYUfEZ+TBKoJJsmHDBvOsUKFCRiJy7BjvAA3RwYMHBUpZ8ufPbwfJkiVLHPfu3bsFnxEcf40aNYRMwkuN4OXHiaMjun3mfvPtEUlCnkMeYR5B3Vt+JuVL1pXF34+R5d/zMn0lRUARUAQUgZxEIBDKnIqtSpUqsmzZMsHs2OBlP+nBt21p0sS+wDsNzqZNm0rDhg3l4osvFipmysyYMUPy5o3c97djR+RVbvjObjJp1qyZYIlfmE8ihOmyZ3Ju2itZsqSJwz6AiDR+MnYiLJ3bTuHLCJX7jz+Grn27+eabTbucBFGO6PaZO+HbRCWi91dwC49wV1Dnc6dKtXIXyfL142XOiptdMSHn+eefL82bN5cvv/xSsHqSLl4DFAFFQBFQBLIegUitlvX5Z0mO27Ztk44dO8pjjz0mnOVSuT/1VNqMcN68eeYc9u23327KwzK8YGlb8uTJY/yVKlUSHmt75pln4qoPXxrwDVuefPJJIzd8+PC45DJK9Msvvwjrxvow70SoTZs2wpcL7urPly+fYBle3nzzTTOjZ7saNWpkssN3d+nQoUPsrAcjmsfWozmsyK+8YKZc02qRyeOUopWle8t5clHDJ+SMqr2lXtUrTXiZk+ubcMZVLH2eCeMP+2D06NHm6QSqQxFQBBQBRSCpCARCmWO3t2Anu1HihQoVkkGDBpmlc3wzNuBccsklgt3e8uijjwpnuJMmTTIzYM6qFy9ebBQfZ7EFChQw6fHNOQLUaD8jx4wZI9g0Z2a/ZcuWjUifkSc6P9v/3HPPmeVw7D53LqBhnB3PfFl/+qNn6pzVczZ+9913y6JFi8xnB6bv06ePYE+A+exAGb7kRC/ru/OnTEZUs2IbqVyG5sUEqxiCmfiFclrZtlKoQClHtGrZ5iacccUKn+qElyoVSpMT5/GdSqhDEVAEFIFciIDnBqZU2s2OPrG4o52bux555BGzM93ezc04N7do0SLCz7jy5ctbVatWTRfulvNzY8abKTm//Bju3k0fK110HDfy+bWDO9jxqSHL6xpdh4z8POrH43MZpdP4yHGreCgeOgZ0DCQ6Btwb4CDrDWCqKXPW84EHHjC71qnUMdu0MOvOVqXBF4hYxONhfnjmlnD2y8SJE3M9Drmlv7Wd3v8/FRfFJTvGgFuZB2IDHEAxxCVmck4Rl8e5oc6PVq9e7ReVa8KjNxfmmoZrQxUBRUARyEEEAqXMcxAnp2hV2A4U6lAEFAFFQBFIEQQCsQEuFbDKSatpqdD+eOpwRanSUiG8yTCe9H5pepZObMOhXz4arggoAopAbkEgUMqcx8tovQy3n2V7/7Bc+/hXtheehAJ5HY59TY3bfTxFPVe5mjQqXOR4sjCyz1SpJvXjyMddb7f7uCugGSgCioAiEDAEAqPM1Wpa1o4sdvxJ4Szd7qwtJbm5uevtdie3VM1dEVAEFIHUQ4D/A1OeeFsabXrjznLB0SzDsA4WcTEJr3jlZTI8aw3jI851p7zNDUZKTDhvioPVtIj28opXGGoRWDszaWA1zcTj/nZzsxzPaMNqWoRMLE+7du2cvGA5zakjLKRJ586d04kyHJbTjAysrQll2A5eXWsTLKMJN9+xLrzMhm13k18b3GkScX9xRkO5v1IVWVPvTFlXv7H0KZO27F0PM2bG72x8tonvXCLt7DnL6FOmnGxoeJZsBt9YvqJTbCy55sVPltUoZ2ujpvLSaTUcmfYlSspSlOUm1mtstZruIHUrAoqAIqAIAAHPY0SpdDQtSFbTaDaVFt1oGIYGTkh169Y1plajj2x16dLFxLMPeKTLz9paMiyjtUOZ14T73u1mXaBUrfUNmlgdS5S0Hq18mvHb4wRK1/qsTn3rb8VPtl6uVtOCUrfwndyMIcpBkVtQ8BaUromLR+6rMxpZ79asY/KcX7eBkcMyu5PnZSVLOWOUZfQuU9b43fV2u+0y9en9t624KC46Bk6MMeA+moY+9W5UKinzoFhNu+CCC4xyHjx4sFE2uDnO+HF1q7Vw4UILxmJMOJV2z549rXHjxhklzz6gMveytpZsy2he/U+FecepIROrZfLnN8r1jCJFrNMLFTLuNief4ihXKnNbuVLuwcppl/PQ37VU6Zhy5Vz5sy6YjUcoc74w/LdWHVPepSVLR7xYeNVdw7z/nhUXxUXHwIk3BtzKPBBH04JiNQ03u+HvReTjjz82T9gZN8vivG6Vhl5uvfVWs4GP1tBwwYy5dtV91M3L2pptDS27LaOtOHjAtGEXPlGQSuQ9CXfCh6y4rfrjoAnjz2+Ir5S/gONfjU8ZNq0/cljOLVJMdoUtwnnJNStW3CRfA0txpG9cedM/YdcOmVarruClQvqWKiPT9+5msJIioAgoAoqAC4FAfDPnN2TbatoZZ5xhqp+I1TR+x65YsaLQCAkp+mKTaKtibqtpTB+v1TTYH2dyOe+8NMMjvA+ehmL4TZ/3yvfv318wAzdpatasaZS8EcIPpvG203m6LaPVqVNHbL7hhhucNHREt8FYRpuOiGh+O0IsIc+uYyHFXrNgIUeuFJTsTpf51hoFCzpxVPIroZxjya0OK+9q4TxruPJmRgv375Nd2CcwuGwFuQjf1if8utPJPyMHLbjBfrzgit+Mkmq8IqAIKAKBRiAQyjwoVtM4++YmNW7W42z87bdDmnPq1KnCGTg34vFlhCZLOTsvUqSITJ48OeYASpZltJiF+kRy9nwYBl8GQbGShlWsZJ7z9+81T/50O6WUUDHzzHmxk06SOfv2SCy5Tdjwx9n9oHIVzOx7YNnyTl624+Xfd8kQxDPdwn1pZdnxfk+14OaHjIYrAorAiYZAIJR5kKymcSmdy+0bNmyQbt26yTvvvCNz5swx42bjxo3CneecwS9fvtwod3xHd8YUXwTcZPuTYRnNXY6XO7ImoY0VTHfdzxukLWbI3M0+ovyp8ti2LbLOtbR+GKsLS7ADfWzVGvIWlPBWzKozkrt/+xbpj4ti1mBHezXXkr0RxM+/w7Px15BfIqQW3BJBS9MqAopA0BFwNjOhIY47lTbAsV5Bs5qG43QOlm5cj8edKpbR2IbqBQtlqn2x5CoVLOiZJ46umU1xfvF+mKoFt7S/Zz+MNFwx0jEQ3DHg3gCHfvRuSKopc9ZTraZ595VfH54I4U9WrW6Ou02sXstT0cdqI08IRB8HjJVe43Lf+NI+1z4P8hhwK/NA7GYH2IbUapqNRO558jv5vds2y2s7dyTc6OiNjglnoAKKgCKgCAQEgUAp807Q66gAAA+qSURBVFTA1H2ULBXqc6LX4cGtm0/0Jmr7FAFFQBE4bgQCsQHuuFuZBRmo1bQsAFGzUAQUAUVAEUgKAoFS5mo1LevGgNvKmNvd6pRTzE51d0mLz2gkuMLVBLnTut3u9OpWBBQBRUARyF4EAqPM1Wpa1g4MdryX1bS83GbmIirxvNgj03LdNybUT84lok5FQBFQBBSBbEYgEMo8SFbTaLHtq6++kj9xuQoviaFFNpsya1Etu62msb64M11mnH6GlMYVrs3WrLKboE9FQBFQBBSBFEXA88hPKh1NC5LVNFpWoSEV3D5mzZo1yxhaQb8bjDNrUS07rabRiAqNp8yuXc8YNbEtotltcFsnc7vteH3qUR8dAzoGdAxkzxhwH00D5t6FppIyD4rVNGJJgqEV5wWJZ51xP7iVWYtq2W01zVbmsEdulPrVpUPmRv3GiYZ7//0oLoqLjgEdA8keA25lHoijaUGxmoaOM7R48WLbKVx2t5fXGZioRbVGjRqZvLLbalqH9eukf5ly8lSlqjIHlsq245OBkiKgCCgCikBqIhCIb+ZBsZpmd3H9+qGd3/TzRWTZsmXmPnb6E7WollNW01bDBOqwTRvkIO6LfwH3rMdLaqksXqQ0nSKgCCgCWYuAsySMbB13Ki2zf//999brr79uYXZqHTp0yIJyt7h8TWKdP/zwQ+Pnd2r6u3fvbrVt29Zq1qyZSdO3b18Lx9qstWvXGj9MoTrtZD5uv40By5g3b56RW7dunZGD2VVHzk4X/WRCfuOG2VTr4YcfNnK1aoWuIsWmOFMHWFSzYFHNxLVq1crkye/spKpVq1r8tk7iXezMHxvpLNYBs3TjZ307dOjg1MWvDdF1i8dvL7PbaduVKGmW27uXKuOUZ8d5PWHe1dR92rRpcaX3ykPD0v4OFQvFQseAjgG/MeBeZkcab6BSSZkPHDjQKLRKlSoZBXHdddcZRdelSxdHYaxZs8YoEf5QucFimYlbtGiRE45ZrnEPGTLEkWNat9/GA5baHDl+syfFq8xp4MOmhQsXOmXdcsstzksI42Ea1Yn77rvvrD179hj/ggULzCY6uy49evQwLzB2nnwp6NevnyPr1wZbPpEnzpkb5e2WebNmbYvf0N1hfm6+AJHGjRsXV3q/fDTc++9ScVFcdAzoGLDHQOCUOSseFKtpVGSDBw82M/rKlSt7KrTMWlRLJatp9mCKfqqlMv1HEz0m1K9jQsdAcsZAIJU5B0MQrKbZyjy3Dl6uEqilsuT84ebWMaXt1vGkY8B7DLiVeSB2s6MjDQXBatqll14qS5Yssauc655qqSzXdbk2WBFQBFIAgUAp8xTASzKymnb55ZenQjW1DoqAIqAIKAK5CIFAHE1Lhf7ILqtp2GQn2PCWCk1OuA4jRowQLLMb/vvf/56wvAooAoqAIqAIZA6BQCnz3GA1jQrxkUceSdebTz75pEyePDldeKwAt1Uzt5sy1QsWihCtXbiw43endbudBD6ORx99VOxl9kKFIvP3EdFgRUARUAQUgSxAIDDKPLdYTevfv79ccskl6br27LPPlnPOOSddeKwAdq6XZbSHq5wmi89oaEydnl20mKyu31gW1GkguI/dZOcnF6ssjVMEFAFFQBHIOQQCocyDZDUNF9UIb22zl5txZtzpXZxXF1xg4/gPHDggnTp1Mn4ur+/fv998k3/ppZecNAMGDBBclCMtWrQQXDZj3PTXrVvXSZOoo3/JMo7ItJp1pDwspJEaFikqjcC+9ChiXgOf55tCIxQBRUARUASyAIFmwx+TjNhdTCCU+fPPPy9ffPGFTJo0ST744ANjWvTqq6+W008/3bSFZkavuuoqc+95mzZtzHJ0hQoVTBwuYpFBgwbJRRddJPPnz5eHHnpIateu7WDA61ZvuOEGwTl2wUUs8uWXX5o4lrl9+3a58cYbBbeyOekzcrzwwgtStGhRwc1u0rlzZ3OVqy1TokQJKVMmTZEWKVJESpYsaaJ5Zzvb8NNPPwnOp9siMn78eOnYsaPgUhzZsWOHcdOP2+xE/oVk33rwrJA4dW+vkFPc7r0wz2pTvryRQ2AlrnF1p3W75X1IFQe/Cl4IHgJWUgQUAUVAEchxBAKxm51GRvgtGTeoCZV1r169BFeaSvPmzQ2APXv2NEqQx8JIs2fPNk/+dO3a1cxor7nmGlm/fr3gmlfh/eG4cc1Jwx3qF198sfG/9tprgutXjUKGxTKZOXOmcfObdTxEZc3vxriSVT777DOZPn16PGImDa6lldtuu024N8BNc+bMEc7qC+O7Nt0OjYHrXceX5tgXcn6SFiJu9yPbt8gTlU9zxYac/939m3G407rd8iWiuVm/LLg/uDd4EPg98F1gJUVAEVAEFIEcQSByWpYjVci4UNtqGhXy3LlzZcqUKYIrXR1BxruXs50IOFauXGmWvXFlq5ktM654cU4v0wj3iKd54OILAImKnBShQE2I/8/QoUONMsc1skIDMfzWnzQ6gJy3e3BIJ/sW++quHTJr396IeFpFu37j+ogwX89OxCwFfw/mCKoFVlIEFAFFQBHIMQQCocyDZDWNM/HSpUtLkyZNBMZRZOTIkU7n4k51Z1md+wASIdws5+wUd+Tug4sT/2h+20nh67gaJk63HDli4o/hONll67FsnxFx9Z/vJsvAz4EPga8BdwcrKQKKgCKgCOQYAoFQ5tu2bTPfih977DHht3Aq96eeesoBDcY9zIYwWE0zYbCaZpbT8+TJY/ww0GKWrp955hlHJpaDJkthxUy4tM4l7+HDh8dKHhE3atQo8817xYoV5iY4KnCbfvnlF2HdWJ94l+1tWX7vp1zES8BgxNb14Ba2VOznZVDoh1G/Pj+tlx+wqS5DugMp+DXiFTA3vl8PpmJXUgQUAUVAEchRBAKhzGHBzFykQiXO88vc0NagQQPhN20Sj3JxFsxzzpzBcqMcN5ZxU9vixYvl1VdfNUvtBQoUMOm509xN0X7GjRkzRi688EIjV7YsPxLHR9ww9/PPP5vd7L1795Znn33WEXzuueeE3/83b94sFStWNOF22fyez7r/7W9/k9NOO824YUrVkeWGPOYLK2wmDuZQnbjMOjYcPiSVVy2XT/fsji8LvjycD+asXEkRUAQUAUUgZRDg1NXyqg1MoMqUWZUlzz1esdkfRsXcsGFDM6PlRrENGzYYpRhdEx7hiv5+Xr58eSlYsKBs2rQpOnmGfipNfndPhHiEjBvhWGcv4m569wY8rzRBDOOqxH33ce1fzGbFp59+OojN0DorAoqAIpDjCPBYWka0pOjt0r3NZnn7AuhqJA6EMmejYDVNONvlrDY/zkZTWSZ6kUpG4MSK55Exzo79iBe+cBVASRFQBBQBRUAROB4EElXmgTiaZgMSBKtpdl31qQgoAoqAIqAIZBcCgVLm2QVKrHIyspoWSzY74/j93Y/sjYF+8RquCCgCioAiECwEYmyAs7zX37OgfVwm58Us2UXJKi+Rm+HcbeWGusaNG7uDstxNZe7HWV6YZqgIKAKKgCKQowj4K3P/iV2mK8yjVXv37hUe0eIGsN27d5uNUhllyPvJ7bvO3c/Ro0fHFM1seTEzRWTLli3NDW8bN24UHj3jrW028Xw5d5wz3Fy5akfgyWNuW7duNdfELl++XNy71V3J1KkIKAKKgCKgCCSEgL8yZzZZrNC5aY13n/M61Zo1axql7mXuM7oFvJ+cG91s5v3npLFjx0YnjfBntryITDw8//nPf2TXrl2mDVToPBJnE++Q56rDwYMHJV++yK8Yn376qfA+dh5545WvvC1OSRFQBBQBRUAROF4EYivz4809Sp6Kr127dsKrTnm0jIqcZ79bt24dlTK9lzvXbeY96pzd//DDD+kTukKOpzxm8/bbbxulzF30NtFaGc+wP/jgg6YN5cqVE36Dvuuu0OXkHTp0EC6js35u4k54njGnArePzsWz853H8HgBzeWX81J0JUVAEVAEFAFFID0Cvsqck/IsnpinK51Wwrgc7TaMki5RVACVIme+bjOhUUl8vYmWd+qpp5rz6bYFNmbMy2r4Lfrzzz+Xt956yyy3H8W95rYlNhpX8aKzzjrLyPHCG7b5999/l4cfftgraUQYVyV49/zUqVOFFuB4eUw85Pe9nOFKioAioAgoAicWAr7KHJonqS3t0qWLseXtXqKOp0AaLqFCcs+W45HLTHlvvPGGvP/++/K///3PKcK+uY0vFXw5IB87dizCtCkT28rUFqxSpYpx8kWEBmOo9Hn9LPOJRe+99555eeH3dtaF5+xZXrRxmFh5aJwioAgoAorAiY2AvzJPYrubNWsm77zzjlFoPDueCF155ZXmitZEZDJb3rhx4+SKK66IUJzcwEbiEvwnn3xirLiddNJJ5ht6rDrRNjqJ18ROnjzZXEVLhU9TrvEQb6+bNWuWWdrnsn52ngaIp36aRhFQBBQBRSDnEIipzJMxN+d3Y85KeZe617dyfkdmfI8ePdKhwtk1N5DxrvZo8pPLqLzofNx+fpu/4447pGnTpk4wz5lTCfNbP++E51Wx3OjG9sQi7mynHHfz28Sd+VxCj0X16tWTd999Vw4cOCATJkwwRmb+7//+Txgei+yVAa9nLDmNUwQUAUVAEQgeApHbrSPqD1WeBG3OI1lcJr755puF96iT7A1hdFNh0944lSMNpriJm8y4S5xLz9HkJ5dRedH5uP28a5w777nEPXDgQBNFpczv3bSqRuK3eypM+/s3l815/pwvHdyx3rx5c/npp5+ELwE8isZ2//e//xUet2N8RveXc8c+74d/5ZVXhDbZlRQBRUARUAQUgWgE/JV5EnR5+/btpWjRoqYOM2bMcOryj3/8I2Jjlz2bdBKEHTzDzY1gfhQtF295fvlx5hydJ9Pymze/WXPjG8k2LkI3LaN16tSJTkNcZeA3d+5G79u3r1me5xl7boLjp4aMDK5wmX/nzp12dnE/WW8lRUARUAQUgdyBgK+hlW6fbZS3ZleT/CEjWLkDjQRbyR3qnPknSrz9jcfNkkn2i4ZXGTx/r6QIKAKKgCKQughkmaEVzut0bhe7ozOjyJljshU5y9CZOVFQUgQUAUUgdyDgvwGOy7SqzXPHKNBWKgKKgCKgCAQaAf9v5miW6vLg9i132yspAoqAIqAI5A4E/JV5eAPV4VG5AwhtpSKgCHgjwI01nuQR4REUIeoZHxUY5Y2Qtz2eaTwDbYm0Z5zJ0gTUpQjkCAK3J1RqnivnrNcJeEKQaWJFILcgEKX2oryRKHhEIigyNNLnyKcLThcQShoRHPJEBDkZ+jicxI7DJ6EGKwLBQ4CjWpV58PpNa6wIKAKKgCKgCDgI/D/xnz0QhG2Q4QAAAABJRU5ErkJggg==;" parent="1" vertex="1">
          <mxGeometry x="47" y="451" width="499" height="202" as="geometry" />
        </mxCell>
      </root>
    </mxGraphModel>
  </diagram>
  <diagram id="2_oFCdZN0qGEqtBkWKq4" name="Page-4">
    <mxGraphModel dx="954" dy="601" grid="1" gridSize="10" guides="1" tooltips="1" connect="1" arrows="1" fold="1" page="1" pageScale="1" pageWidth="827" pageHeight="1169" math="0" shadow="0">
      <root>
        <mxCell id="0" />
        <mxCell id="1" parent="0" />
        <mxCell id="OHUjBf07I0AEKlZ4dnxB-1" value="" style="endArrow=none;dashed=1;html=1;dashPattern=1 3;strokeWidth=2;rounded=0;" edge="1" parent="1" source="OHUjBf07I0AEKlZ4dnxB-11">
          <mxGeometry width="50" height="50" relative="1" as="geometry">
            <mxPoint x="120" y="210" as="sourcePoint" />
            <mxPoint x="640" y="210" as="targetPoint" />
          </mxGeometry>
        </mxCell>
        <mxCell id="OHUjBf07I0AEKlZ4dnxB-2" value="0" style="ellipse;whiteSpace=wrap;html=1;aspect=fixed;" vertex="1" parent="1">
          <mxGeometry x="80" y="190" width="40" height="40" as="geometry" />
        </mxCell>
        <mxCell id="OHUjBf07I0AEKlZ4dnxB-3" value="21" style="ellipse;whiteSpace=wrap;html=1;aspect=fixed;" vertex="1" parent="1">
          <mxGeometry x="640" y="185" width="45" height="45" as="geometry" />
        </mxCell>
        <mxCell id="OHUjBf07I0AEKlZ4dnxB-4" value="Player" style="shape=umlActor;verticalLabelPosition=bottom;verticalAlign=top;html=1;outlineConnect=0;" vertex="1" parent="1">
          <mxGeometry x="370" y="390" width="30" height="60" as="geometry" />
        </mxCell>
        <mxCell id="OHUjBf07I0AEKlZ4dnxB-5" value="hand:&lt;br&gt;1. дама пик&lt;br&gt;2. туз червей" style="shape=trapezoid;perimeter=trapezoidPerimeter;whiteSpace=wrap;html=1;fixedSize=1;" vertex="1" parent="1">
          <mxGeometry x="325" y="320" width="120" height="60" as="geometry" />
        </mxCell>
        <mxCell id="OHUjBf07I0AEKlZ4dnxB-8" value="" style="endArrow=none;dashed=1;html=1;dashPattern=1 3;strokeWidth=2;rounded=0;" edge="1" parent="1" target="OHUjBf07I0AEKlZ4dnxB-7">
          <mxGeometry width="50" height="50" relative="1" as="geometry">
            <mxPoint x="120" y="210" as="sourcePoint" />
            <mxPoint x="640" y="210" as="targetPoint" />
          </mxGeometry>
        </mxCell>
        <mxCell id="OHUjBf07I0AEKlZ4dnxB-7" value="10" style="ellipse;whiteSpace=wrap;html=1;aspect=fixed;" vertex="1" parent="1">
          <mxGeometry x="365" y="190" width="40" height="40" as="geometry" />
        </mxCell>
        <mxCell id="OHUjBf07I0AEKlZ4dnxB-9" value="от дамы" style="text;html=1;strokeColor=none;fillColor=none;align=center;verticalAlign=middle;whiteSpace=wrap;rounded=0;" vertex="1" parent="1">
          <mxGeometry x="355" y="230" width="60" height="30" as="geometry" />
        </mxCell>
        <mxCell id="OHUjBf07I0AEKlZ4dnxB-12" value="" style="endArrow=none;dashed=1;html=1;dashPattern=1 3;strokeWidth=2;rounded=0;" edge="1" parent="1" source="OHUjBf07I0AEKlZ4dnxB-7" target="OHUjBf07I0AEKlZ4dnxB-11">
          <mxGeometry width="50" height="50" relative="1" as="geometry">
            <mxPoint x="405" y="210" as="sourcePoint" />
            <mxPoint x="640" y="210" as="targetPoint" />
          </mxGeometry>
        </mxCell>
        <mxCell id="OHUjBf07I0AEKlZ4dnxB-11" value="20" style="ellipse;whiteSpace=wrap;html=1;aspect=fixed;" vertex="1" parent="1">
          <mxGeometry x="600" y="185" width="50" height="50" as="geometry" />
        </mxCell>
        <mxCell id="OHUjBf07I0AEKlZ4dnxB-13" value="от туза" style="text;html=1;strokeColor=none;fillColor=none;align=center;verticalAlign=middle;whiteSpace=wrap;rounded=0;" vertex="1" parent="1">
          <mxGeometry x="595" y="230" width="60" height="30" as="geometry" />
        </mxCell>
        <mxCell id="OHUjBf07I0AEKlZ4dnxB-14" value="&lt;font style=&quot;font-size: 17px;&quot;&gt;Не больше 21!&lt;/font&gt;" style="rounded=1;whiteSpace=wrap;html=1;fontColor=#00CC00;" vertex="1" parent="1">
          <mxGeometry x="580" y="100" width="120" height="60" as="geometry" />
        </mxCell>
        <mxCell id="OHUjBf07I0AEKlZ4dnxB-15" value="" style="endArrow=none;dashed=1;html=1;dashPattern=1 3;strokeWidth=2;rounded=0;" edge="1" parent="1" source="OHUjBf07I0AEKlZ4dnxB-24">
          <mxGeometry width="50" height="50" relative="1" as="geometry">
            <mxPoint x="120" y="590" as="sourcePoint" />
            <mxPoint x="640" y="590" as="targetPoint" />
          </mxGeometry>
        </mxCell>
        <mxCell id="OHUjBf07I0AEKlZ4dnxB-16" value="0" style="ellipse;whiteSpace=wrap;html=1;aspect=fixed;" vertex="1" parent="1">
          <mxGeometry x="80" y="570" width="40" height="40" as="geometry" />
        </mxCell>
        <mxCell id="OHUjBf07I0AEKlZ4dnxB-17" value="21" style="ellipse;whiteSpace=wrap;html=1;aspect=fixed;" vertex="1" parent="1">
          <mxGeometry x="640" y="565" width="45" height="45" as="geometry" />
        </mxCell>
        <mxCell id="OHUjBf07I0AEKlZ4dnxB-18" value="Player" style="shape=umlActor;verticalLabelPosition=bottom;verticalAlign=top;html=1;outlineConnect=0;" vertex="1" parent="1">
          <mxGeometry x="370" y="770" width="30" height="60" as="geometry" />
        </mxCell>
        <mxCell id="OHUjBf07I0AEKlZ4dnxB-19" value="hand:&lt;br&gt;1. дама пик&lt;br&gt;2. король бубен&lt;br&gt;3. туз крестей" style="shape=trapezoid;perimeter=trapezoidPerimeter;whiteSpace=wrap;html=1;fixedSize=1;" vertex="1" parent="1">
          <mxGeometry x="325" y="670" width="120" height="90" as="geometry" />
        </mxCell>
        <mxCell id="OHUjBf07I0AEKlZ4dnxB-20" value="" style="endArrow=none;dashed=1;html=1;dashPattern=1 3;strokeWidth=2;rounded=0;" edge="1" parent="1" target="OHUjBf07I0AEKlZ4dnxB-21">
          <mxGeometry width="50" height="50" relative="1" as="geometry">
            <mxPoint x="120" y="590" as="sourcePoint" />
            <mxPoint x="640" y="590" as="targetPoint" />
          </mxGeometry>
        </mxCell>
        <mxCell id="OHUjBf07I0AEKlZ4dnxB-21" value="10" style="ellipse;whiteSpace=wrap;html=1;aspect=fixed;" vertex="1" parent="1">
          <mxGeometry x="365" y="570" width="40" height="40" as="geometry" />
        </mxCell>
        <mxCell id="OHUjBf07I0AEKlZ4dnxB-22" value="от дамы" style="text;html=1;strokeColor=none;fillColor=none;align=center;verticalAlign=middle;whiteSpace=wrap;rounded=0;" vertex="1" parent="1">
          <mxGeometry x="355" y="610" width="60" height="30" as="geometry" />
        </mxCell>
        <mxCell id="OHUjBf07I0AEKlZ4dnxB-23" value="" style="endArrow=none;dashed=1;html=1;dashPattern=1 3;strokeWidth=2;rounded=0;" edge="1" parent="1" source="OHUjBf07I0AEKlZ4dnxB-21" target="OHUjBf07I0AEKlZ4dnxB-24">
          <mxGeometry width="50" height="50" relative="1" as="geometry">
            <mxPoint x="405" y="590" as="sourcePoint" />
            <mxPoint x="640" y="590" as="targetPoint" />
          </mxGeometry>
        </mxCell>
        <mxCell id="OHUjBf07I0AEKlZ4dnxB-24" value="20" style="ellipse;whiteSpace=wrap;html=1;aspect=fixed;" vertex="1" parent="1">
          <mxGeometry x="600" y="565" width="50" height="50" as="geometry" />
        </mxCell>
        <mxCell id="OHUjBf07I0AEKlZ4dnxB-25" value="от короля" style="text;html=1;strokeColor=none;fillColor=none;align=center;verticalAlign=middle;whiteSpace=wrap;rounded=0;" vertex="1" parent="1">
          <mxGeometry x="595" y="610" width="60" height="30" as="geometry" />
        </mxCell>
        <mxCell id="OHUjBf07I0AEKlZ4dnxB-26" value="&lt;font style=&quot;font-size: 17px;&quot;&gt;Не больше 21!&lt;/font&gt;" style="rounded=1;whiteSpace=wrap;html=1;fontColor=#00CC00;" vertex="1" parent="1">
          <mxGeometry x="580" y="480" width="120" height="60" as="geometry" />
        </mxCell>
        <mxCell id="OHUjBf07I0AEKlZ4dnxB-27" value="от&lt;br&gt;другого туза" style="text;html=1;strokeColor=none;fillColor=none;align=center;verticalAlign=middle;whiteSpace=wrap;rounded=0;" vertex="1" parent="1">
          <mxGeometry x="632.5" y="630" width="60" height="30" as="geometry" />
        </mxCell>
        <mxCell id="OHUjBf07I0AEKlZ4dnxB-31" value="&lt;font face=&quot;Courier New&quot;&gt;@new_player.hand.each do |element|&lt;br style=&quot;&quot;&gt;&amp;nbsp; if element.card_power = &quot;A&quot; &amp;amp;&amp;amp; element.&lt;br style=&quot;&quot;&gt;&lt;span style=&quot;&quot;&gt;end&lt;/span&gt;&lt;/font&gt;" style="rounded=0;whiteSpace=wrap;html=1;align=left;verticalAlign=top;" vertex="1" parent="1">
          <mxGeometry x="80" y="900" width="660" height="240" as="geometry" />
        </mxCell>
      </root>
    </mxGraphModel>
  </diagram>
</mxfile>
